999
dxfrw 0.6.3
  0
SECTION
  2
HEADER
  9
$ACADVER
  1
AC1021
  9
$DWGCODEPAGE
  3
ANSI_936
  9
$INSBASE
 10
0
 20
0
 30
0
  9
$EXTMIN
 10
0
 20
-398.835066500743
 30
0
  9
$EXTMAX
 10
334.86988127221
 20
4
 30
0
  9
$LIMMIN
 10
0
 20
0
  9
$LIMMAX
 10
420
 20
297
  9
$ORTHOMODE
 70
    0
  9
$REGENMODE
 70
    1
  9
$FILLMODE
 70
    1
  9
$QTEXTMODE
 70
    0
  9
$MIRRTEXT
 70
    0
  9
$LTSCALE
 40
1
  9
$ATTMODE
 70
    1
  9
$TEXTSIZE
 40
2.5
  9
$TRACEWID
 40
1
  9
$TEXTSTYLE
  7
Standard
  9
$CLAYER
  8
0
  9
$CELTYPE
  6
ByLayer
  9
$CECOLOR
 62
  256
  9
$CELTSCALE
 40
1
  9
$DISPSILH
 70
    0
  9
$DIMSCALE
 40
1
  9
$DIMASZ
 40
2.5
  9
$DIMEXO
 40
0.625
  9
$DIMDLI
 40
3.75
  9
$DIMRND
 40
0
  9
$DIMDLE
 40
0
  9
$DIMEXE
 40
1.25
  9
$DIMTP
 40
0
  9
$DIMTM
 40
0
  9
$DIMTXT
 40
2.5
  9
$DIMCEN
 40
2.5
  9
$DIMTSZ
 40
0
  9
$DIMTOL
 70
    0
  9
$DIMLIM
 70
    0
  9
$DIMTIH
 70
    0
  9
$DIMTOH
 70
    0
  9
$DIMSE1
 70
    0
  9
$DIMSE2
 70
    0
  9
$DIMTAD
 70
    1
  9
$DIMZIN
 70
    8
  9
$DIMBLK
  1

  9
$DIMASO
 70
    1
  9
$DIMSHO
 70
    1
  9
$DIMPOST
  1

  9
$DIMAPOST
  1

  9
$DIMALT
 70
    0
  9
$DIMALTD
 70
    3
  9
$DIMALTF
 40
0.03937007874016
  9
$DIMLFAC
 40
1
  9
$DIMTOFL
 70
    1
  9
$DIMTVP
 40
0
  9
$DIMTIX
 70
    0
  9
$DIMSOXD
 70
    0
  9
$DIMSAH
 70
    0
  9
$DIMBLK1
  1

  9
$DIMBLK2
  1

  9
$DIMSTYLE
  2
ISO-25
  9
$DIMCLRD
 70
    0
  9
$DIMCLRE
 70
    0
  9
$DIMCLRT
 70
    0
  9
$DIMTFAC
 40
1
  9
$DIMGAP
 40
0.625
  9
$DIMJUST
 70
    0
  9
$DIMSD1
 70
    0
  9
$DIMSD2
 70
    0
  9
$DIMTOLJ
 70
    0
  9
$DIMTZIN
 70
    8
  9
$DIMALTZ
 70
    0
  9
$DIMALTTZ
 70
    0
  9
$DIMUPT
 70
    0
  9
$DIMDEC
 70
    2
  9
$DIMTDEC
 70
    2
  9
$DIMALTU
 70
    2
  9
$DIMALTTD
 70
    3
  9
$DIMTXSTY
  7
Standard
  9
$DIMAUNIT
 70
    0
  9
$DIMADEC
 70
    0
  9
$DIMALTRND
 40
0
  9
$DIMAZIN
 70
    0
  9
$DIMDSEP
 70
   44
  9
$DIMATFIT
 70
    3
  9
$DIMFRAC
 70
    0
  9
$DIMLDRBLK
  1

  9
$DIMLUNIT
 70
    2
  9
$DIMLWD
 70
   -2
  9
$DIMLWE
 70
   -2
  9
$DIMTMOVE
 70
    0
  9
$DIMFXL
 40
1
  9
$DIMFXLON
 70
    0
  9
$DIMJOGANG
 40
0.7853981633974483
  9
$DIMTFILL
 70
    0
  9
$DIMTFILLCLR
 70
    0
  9
$DIMARCSYM
 70
    0
  9
$DIMLTYPE
  6

  9
$DIMLTEX1
  6

  9
$DIMLTEX2
  6

  9
$LUNITS
 70
    2
  9
$LUPREC
 70
    4
  9
$SKETCHINC
 40
1
  9
$FILLETRAD
 40
0
  9
$AUNITS
 70
    0
  9
$AUPREC
 70
    0
  9
$MENU
  1
.
  9
$ELEVATION
 40
0
  9
$PELEVATION
 40
0
  9
$THICKNESS
 40
0
  9
$LIMCHECK
 70
    0
  9
$CHAMFERA
 40
0
  9
$CHAMFERB
 40
0
  9
$CHAMFERC
 40
0
  9
$CHAMFERD
 40
0
  9
$SKPOLY
 70
    0
  9
$USRTIMER
 70
    1
  9
$ANGBASE
 50
0
  9
$ANGDIR
 70
    0
  9
$PDMODE
 70
    0
  9
$PDSIZE
 40
0
  9
$PLINEWID
 40
0
  9
$SPLFRAME
 70
    0
  9
$SPLINETYPE
 70
    6
  9
$SPLINESEGS
 70
    8
  9
$HANDSEED
  5
20000
  9
$SURFTAB1
 70
    6
  9
$SURFTAB2
 70
    6
  9
$SURFTYPE
 70
    6
  9
$SURFU
 70
    6
  9
$SURFV
 70
    6
  9
$UCSBASE
  2

  9
$UCSNAME
  2

  9
$UCSORG
 10
0
 20
0
 30
0
  9
$UCSXDIR
 10
1
 20
0
 30
0
  9
$UCSYDIR
 10
0
 20
1
 30
0
  9
$UCSORTHOREF
  2

  9
$UCSORTHOVIEW
 70
    0
  9
$UCSORGTOP
 10
0
 20
0
 30
0
  9
$UCSORGBOTTOM
 10
0
 20
0
 30
0
  9
$UCSORGLEFT
 10
0
 20
0
 30
0
  9
$UCSORGRIGHT
 10
0
 20
0
 30
0
  9
$UCSORGFRONT
 10
0
 20
0
 30
0
  9
$UCSORGBACK
 10
0
 20
0
 30
0
  9
$PUCSBASE
  2

  9
$PUCSNAME
  2

  9
$PUCSORG
 10
0
 20
0
 30
0
  9
$PUCSXDIR
 10
1
 20
0
 30
0
  9
$PUCSYDIR
 10
0
 20
1
 30
0
  9
$PUCSORTHOREF
  2

  9
$PUCSORTHOVIEW
 70
    0
  9
$PUCSORGTOP
 10
0
 20
0
 30
0
  9
$PUCSORGBOTTOM
 10
0
 20
0
 30
0
  9
$PUCSORGLEFT
 10
0
 20
0
 30
0
  9
$PUCSORGRIGHT
 10
0
 20
0
 30
0
  9
$PUCSORGFRONT
 10
0
 20
0
 30
0
  9
$PUCSORGBACK
 10
0
 20
0
 30
0
  9
$USERI1
 70
    0
  9
$USERI2
 70
    0
  9
$USERI3
 70
    0
  9
$USERI4
 70
    0
  9
$USERI5
 70
    0
  9
$USERR1
 40
0
  9
$USERR2
 40
0
  9
$USERR3
 40
0
  9
$USERR4
 40
0
  9
$USERR5
 40
0
  9
$WORLDVIEW
 70
    1
  9
$SHADEDGE
 70
    3
  9
$SHADEDIF
 70
   70
  9
$TILEMODE
 70
    1
  9
$MAXACTVP
 70
   64
  9
$PINSBASE
 10
0
 20
0
 30
0
  9
$PLIMCHECK
 70
    0
  9
$PEXTMIN
 10
0
 20
0
 30
0
  9
$PEXTMAX
 10
0
 20
0
 30
0
  9
$GRIDMODE
 70
    1
  9
$SNAPSTYLE
 70
    0
  9
$PLIMMIN
 10
0
 20
0
  9
$PLIMMAX
 10
12
 20
9
  9
$UNITMODE
 70
    0
  9
$VISRETAIN
 70
    1
  9
$PLINEGEN
 70
    0
  9
$PSLTSCALE
 70
    1
  9
$TREEDEPTH
 70
 3020
  9
$CMLSTYLE
  2
Standard
  9
$CMLJUST
 70
    0
  9
$CMLSCALE
 40
20
  9
$PROXYGRAPHICS
 70
    1
  9
$MEASUREMENT
 70
    1
  9
$CELWEIGHT
370
   -1
  9
$ENDCAPS
280
    0
  9
$JOINSTYLE
280
    0
  9
$LWDISPLAY
290
    0
  9
$INSUNITS
 70
    4
  9
$HYPERLINKBASE
  1

  9
$STYLESHEET
  1

  9
$XEDIT
290
    1
  9
$CEPSNTYPE
380
    0
  9
$PSTYLEMODE
290
    1
  9
$EXTNAMES
290
    1
  9
$PSVPSCALE
 40
0
  9
$OLESTARTUP
290
    0
  9
$SORTENTS
280
  127
  9
$INDEXCTL
280
    0
  9
$HIDETEXT
280
    1
  9
$XCLIPFRAME
290
    0
  9
$HALOGAP
280
    0
  9
$OBSCOLOR
 70
  257
  9
$OBSLTYPE
280
    0
  9
$INTERSECTIONDISPLAY
280
    0
  9
$INTERSECTIONCOLOR
 70
  257
  9
$DIMASSOC
280
    2
  9
$PROJECTNAME
  1

  9
$CAMERADISPLAY
290
    0
  9
$LENSLENGTH
 40
50
  9
$CAMERAHEIGHT
 40
0
  9
$STEPSPERSEC
 40
2
  9
$STEPSIZE
 40
6
  9
$3DDWFPREC
 40
2
  9
$PSOLWIDTH
 40
5
  9
$PSOLHEIGHT
 40
80
  9
$LOFTANG1
 40
1.570796326794896
  9
$LOFTANG2
 40
1.570796326794896
  9
$LOFTMAG1
 40
0
  9
$LOFTMAG2
 40
0
  9
$LOFTPARAM
 70
    7
  9
$LOFTNORMALS
280
    1
  9
$LATITUDE
 40
37.795
  9
$LONGITUDE
 40
-122.394
  9
$NORTHDIRECTION
 40
0
  9
$TIMEZONE
 70
-8000
  9
$LIGHTGLYPHDISPLAY
280
    1
  9
$TILEMODELIGHTSYNCH
280
    1
  9
$SOLIDHIST
280
    0
  9
$SHOWHIST
280
    1
  9
$DWFFRAME
280
    2
  9
$DGNFRAME
280
    0
  9
$REALWORLDSCALE
290
    1
  9
$INTERFERECOLOR
 62
    1
  9
$CSHADOW
280
    0
  9
$SHADOWPLANELOCATION
 40
0
  0
ENDSEC
  0
SECTION
  2
CLASSES
  0
ENDSEC
  0
SECTION
  2
TABLES
  0
TABLE
  2
VPORT
  5
8
330
0
100
AcDbSymbolTable
 70
    1
  0
VPORT
  5
31
330
2
100
AcDbSymbolTableRecord
100
AcDbViewportTableRecord
  2
*ACTIVE
 70
    0
 10
0
 20
0
 11
1
 21
1
 12
645.1231139110096
 22
157.7537634414596
 13
0
 23
0
 14
10
 24
10
 15
10
 25
10
 16
0
 26
0
 36
1
 17
0
 27
0
 37
0
 40
1047.844103509532
 41
1.936352509179927
 42
50
 43
0
 44
0
 50
0
 51
0
 71
    0
 72
  100
 73
    1
 74
    3
 75
    0
 76
    1
 77
    0
 78
    0
281
    0
 65
    1
110
0
120
0
130
0
111
1
121
0
131
0
112
0
122
1
132
0
 79
    0
146
0
348
10020
 60
    7
 61
    5
292
1
282
    1
141
0
142
0
 63
  250
421
3358443
  0
ENDTAB
  0
TABLE
  2
LTYPE
  5
5
330
0
100
AcDbSymbolTable
 70
    4
  0
LTYPE
  5
14
330
5
100
AcDbSymbolTableRecord
100
AcDbLinetypeTableRecord
  2
ByBlock
 70
    0
  3

 72
   65
 73
    0
 40
0
  0
LTYPE
  5
15
330
5
100
AcDbSymbolTableRecord
100
AcDbLinetypeTableRecord
  2
ByLayer
 70
    0
  3

 72
   65
 73
    0
 40
0
  0
LTYPE
  5
16
330
5
100
AcDbSymbolTableRecord
100
AcDbLinetypeTableRecord
  2
Continuous
 70
    0
  3
Solid line
 72
   65
 73
    0
 40
0
  0
LTYPE
  5
32
330
5
100
AcDbSymbolTableRecord
100
AcDbLinetypeTableRecord
  2
DOT
 70
    0
  3
Dot . . . . . . . . . . . . . . . . . . . . . .
 72
   65
 73
    2
 40
6.35
 49
0
 74
    0
 49
-6.35
 74
    0
  0
LTYPE
  5
33
330
5
100
AcDbSymbolTableRecord
100
AcDbLinetypeTableRecord
  2
DOTTINY
 70
    0
  3
Dot (.15x) .....................................
 72
   65
 73
    2
 40
0.9525
 49
0
 74
    0
 49
-0.9525
 74
    0
  0
LTYPE
  5
34
330
5
100
AcDbSymbolTableRecord
100
AcDbLinetypeTableRecord
  2
DOT2
 70
    0
  3
Dot (.5x) .....................................
 72
   65
 73
    2
 40
3.175
 49
0
 74
    0
 49
-3.175
 74
    0
  0
LTYPE
  5
35
330
5
100
AcDbSymbolTableRecord
100
AcDbLinetypeTableRecord
  2
DOTX2
 70
    0
  3
Dot (2x) .  .  .  .  .  .  .  .  .  .  .  .  .
 72
   65
 73
    2
 40
12.7
 49
0
 74
    0
 49
-12.7
 74
    0
  0
LTYPE
  5
36
330
5
100
AcDbSymbolTableRecord
100
AcDbLinetypeTableRecord
  2
DASHED
 70
    0
  3
Dashed _ _ _ _ _ _ _ _ _ _ _ _ _ _ _ _ _
 72
   65
 73
    2
 40
19.05
 49
12.7
 74
    0
 49
-6.35
 74
    0
  0
LTYPE
  5
37
330
5
100
AcDbSymbolTableRecord
100
AcDbLinetypeTableRecord
  2
DASHEDTINY
 70
    0
  3
Dashed (.15x) _ _ _ _ _ _ _ _ _ _ _ _ _ _ _ _ _
 72
   65
 73
    2
 40
2.8575
 49
1.905
 74
    0
 49
-0.9525
 74
    0
  0
LTYPE
  5
38
330
5
100
AcDbSymbolTableRecord
100
AcDbLinetypeTableRecord
  2
DASHED2
 70
    0
  3
Dashed (.5x) _ _ _ _ _ _ _ _ _ _ _ _ _ _ _ _ _
 72
   65
 73
    2
 40
9.524999999999999
 49
6.35
 74
    0
 49
-3.175
 74
    0
  0
LTYPE
  5
39
330
5
100
AcDbSymbolTableRecord
100
AcDbLinetypeTableRecord
  2
DASHEDX2
 70
    0
  3
Dashed (2x) ____  ____  ____  ____  ____  ___
 72
   65
 73
    2
 40
38.09999999999999
 49
25.4
 74
    0
 49
-12.7
 74
    0
  0
LTYPE
  5
3A
330
5
100
AcDbSymbolTableRecord
100
AcDbLinetypeTableRecord
  2
DASHDOT
 70
    0
  3
Dash dot __ . __ . __ . __ . __ . __ . __ . __
 72
   65
 73
    4
 40
25.4
 49
12.7
 74
    0
 49
-6.35
 74
    0
 49
0
 74
    0
 49
-6.35
 74
    0
  0
LTYPE
  5
3B
330
5
100
AcDbSymbolTableRecord
100
AcDbLinetypeTableRecord
  2
DASHDOTTINY
 70
    0
  3
Dash dot (.15x) _._._._._._._._._._._._._._._.
 72
   65
 73
    4
 40
3.81
 49
1.905
 74
    0
 49
-0.9525
 74
    0
 49
0
 74
    0
 49
-0.9525
 74
    0
  0
LTYPE
  5
3C
330
5
100
AcDbSymbolTableRecord
100
AcDbLinetypeTableRecord
  2
DASHDOT2
 70
    0
  3
Dash dot (.5x) _._._._._._._._._._._._._._._.
 72
   65
 73
    4
 40
12.7
 49
6.35
 74
    0
 49
-3.175
 74
    0
 49
0
 74
    0
 49
-3.175
 74
    0
  0
LTYPE
  5
3D
330
5
100
AcDbSymbolTableRecord
100
AcDbLinetypeTableRecord
  2
DASHDOTX2
 70
    0
  3
Dash dot (2x) ____  .  ____  .  ____  .  ___
 72
   65
 73
    4
 40
50.8
 49
25.4
 74
    0
 49
-12.7
 74
    0
 49
0
 74
    0
 49
-12.7
 74
    0
  0
LTYPE
  5
3E
330
5
100
AcDbSymbolTableRecord
100
AcDbLinetypeTableRecord
  2
DIVIDE
 70
    0
  3
Divide ____ . . ____ . . ____ . . ____ . . ____
 72
   65
 73
    6
 40
31.75
 49
12.7
 74
    0
 49
-6.35
 74
    0
 49
0
 74
    0
 49
-6.35
 74
    0
 49
0
 74
    0
 49
-6.35
 74
    0
  0
LTYPE
  5
3F
330
5
100
AcDbSymbolTableRecord
100
AcDbLinetypeTableRecord
  2
DIVIDETINY
 70
    0
  3
Divide (.15x) __..__..__..__..__..__..__..__.._
 72
   65
 73
    6
 40
4.7625
 49
1.905
 74
    0
 49
-0.9525
 74
    0
 49
0
 74
    0
 49
-0.9525
 74
    0
 49
0
 74
    0
 49
-0.9525
 74
    0
  0
LTYPE
  5
40
330
5
100
AcDbSymbolTableRecord
100
AcDbLinetypeTableRecord
  2
DIVIDE2
 70
    0
  3
Divide (.5x) __..__..__..__..__..__..__..__.._
 72
   65
 73
    6
 40
15.875
 49
6.35
 74
    0
 49
-3.175
 74
    0
 49
0
 74
    0
 49
-3.175
 74
    0
 49
0
 74
    0
 49
-3.175
 74
    0
  0
LTYPE
  5
41
330
5
100
AcDbSymbolTableRecord
100
AcDbLinetypeTableRecord
  2
DIVIDEX2
 70
    0
  3
Divide (2x) ________  .  .  ________  .  .  _
 72
   65
 73
    6
 40
63.5
 49
25.4
 74
    0
 49
-12.7
 74
    0
 49
0
 74
    0
 49
-12.7
 74
    0
 49
0
 74
    0
 49
-12.7
 74
    0
  0
LTYPE
  5
42
330
5
100
AcDbSymbolTableRecord
100
AcDbLinetypeTableRecord
  2
BORDER
 70
    0
  3
Border __ __ . __ __ . __ __ . __ __ . __ __ .
 72
   65
 73
    6
 40
44.45
 49
12.7
 74
    0
 49
-6.35
 74
    0
 49
12.7
 74
    0
 49
-6.35
 74
    0
 49
0
 74
    0
 49
-6.35
 74
    0
  0
LTYPE
  5
43
330
5
100
AcDbSymbolTableRecord
100
AcDbLinetypeTableRecord
  2
BORDERTINY
 70
    0
  3
Border (.15x) __.__.__.__.__.__.__.__.__.__.__.
 72
   65
 73
    6
 40
6.6675
 49
1.905
 74
    0
 49
-0.9525
 74
    0
 49
1.905
 74
    0
 49
-0.9525
 74
    0
 49
0
 74
    0
 49
-0.9525
 74
    0
  0
LTYPE
  5
44
330
5
100
AcDbSymbolTableRecord
100
AcDbLinetypeTableRecord
  2
BORDER2
 70
    0
  3
Border (.5x) __.__.__.__.__.__.__.__.__.__.__.
 72
   65
 73
    6
 40
22.225
 49
6.35
 74
    0
 49
-3.175
 74
    0
 49
6.35
 74
    0
 49
-3.175
 74
    0
 49
0
 74
    0
 49
-3.175
 74
    0
  0
LTYPE
  5
45
330
5
100
AcDbSymbolTableRecord
100
AcDbLinetypeTableRecord
  2
BORDERX2
 70
    0
  3
Border (2x) ____  ____  .  ____  ____  .  ___
 72
   65
 73
    6
 40
88.89999999999999
 49
25.4
 74
    0
 49
-12.7
 74
    0
 49
25.4
 74
    0
 49
-12.7
 74
    0
 49
0
 74
    0
 49
-12.7
 74
    0
  0
LTYPE
  5
46
330
5
100
AcDbSymbolTableRecord
100
AcDbLinetypeTableRecord
  2
CENTER
 70
    0
  3
Center ____ _ ____ _ ____ _ ____ _ ____ _ ____
 72
   65
 73
    4
 40
50.8
 49
31.75
 74
    0
 49
-6.35
 74
    0
 49
6.35
 74
    0
 49
-6.35
 74
    0
  0
LTYPE
  5
47
330
5
100
AcDbSymbolTableRecord
100
AcDbLinetypeTableRecord
  2
CENTERTINY
 70
    0
  3
Center (.15x) ___ _ ___ _ ___ _ ___ _ ___ _ ___
 72
   65
 73
    4
 40
7.62
 49
4.7625
 74
    0
 49
-0.9525
 74
    0
 49
0.9525
 74
    0
 49
-0.9525
 74
    0
  0
LTYPE
  5
48
330
5
100
AcDbSymbolTableRecord
100
AcDbLinetypeTableRecord
  2
CENTER2
 70
    0
  3
Center (.5x) ___ _ ___ _ ___ _ ___ _ ___ _ ___
 72
   65
 73
    4
 40
28.575
 49
19.05
 74
    0
 49
-3.175
 74
    0
 49
3.175
 74
    0
 49
-3.175
 74
    0
  0
LTYPE
  5
49
330
5
100
AcDbSymbolTableRecord
100
AcDbLinetypeTableRecord
  2
CENTERX2
 70
    0
  3
Center (2x) ________  __  ________  __  _____
 72
   65
 73
    4
 40
101.6
 49
63.5
 74
    0
 49
-12.7
 74
    0
 49
12.7
 74
    0
 49
-12.7
 74
    0
  0
ENDTAB
  0
TABLE
  2
LAYER
  5
2
330
0
100
AcDbSymbolTable
 70
    1
  0
LAYER
  5
10
330
2
100
AcDbSymbolTableRecord
100
AcDbLayerTableRecord
  2
0
 70
    0
 62
    7
  6
CONTINUOUS
370
   -3
390
F
  0
LAYER
  5
4A
330
2
100
AcDbSymbolTableRecord
100
AcDbLayerTableRecord
  2
BoardOutLine
 70
    0
 62
    6
  6
CONTINUOUS
370
   -3
390
F
  0
ENDTAB
  0
TABLE
  2
STYLE
  5
3
330
0
100
AcDbSymbolTable
 70
    3
  0
STYLE
  5
4B
330
2
100
AcDbSymbolTableRecord
100
AcDbTextStyleTableRecord
  2
Standard
 70
    0
 40
0
 41
1
 50
0
 71
    0
 42
1
  3
txt
  4

  0
ENDTAB
  0
TABLE
  2
VIEW
  5
6
330
0
100
AcDbSymbolTable
 70
    0
  0
ENDTAB
  0
TABLE
  2
UCS
  5
7
330
0
100
AcDbSymbolTable
 70
    0
  0
ENDTAB
  0
TABLE
  2
APPID
  5
9
330
0
100
AcDbSymbolTable
 70
    1
  0
APPID
  5
12
330
9
100
AcDbSymbolTableRecord
100
AcDbRegAppTableRecord
  2
ACAD
 70
    0
  0
APPID
  5
4C
330
9
100
AcDbSymbolTableRecord
100
AcDbRegAppTableRecord
  2
LibreCad
 70
    0
  0
ENDTAB
  0
TABLE
  2
DIMSTYLE
  5
A
330
0
100
AcDbSymbolTable
 70
    1
100
AcDbDimStyleTable
 71
    1
  0
DIMSTYLE
105
4D
330
A
100
AcDbSymbolTableRecord
100
AcDbDimStyleTableRecord
  2
Standard
 70
    0
 40
1
 41
2.5
 42
0.625
 43
0.38
 44
1.25
 45
0
 46
0
 47
0
 48
0
 49
1
140
2.5
141
0.09
142
0
143
25.4
144
1
145
0
146
1
147
0.625
148
0
 71
    0
 72
    0
 73
    0
 74
    1
 75
    0
 76
    0
 77
    0
 78
    8
 79
    0
170
    0
171
    2
172
    0
173
    0
174
    0
175
    0
176
    0
177
    0
178
    0
179
    0
271
    2
272
    4
273
    2
274
    2
275
    0
276
    0
277
    2
278
   44
279
    0
280
    0
281
    0
282
    0
283
    1
284
    0
285
    0
286
    0
288
    0
289
    3
340
Standard
341

371
   -2
372
   -2
  0
ENDTAB
  0
TABLE
  2
BLOCK_RECORD
  5
1
330
0
100
AcDbSymbolTable
 70
    2
  0
BLOCK_RECORD
  5
1F
330
1
100
AcDbSymbolTableRecord
100
AcDbBlockTableRecord
  2
*Model_Space
 70
    0
280
    1
281
    0
  0
BLOCK_RECORD
  5
1E
330
1
100
AcDbSymbolTableRecord
100
AcDbBlockTableRecord
  2
*Paper_Space
 70
    0
280
    1
281
    0
  0
ENDTAB
  0
ENDSEC
  0
SECTION
  2
BLOCKS
  0
BLOCK
  5
20
330
1F
100
AcDbEntity
  8
0
100
AcDbBlockBegin
  2
*Model_Space
 70
    0
 10
0
 20
0
 30
0
  3
*Model_Space
  1

  0
ENDBLK
  5
21
330
1F
100
AcDbEntity
  8
0
100
AcDbBlockEnd
  0
BLOCK
  5
1C
330
1B
100
AcDbEntity
  8
0
100
AcDbBlockBegin
  2
*Paper_Space
 70
    0
 10
0
 20
0
 30
0
  3
*Paper_Space
  1

  0
ENDBLK
  5
1D
330
1F
100
AcDbEntity
  8
0
100
AcDbBlockEnd
  0
ENDSEC
  0
SECTION
  2
ENTITIES
  0
LINE
  5
4E
100
AcDbEntity
  8
0
  6
ByLayer
 62
  256
370
   -1
100
AcDbLine
 10
40.857498
 20
-70.63531519307689
 11
54.869498
 21
-70.63531519307689
  0
LINE
  5
4F
100
AcDbEntity
  8
0
  6
ByLayer
 62
  256
370
   -1
100
AcDbLine
 10
54.869498
 20
-70.63531519307689
 11
54.869498
 21
-84.64831519307687
  0
LINE
  5
50
100
AcDbEntity
  8
0
  6
ByLayer
 62
  256
370
   -1
100
AcDbLine
 10
54.869498
 20
-84.64831519307687
 11
40.857498
 21
-84.64831519307687
  0
LINE
  5
51
100
AcDbEntity
  8
0
  6
ByLayer
 62
  256
370
   -1
100
AcDbLine
 10
40.857498
 20
-84.64831519307687
 11
40.857498
 21
-70.63531519307689
  0
LINE
  5
52
100
AcDbEntity
  8
0
  6
ByLayer
 62
  256
370
   -1
100
AcDbLine
 10
40.857498
 20
-51.58531519307688
 11
54.869498
 21
-51.58531519307688
  0
LINE
  5
53
100
AcDbEntity
  8
0
  6
ByLayer
 62
  256
370
   -1
100
AcDbLine
 10
54.869498
 20
-51.58531519307688
 11
54.869498
 21
-65.59831519307689
  0
LINE
  5
54
100
AcDbEntity
  8
0
  6
ByLayer
 62
  256
370
   -1
100
AcDbLine
 10
54.869498
 20
-65.59831519307689
 11
40.857498
 21
-65.59831519307689
  0
LINE
  5
55
100
AcDbEntity
  8
0
  6
ByLayer
 62
  256
370
   -1
100
AcDbLine
 10
40.857498
 20
-65.59831519307689
 11
40.857498
 21
-51.58531519307688
  0
LINE
  5
56
100
AcDbEntity
  8
0
  6
ByLayer
 62
  256
370
   -1
100
AcDbLine
 10
2.756078
 20
-75.39831519307687
 11
16.769298
 21
-75.39831519307687
  0
LINE
  5
57
100
AcDbEntity
  8
0
  6
ByLayer
 62
  256
370
   -1
100
AcDbLine
 10
16.769298
 20
-75.39831519307687
 11
16.769298
 21
-89.41131519307685
  0
LINE
  5
58
100
AcDbEntity
  8
0
  6
ByLayer
 62
  256
370
   -1
100
AcDbLine
 10
16.769298
 20
-89.41131519307685
 11
2.756078
 21
-89.41131519307685
  0
LINE
  5
59
100
AcDbEntity
  8
0
  6
ByLayer
 62
  256
370
   -1
100
AcDbLine
 10
2.756078
 20
-89.41131519307685
 11
2.756078
 21
-75.39831519307687
  0
LINE
  5
5A
100
AcDbEntity
  8
0
  6
ByLayer
 62
  256
370
   -1
100
AcDbLine
 10
2.756078
 20
-18.24831519307686
 11
16.769298
 21
-18.24831519307686
  0
LINE
  5
5B
100
AcDbEntity
  8
0
  6
ByLayer
 62
  256
370
   -1
100
AcDbLine
 10
16.769298
 20
-18.24831519307686
 11
16.769298
 21
-32.26131519307687
  0
LINE
  5
5C
100
AcDbEntity
  8
0
  6
ByLayer
 62
  256
370
   -1
100
AcDbLine
 10
16.769298
 20
-32.26131519307687
 11
2.756078
 21
-32.26131519307687
  0
LINE
  5
5D
100
AcDbEntity
  8
0
  6
ByLayer
 62
  256
370
   -1
100
AcDbLine
 10
2.756078
 20
-32.26131519307687
 11
2.756078
 21
-18.24831519307686
  0
LINE
  5
5E
100
AcDbEntity
  8
0
  6
ByLayer
 62
  256
370
   -1
100
AcDbLine
 10
98.00749800000001
 20
-15.87731519307688
 11
112.019598
 21
-15.87731519307688
  0
LINE
  5
5F
100
AcDbEntity
  8
0
  6
ByLayer
 62
  256
370
   -1
100
AcDbLine
 10
112.019598
 20
-15.87731519307688
 11
112.019598
 21
-29.86831519307687
  0
LINE
  5
60
100
AcDbEntity
  8
0
  6
ByLayer
 62
  256
370
   -1
100
AcDbLine
 10
112.019598
 20
-29.86831519307687
 11
98.00749800000001
 21
-29.86831519307687
  0
LINE
  5
61
100
AcDbEntity
  8
0
  6
ByLayer
 62
  256
370
   -1
100
AcDbLine
 10
98.00749800000001
 20
-29.86831519307687
 11
98.00749800000001
 21
-15.87731519307688
  0
LINE
  5
62
100
AcDbEntity
  8
0
  6
ByLayer
 62
  256
370
   -1
100
AcDbLine
 10
2.756078
 20
-37.29831519307687
 11
16.769298
 21
-37.29831519307687
  0
LINE
  5
63
100
AcDbEntity
  8
0
  6
ByLayer
 62
  256
370
   -1
100
AcDbLine
 10
16.769298
 20
-37.29831519307687
 11
16.769298
 21
-51.31131519307688
  0
LINE
  5
64
100
AcDbEntity
  8
0
  6
ByLayer
 62
  256
370
   -1
100
AcDbLine
 10
16.769298
 20
-51.31131519307688
 11
2.756078
 21
-51.31131519307688
  0
LINE
  5
65
100
AcDbEntity
  8
0
  6
ByLayer
 62
  256
370
   -1
100
AcDbLine
 10
2.756078
 20
-51.31131519307688
 11
2.756078
 21
-37.29831519307687
  0
LINE
  5
66
100
AcDbEntity
  8
0
  6
ByLayer
 62
  256
370
   -1
100
AcDbLine
 10
2.756078
 20
-56.34831519307689
 11
16.769298
 21
-56.34831519307689
  0
LINE
  5
67
100
AcDbEntity
  8
0
  6
ByLayer
 62
  256
370
   -1
100
AcDbLine
 10
16.769298
 20
-56.34831519307689
 11
16.769298
 21
-70.36131519307689
  0
LINE
  5
68
100
AcDbEntity
  8
0
  6
ByLayer
 62
  256
370
   -1
100
AcDbLine
 10
16.769298
 20
-70.36131519307689
 11
2.756078
 21
-70.36131519307689
  0
LINE
  5
69
100
AcDbEntity
  8
0
  6
ByLayer
 62
  256
370
   -1
100
AcDbLine
 10
2.756078
 20
-70.36131519307689
 11
2.756078
 21
-56.34831519307689
  0
LINE
  5
6A
100
AcDbEntity
  8
0
  6
ByLayer
 62
  256
370
   -1
100
AcDbLine
 10
21.807498
 20
-18.24831519307686
 11
35.819498
 21
-18.24831519307686
  0
LINE
  5
6B
100
AcDbEntity
  8
0
  6
ByLayer
 62
  256
370
   -1
100
AcDbLine
 10
35.819498
 20
-18.24831519307686
 11
35.819498
 21
-32.26131519307687
  0
LINE
  5
6C
100
AcDbEntity
  8
0
  6
ByLayer
 62
  256
370
   -1
100
AcDbLine
 10
35.819498
 20
-32.26131519307687
 11
21.807498
 21
-32.26131519307687
  0
LINE
  5
6D
100
AcDbEntity
  8
0
  6
ByLayer
 62
  256
370
   -1
100
AcDbLine
 10
21.807498
 20
-32.26131519307687
 11
21.807498
 21
-18.24831519307686
  0
LINE
  5
6E
100
AcDbEntity
  8
0
  6
ByLayer
 62
  256
370
   -1
100
AcDbLine
 10
21.807498
 20
-37.29831519307687
 11
35.819498
 21
-37.29831519307687
  0
LINE
  5
6F
100
AcDbEntity
  8
0
  6
ByLayer
 62
  256
370
   -1
100
AcDbLine
 10
35.819498
 20
-37.29831519307687
 11
35.819498
 21
-51.31131519307688
  0
LINE
  5
70
100
AcDbEntity
  8
0
  6
ByLayer
 62
  256
370
   -1
100
AcDbLine
 10
35.819498
 20
-51.31131519307688
 11
21.807498
 21
-51.31131519307688
  0
LINE
  5
71
100
AcDbEntity
  8
0
  6
ByLayer
 62
  256
370
   -1
100
AcDbLine
 10
21.807498
 20
-51.31131519307688
 11
21.807498
 21
-37.29831519307687
  0
LINE
  5
72
100
AcDbEntity
  8
0
  6
ByLayer
 62
  256
370
   -1
100
AcDbLine
 10
21.807498
 20
-56.34831519307689
 11
35.819498
 21
-56.34831519307689
  0
LINE
  5
73
100
AcDbEntity
  8
0
  6
ByLayer
 62
  256
370
   -1
100
AcDbLine
 10
35.819498
 20
-56.34831519307689
 11
35.819498
 21
-70.36131519307689
  0
LINE
  5
74
100
AcDbEntity
  8
0
  6
ByLayer
 62
  256
370
   -1
100
AcDbLine
 10
35.819498
 20
-70.36131519307689
 11
21.807498
 21
-70.36131519307689
  0
LINE
  5
75
100
AcDbEntity
  8
0
  6
ByLayer
 62
  256
370
   -1
100
AcDbLine
 10
21.807498
 20
-70.36131519307689
 11
21.807498
 21
-56.34831519307689
  0
LINE
  5
76
100
AcDbEntity
  8
0
  6
ByLayer
 62
  256
370
   -1
100
AcDbLine
 10
21.807498
 20
-75.39831519307687
 11
35.819498
 21
-75.39831519307687
  0
LINE
  5
77
100
AcDbEntity
  8
0
  6
ByLayer
 62
  256
370
   -1
100
AcDbLine
 10
35.819498
 20
-75.39831519307687
 11
35.819498
 21
-89.41131519307685
  0
LINE
  5
78
100
AcDbEntity
  8
0
  6
ByLayer
 62
  256
370
   -1
100
AcDbLine
 10
35.819498
 20
-89.41131519307685
 11
21.807498
 21
-89.41131519307685
  0
LINE
  5
79
100
AcDbEntity
  8
0
  6
ByLayer
 62
  256
370
   -1
100
AcDbLine
 10
21.807498
 20
-89.41131519307685
 11
21.807498
 21
-75.39831519307687
  0
LINE
  5
7A
100
AcDbEntity
  8
0
  6
ByLayer
 62
  256
370
   -1
100
AcDbLine
 10
40.856098
 20
-13.48531519307688
 11
54.869498
 21
-13.48531519307688
  0
LINE
  5
7B
100
AcDbEntity
  8
0
  6
ByLayer
 62
  256
370
   -1
100
AcDbLine
 10
54.869498
 20
-13.48531519307688
 11
54.869498
 21
-27.49831519307686
  0
LINE
  5
7C
100
AcDbEntity
  8
0
  6
ByLayer
 62
  256
370
   -1
100
AcDbLine
 10
54.869498
 20
-27.49831519307686
 11
40.856098
 21
-27.49831519307686
  0
LINE
  5
7D
100
AcDbEntity
  8
0
  6
ByLayer
 62
  256
370
   -1
100
AcDbLine
 10
40.856098
 20
-27.49831519307686
 11
40.856098
 21
-13.48531519307688
  0
LINE
  5
7E
100
AcDbEntity
  8
0
  6
ByLayer
 62
  256
370
   -1
100
AcDbLine
 10
40.856098
 20
-32.53531519307687
 11
54.869498
 21
-32.53531519307687
  0
LINE
  5
7F
100
AcDbEntity
  8
0
  6
ByLayer
 62
  256
370
   -1
100
AcDbLine
 10
54.869498
 20
-32.53531519307687
 11
54.869498
 21
-46.54831519307687
  0
LINE
  5
80
100
AcDbEntity
  8
0
  6
ByLayer
 62
  256
370
   -1
100
AcDbLine
 10
54.869498
 20
-46.54831519307687
 11
40.856098
 21
-46.54831519307687
  0
LINE
  5
81
100
AcDbEntity
  8
0
  6
ByLayer
 62
  256
370
   -1
100
AcDbLine
 10
40.856098
 20
-46.54831519307687
 11
40.856098
 21
-32.53531519307687
  0
LINE
  5
82
100
AcDbEntity
  8
0
  6
ByLayer
 62
  256
370
   -1
100
AcDbLine
 10
59.907498
 20
-11.11531519307688
 11
73.919498
 21
-11.11531519307688
  0
LINE
  5
83
100
AcDbEntity
  8
0
  6
ByLayer
 62
  256
370
   -1
100
AcDbLine
 10
73.919498
 20
-11.11531519307688
 11
73.919498
 21
-25.10631519307687
  0
LINE
  5
84
100
AcDbEntity
  8
0
  6
ByLayer
 62
  256
370
   -1
100
AcDbLine
 10
73.919498
 20
-25.10631519307687
 11
59.907498
 21
-25.10631519307687
  0
LINE
  5
85
100
AcDbEntity
  8
0
  6
ByLayer
 62
  256
370
   -1
100
AcDbLine
 10
59.907498
 20
-25.10631519307687
 11
59.907498
 21
-11.11531519307688
  0
LINE
  5
86
100
AcDbEntity
  8
0
  6
ByLayer
 62
  256
370
   -1
100
AcDbLine
 10
59.907498
 20
-30.16531519307686
 11
73.919498
 21
-30.16531519307686
  0
LINE
  5
87
100
AcDbEntity
  8
0
  6
ByLayer
 62
  256
370
   -1
100
AcDbLine
 10
73.919498
 20
-30.16531519307686
 11
73.919498
 21
-44.15631519307688
  0
LINE
  5
88
100
AcDbEntity
  8
0
  6
ByLayer
 62
  256
370
   -1
100
AcDbLine
 10
73.919498
 20
-44.15631519307688
 11
59.907498
 21
-44.15631519307688
  0
LINE
  5
89
100
AcDbEntity
  8
0
  6
ByLayer
 62
  256
370
   -1
100
AcDbLine
 10
59.907498
 20
-44.15631519307688
 11
59.907498
 21
-30.16531519307686
  0
LINE
  5
8A
100
AcDbEntity
  8
0
  6
ByLayer
 62
  256
370
   -1
100
AcDbLine
 10
59.907498
 20
-49.21531519307688
 11
73.919498
 21
-49.21531519307688
  0
LINE
  5
8B
100
AcDbEntity
  8
0
  6
ByLayer
 62
  256
370
   -1
100
AcDbLine
 10
73.919498
 20
-49.21531519307688
 11
73.919498
 21
-63.20631519307686
  0
LINE
  5
8C
100
AcDbEntity
  8
0
  6
ByLayer
 62
  256
370
   -1
100
AcDbLine
 10
73.919498
 20
-63.20631519307686
 11
59.907498
 21
-63.20631519307686
  0
LINE
  5
8D
100
AcDbEntity
  8
0
  6
ByLayer
 62
  256
370
   -1
100
AcDbLine
 10
59.907498
 20
-63.20631519307686
 11
59.907498
 21
-49.21531519307688
  0
LINE
  5
8E
100
AcDbEntity
  8
0
  6
ByLayer
 62
  256
370
   -1
100
AcDbLine
 10
59.907498
 20
-68.26531519307689
 11
73.919498
 21
-68.26531519307689
  0
LINE
  5
8F
100
AcDbEntity
  8
0
  6
ByLayer
 62
  256
370
   -1
100
AcDbLine
 10
73.919498
 20
-68.26531519307689
 11
73.919498
 21
-82.25631519307687
  0
LINE
  5
90
100
AcDbEntity
  8
0
  6
ByLayer
 62
  256
370
   -1
100
AcDbLine
 10
73.919498
 20
-82.25631519307687
 11
59.907498
 21
-82.25631519307687
  0
LINE
  5
91
100
AcDbEntity
  8
0
  6
ByLayer
 62
  256
370
   -1
100
AcDbLine
 10
59.907498
 20
-82.25631519307687
 11
59.907498
 21
-68.26531519307689
  0
LINE
  5
92
100
AcDbEntity
  8
0
  6
ByLayer
 62
  256
370
   -1
100
AcDbLine
 10
78.957498
 20
-13.48531519307688
 11
92.969498
 21
-13.48531519307688
  0
LINE
  5
93
100
AcDbEntity
  8
0
  6
ByLayer
 62
  256
370
   -1
100
AcDbLine
 10
92.969498
 20
-13.48531519307688
 11
92.969498
 21
-27.49831519307686
  0
LINE
  5
94
100
AcDbEntity
  8
0
  6
ByLayer
 62
  256
370
   -1
100
AcDbLine
 10
92.969498
 20
-27.49831519307686
 11
78.957498
 21
-27.49831519307686
  0
LINE
  5
95
100
AcDbEntity
  8
0
  6
ByLayer
 62
  256
370
   -1
100
AcDbLine
 10
78.957498
 20
-27.49831519307686
 11
78.957498
 21
-13.48531519307688
  0
LINE
  5
96
100
AcDbEntity
  8
0
  6
ByLayer
 62
  256
370
   -1
100
AcDbLine
 10
78.957498
 20
-32.53531519307687
 11
92.969498
 21
-32.53531519307687
  0
LINE
  5
97
100
AcDbEntity
  8
0
  6
ByLayer
 62
  256
370
   -1
100
AcDbLine
 10
92.969498
 20
-32.53531519307687
 11
92.969498
 21
-46.54831519307687
  0
LINE
  5
98
100
AcDbEntity
  8
0
  6
ByLayer
 62
  256
370
   -1
100
AcDbLine
 10
92.969498
 20
-46.54831519307687
 11
78.957498
 21
-46.54831519307687
  0
LINE
  5
99
100
AcDbEntity
  8
0
  6
ByLayer
 62
  256
370
   -1
100
AcDbLine
 10
78.957498
 20
-46.54831519307687
 11
78.957498
 21
-32.53531519307687
  0
LINE
  5
9A
100
AcDbEntity
  8
0
  6
ByLayer
 62
  256
370
   -1
100
AcDbLine
 10
78.957498
 20
-51.58531519307688
 11
92.969498
 21
-51.58531519307688
  0
LINE
  5
9B
100
AcDbEntity
  8
0
  6
ByLayer
 62
  256
370
   -1
100
AcDbLine
 10
92.969498
 20
-51.58531519307688
 11
92.969498
 21
-65.59831519307689
  0
LINE
  5
9C
100
AcDbEntity
  8
0
  6
ByLayer
 62
  256
370
   -1
100
AcDbLine
 10
92.969498
 20
-65.59831519307689
 11
78.957498
 21
-65.59831519307689
  0
LINE
  5
9D
100
AcDbEntity
  8
0
  6
ByLayer
 62
  256
370
   -1
100
AcDbLine
 10
78.957498
 20
-65.59831519307689
 11
78.957498
 21
-51.58531519307688
  0
LINE
  5
9E
100
AcDbEntity
  8
0
  6
ByLayer
 62
  256
370
   -1
100
AcDbLine
 10
78.957498
 20
-70.63531519307689
 11
92.969498
 21
-70.63531519307689
  0
LINE
  5
9F
100
AcDbEntity
  8
0
  6
ByLayer
 62
  256
370
   -1
100
AcDbLine
 10
92.969498
 20
-70.63531519307689
 11
92.969498
 21
-84.64831519307687
  0
LINE
  5
A0
100
AcDbEntity
  8
0
  6
ByLayer
 62
  256
370
   -1
100
AcDbLine
 10
92.969498
 20
-84.64831519307687
 11
78.957498
 21
-84.64831519307687
  0
LINE
  5
A1
100
AcDbEntity
  8
0
  6
ByLayer
 62
  256
370
   -1
100
AcDbLine
 10
78.957498
 20
-84.64831519307687
 11
78.957498
 21
-70.63531519307689
  0
LINE
  5
A2
100
AcDbEntity
  8
0
  6
ByLayer
 62
  256
370
   -1
100
AcDbLine
 10
98.00749800000001
 20
-34.92731519307686
 11
112.019598
 21
-34.92731519307686
  0
LINE
  5
A3
100
AcDbEntity
  8
0
  6
ByLayer
 62
  256
370
   -1
100
AcDbLine
 10
112.019598
 20
-34.92731519307686
 11
112.019598
 21
-48.91831519307688
  0
LINE
  5
A4
100
AcDbEntity
  8
0
  6
ByLayer
 62
  256
370
   -1
100
AcDbLine
 10
112.019598
 20
-48.91831519307688
 11
98.00749800000001
 21
-48.91831519307688
  0
LINE
  5
A5
100
AcDbEntity
  8
0
  6
ByLayer
 62
  256
370
   -1
100
AcDbLine
 10
98.00749800000001
 20
-48.91831519307688
 11
98.00749800000001
 21
-34.92731519307686
  0
LINE
  5
A6
100
AcDbEntity
  8
0
  6
ByLayer
 62
  256
370
   -1
100
AcDbLine
 10
98.00749800000001
 20
-53.97731519307688
 11
112.019598
 21
-53.97731519307688
  0
LINE
  5
A7
100
AcDbEntity
  8
0
  6
ByLayer
 62
  256
370
   -1
100
AcDbLine
 10
112.019598
 20
-53.97731519307688
 11
112.019598
 21
-67.96831519307686
  0
LINE
  5
A8
100
AcDbEntity
  8
0
  6
ByLayer
 62
  256
370
   -1
100
AcDbLine
 10
112.019598
 20
-67.96831519307686
 11
98.00749800000001
 21
-67.96831519307686
  0
LINE
  5
A9
100
AcDbEntity
  8
0
  6
ByLayer
 62
  256
370
   -1
100
AcDbLine
 10
98.00749800000001
 20
-67.96831519307686
 11
98.00749800000001
 21
-53.97731519307688
  0
LINE
  5
AA
100
AcDbEntity
  8
0
  6
ByLayer
 62
  256
370
   -1
100
AcDbLine
 10
98.00749800000001
 20
-73.02731519307689
 11
112.019598
 21
-73.02731519307689
  0
LINE
  5
AB
100
AcDbEntity
  8
0
  6
ByLayer
 62
  256
370
   -1
100
AcDbLine
 10
112.019598
 20
-73.02731519307689
 11
112.019598
 21
-87.01831519307687
  0
LINE
  5
AC
100
AcDbEntity
  8
0
  6
ByLayer
 62
  256
370
   -1
100
AcDbLine
 10
112.019598
 20
-87.01831519307687
 11
98.00749800000001
 21
-87.01831519307687
  0
LINE
  5
AD
100
AcDbEntity
  8
0
  6
ByLayer
 62
  256
370
   -1
100
AcDbLine
 10
98.00749800000001
 20
-87.01831519307687
 11
98.00749800000001
 21
-73.02731519307689
  0
LINE
  5
AE
100
AcDbEntity
  8
0
  6
ByLayer
 62
  256
370
   -1
100
AcDbLine
 10
117.057598
 20
-25.40231519307689
 11
131.069598
 21
-25.40231519307689
  0
LINE
  5
AF
100
AcDbEntity
  8
0
  6
ByLayer
 62
  256
370
   -1
100
AcDbLine
 10
131.069598
 20
-39.39331519307687
 11
117.057598
 21
-39.39331519307687
  0
LINE
  5
B0
100
AcDbEntity
  8
0
  6
ByLayer
 62
  256
370
   -1
100
AcDbLine
 10
117.057598
 20
-39.39331519307687
 11
117.057598
 21
-25.40231519307689
  0
LINE
  5
B1
100
AcDbEntity
  8
0
  6
ByLayer
 62
  256
370
   -1
100
AcDbLine
 10
117.057598
 20
-44.45231519307687
 11
131.069598
 21
-44.45231519307687
  0
LINE
  5
B2
100
AcDbEntity
  8
0
  6
ByLayer
 62
  256
370
   -1
100
AcDbLine
 10
131.069598
 20
-44.45231519307687
 11
131.069598
 21
-58.44331519307688
  0
LINE
  5
B3
100
AcDbEntity
  8
0
  6
ByLayer
 62
  256
370
   -1
100
AcDbLine
 10
131.069598
 20
-58.44331519307688
 11
117.057598
 21
-58.44331519307688
  0
LINE
  5
B4
100
AcDbEntity
  8
0
  6
ByLayer
 62
  256
370
   -1
100
AcDbLine
 10
117.057598
 20
-58.44331519307688
 11
117.057598
 21
-44.45231519307687
  0
LINE
  5
B5
100
AcDbEntity
  8
0
  6
ByLayer
 62
  256
370
   -1
100
AcDbLine
 10
117.057598
 20
-63.50231519307688
 11
131.069598
 21
-63.50231519307688
  0
LINE
  5
B6
100
AcDbEntity
  8
0
  6
ByLayer
 62
  256
370
   -1
100
AcDbLine
 10
131.069598
 20
-63.50231519307688
 11
131.069598
 21
-77.4933151930769
  0
LINE
  5
B7
100
AcDbEntity
  8
0
  6
ByLayer
 62
  256
370
   -1
100
AcDbLine
 10
131.069598
 20
-77.4933151930769
 11
117.057598
 21
-77.4933151930769
  0
LINE
  5
B8
100
AcDbEntity
  8
0
  6
ByLayer
 62
  256
370
   -1
100
AcDbLine
 10
117.057598
 20
-77.4933151930769
 11
117.057598
 21
-63.50231519307688
  0
LINE
  5
B9
100
AcDbEntity
  8
0
  6
ByLayer
 62
  256
370
   -1
100
AcDbLine
 10
2.756078
 20
-94.44931519307686
 11
16.769298
 21
-94.44931519307686
  0
LINE
  5
BA
100
AcDbEntity
  8
0
  6
ByLayer
 62
  256
370
   -1
100
AcDbLine
 10
16.769298
 20
-94.44931519307686
 11
16.769298
 21
-108.4613151930769
  0
LINE
  5
BB
100
AcDbEntity
  8
0
  6
ByLayer
 62
  256
370
   -1
100
AcDbLine
 10
16.769298
 20
-108.4613151930769
 11
2.756078
 21
-108.4613151930769
  0
LINE
  5
BC
100
AcDbEntity
  8
0
  6
ByLayer
 62
  256
370
   -1
100
AcDbLine
 10
2.756078
 20
-108.4613151930769
 11
2.756078
 21
-94.44931519307686
  0
LINE
  5
BD
100
AcDbEntity
  8
0
  6
ByLayer
 62
  256
370
   -1
100
AcDbLine
 10
21.807498
 20
-94.44931519307686
 11
35.819498
 21
-94.44931519307686
  0
LINE
  5
BE
100
AcDbEntity
  8
0
  6
ByLayer
 62
  256
370
   -1
100
AcDbLine
 10
35.819498
 20
-94.44931519307686
 11
35.819498
 21
-108.4613151930769
  0
LINE
  5
BF
100
AcDbEntity
  8
0
  6
ByLayer
 62
  256
370
   -1
100
AcDbLine
 10
35.819498
 20
-108.4613151930769
 11
21.807498
 21
-108.4613151930769
  0
LINE
  5
C0
100
AcDbEntity
  8
0
  6
ByLayer
 62
  256
370
   -1
100
AcDbLine
 10
21.807498
 20
-108.4613151930769
 11
21.807498
 21
-94.44931519307686
  0
LINE
  5
C1
100
AcDbEntity
  8
0
  6
ByLayer
 62
  256
370
   -1
100
AcDbLine
 10
40.856098
 20
-89.68631519307677
 11
54.869498
 21
-89.68631519307677
  0
LINE
  5
C2
100
AcDbEntity
  8
0
  6
ByLayer
 62
  256
370
   -1
100
AcDbLine
 10
54.869498
 20
-89.68631519307677
 11
54.869498
 21
-103.6983151930769
  0
LINE
  5
C3
100
AcDbEntity
  8
0
  6
ByLayer
 62
  256
370
   -1
100
AcDbLine
 10
54.869498
 20
-103.6983151930769
 11
40.856098
 21
-103.6983151930769
  0
LINE
  5
C4
100
AcDbEntity
  8
0
  6
ByLayer
 62
  256
370
   -1
100
AcDbLine
 10
40.856098
 20
-103.6983151930769
 11
40.856098
 21
-89.68631519307677
  0
LINE
  5
C5
100
AcDbEntity
  8
0
  6
ByLayer
 62
  256
370
   -1
100
AcDbLine
 10
87.508098
 20
-104.0153151930769
 11
94.493498
 21
-91.8873151930769
  0
LINE
  5
C6
100
AcDbEntity
  8
0
  6
ByLayer
 62
  256
370
   -1
100
AcDbLine
 10
94.493498
 20
-91.8873151930769
 11
106.621598
 21
-98.89331519307687
  0
LINE
  5
C7
100
AcDbEntity
  8
0
  6
ByLayer
 62
  256
370
   -1
100
AcDbLine
 10
106.621598
 20
-98.89331519307687
 11
99.615498
 21
-111.0213151930769
  0
LINE
  5
C8
100
AcDbEntity
  8
0
  6
ByLayer
 62
  256
370
   -1
100
AcDbLine
 10
99.615498
 20
-111.0213151930769
 11
87.508098
 21
-104.0153151930769
  0
LINE
  5
C9
100
AcDbEntity
  8
0
  6
ByLayer
 62
  256
370
   -1
100
AcDbLine
 10
115.249598
 20
-123.1293151930769
 11
115.416598
 21
-123.2253151930769
  0
LINE
  5
CA
100
AcDbEntity
  8
0
  6
ByLayer
 62
  256
370
   -1
100
AcDbLine
 10
124.251598
 20
-10.98231519307687
 11
124.037598
 21
-10.98231519307687
  0
LINE
  5
CB
100
AcDbEntity
  8
0
  6
ByLayer
 62
  256
370
   -1
100
AcDbLine
 10
124.037598
 20
-10.98231519307687
 11
110.037598
 21
-10.98231519307687
  0
LINE
  5
CC
100
AcDbEntity
  8
0
  6
ByLayer
 62
  256
370
   -1
100
AcDbLine
 10
110.037598
 20
-10.98231519307687
 11
109.810598
 21
-10.98231519307687
  0
LINE
  5
CD
100
AcDbEntity
  8
0
  6
ByLayer
 62
  256
370
   -1
100
AcDbLine
 10
109.810598
 20
-10.98231519307687
 11
109.130598
 21
-10.89031519307689
  0
LINE
  5
CE
100
AcDbEntity
  8
0
  6
ByLayer
 62
  256
370
   -1
100
AcDbLine
 10
109.130598
 20
-10.89031519307689
 11
108.144598
 21
-10.64231519307687
  0
LINE
  5
CF
100
AcDbEntity
  8
0
  6
ByLayer
 62
  256
370
   -1
100
AcDbLine
 10
108.144598
 20
-10.64231519307687
 11
107.196598
 21
-10.27531519307688
  0
LINE
  5
D0
100
AcDbEntity
  8
0
  6
ByLayer
 62
  256
370
   -1
100
AcDbLine
 10
107.196598
 20
-10.27531519307688
 11
106.588598
 21
-9.957315193076864
  0
LINE
  5
D1
100
AcDbEntity
  8
0
  6
ByLayer
 62
  256
370
   -1
100
AcDbLine
 10
106.588598
 20
-9.957315193076864
 11
106.405598
 21
-9.828315193076874
  0
LINE
  5
D2
100
AcDbEntity
  8
0
  6
ByLayer
 62
  256
370
   -1
100
AcDbLine
 10
106.405598
 20
-9.828315193076874
 11
97.484998
 21
-3.518315193076871
  0
LINE
  5
D3
100
AcDbEntity
  8
0
  6
ByLayer
 62
  256
370
   -1
100
AcDbLine
 10
97.484998
 20
-3.518315193076871
 11
97.300498
 21
-3.387315193076871
  0
LINE
  5
D4
100
AcDbEntity
  8
0
  6
ByLayer
 62
  256
370
   -1
100
AcDbLine
 10
97.300498
 20
-3.387315193076871
 11
96.69269800000001
 21
-3.068315193076883
  0
LINE
  5
D5
100
AcDbEntity
  8
0
  6
ByLayer
 62
  256
370
   -1
100
AcDbLine
 10
96.69269800000001
 20
-3.068315193076883
 11
95.744798
 21
-2.702315193076869
  0
LINE
  5
D6
100
AcDbEntity
  8
0
  6
ByLayer
 62
  256
370
   -1
100
AcDbLine
 10
95.744798
 20
-2.702315193076869
 11
94.758098
 21
-2.454315193076878
  0
LINE
  5
D7
100
AcDbEntity
  8
0
  6
ByLayer
 62
  256
370
   -1
100
AcDbLine
 10
94.758098
 20
-2.454315193076878
 11
94.078598
 21
-2.36331519307687
  0
LINE
  5
D8
100
AcDbEntity
  8
0
  6
ByLayer
 62
  256
370
   -1
100
AcDbLine
 10
94.078598
 20
-2.36331519307687
 11
93.85279800000001
 21
-2.36331519307687
  0
LINE
  5
D9
100
AcDbEntity
  8
0
  6
ByLayer
 62
  256
370
   -1
100
AcDbLine
 10
93.85279800000001
 20
-2.36331519307687
 11
59.022698
 21
-2.36331519307687
  0
LINE
  5
DA
100
AcDbEntity
  8
0
  6
ByLayer
 62
  256
370
   -1
100
AcDbLine
 10
59.022698
 20
-2.36331519307687
 11
58.525298
 21
-2.36331519307687
  0
LINE
  5
DB
100
AcDbEntity
  8
0
  6
ByLayer
 62
  256
370
   -1
100
AcDbLine
 10
58.525298
 20
-2.36331519307687
 11
57.036898
 21
-2.491315193076884
  0
LINE
  5
DC
100
AcDbEntity
  8
0
  6
ByLayer
 62
  256
370
   -1
100
AcDbLine
 10
57.036898
 20
-2.491315193076884
 11
55.339398
 21
-2.74031519307688
  0
LINE
  5
DD
100
AcDbEntity
  8
0
  6
ByLayer
 62
  256
370
   -1
100
AcDbLine
 10
55.339398
 20
-2.74031519307688
 11
55.071998
 21
-2.801315193076858
  0
LINE
  5
DE
100
AcDbEntity
  8
0
  6
ByLayer
 62
  256
370
   -1
100
AcDbLine
 10
55.071998
 20
-2.801315193076858
 11
1.951298
 21
-14.74331519307687
  0
LINE
  5
DF
100
AcDbEntity
  8
0
  6
ByLayer
 62
  256
370
   -1
100
AcDbLine
 10
1.951298
 20
-14.74331519307687
 11
1.752868
 21
-14.78731519307688
  0
LINE
  5
E0
100
AcDbEntity
  8
0
  6
ByLayer
 62
  256
370
   -1
100
AcDbLine
 10
1.752868
 20
-14.78731519307688
 11
1.193378
 21
-15.07131519307687
  0
LINE
  5
E1
100
AcDbEntity
  8
0
  6
ByLayer
 62
  256
370
   -1
100
AcDbLine
 10
1.193378
 20
-15.07131519307687
 11
0.5718839999999999
 21
-15.64031519307689
  0
LINE
  5
E2
100
AcDbEntity
  8
0
  6
ByLayer
 62
  256
370
   -1
100
AcDbLine
 10
0.5718839999999999
 20
-15.64031519307689
 11
0.152962
 21
-16.36931519307687
  0
LINE
  5
E3
100
AcDbEntity
  8
0
  6
ByLayer
 62
  256
370
   -1
100
AcDbLine
 10
0.152962
 20
-16.36931519307687
 11
0
 21
-16.97831519307688
  0
LINE
  5
E4
100
AcDbEntity
  8
0
  6
ByLayer
 62
  256
370
   -1
100
AcDbLine
 10
0
 20
-16.97831519307688
 11
0
 21
-17.18231519307686
  0
LINE
  5
E5
100
AcDbEntity
  8
0
  6
ByLayer
 62
  256
370
   -1
100
AcDbLine
 10
0
 20
-17.18231519307686
 11
0
 21
-109.2813151930768
  0
LINE
  5
E6
100
AcDbEntity
  8
0
  6
ByLayer
 62
  256
370
   -1
100
AcDbLine
 10
0
 20
-109.2813151930768
 11
0
 21
-109.4743151930769
  0
LINE
  5
E7
100
AcDbEntity
  8
0
  6
ByLayer
 62
  256
370
   -1
100
AcDbLine
 10
0
 20
-109.4743151930769
 11
0.157096
 21
-110.0573151930769
  0
LINE
  5
E8
100
AcDbEntity
  8
0
  6
ByLayer
 62
  256
370
   -1
100
AcDbLine
 10
0.157096
 20
-110.0573151930769
 11
0.587043
 21
-110.6923151930769
  0
LINE
  5
E9
100
AcDbEntity
  8
0
  6
ByLayer
 62
  256
370
   -1
100
AcDbLine
 10
0.587043
 20
-110.6923151930769
 11
1.222318
 21
-111.1223151930769
  0
LINE
  5
EA
100
AcDbEntity
  8
0
  6
ByLayer
 62
  256
370
   -1
100
AcDbLine
 10
1.222318
 20
-111.1223151930769
 11
1.805228
 21
-111.2803151930769
  0
LINE
  5
EB
100
AcDbEntity
  8
0
  6
ByLayer
 62
  256
370
   -1
100
AcDbLine
 10
1.805228
 20
-111.2803151930769
 11
1.999538
 21
-111.2803151930769
  0
LINE
  5
EC
100
AcDbEntity
  8
0
  6
ByLayer
 62
  256
370
   -1
100
AcDbLine
 10
1.999538
 20
-111.2803151930769
 11
92.71159800000001
 21
-111.2803151930769
  0
LINE
  5
ED
100
AcDbEntity
  8
0
  6
ByLayer
 62
  256
370
   -1
100
AcDbLine
 10
92.71159800000001
 20
-111.2803151930769
 11
92.939098
 21
-111.2803151930769
  0
LINE
  5
EE
100
AcDbEntity
  8
0
  6
ByLayer
 62
  256
370
   -1
100
AcDbLine
 10
92.939098
 20
-111.2803151930769
 11
93.62389800000001
 21
-111.3593151930769
  0
LINE
  5
EF
100
AcDbEntity
  8
0
  6
ByLayer
 62
  256
370
   -1
100
AcDbLine
 10
93.62389800000001
 20
-111.3593151930769
 11
94.63249800000001
 21
-111.5743151930769
  0
LINE
  5
F0
100
AcDbEntity
  8
0
  6
ByLayer
 62
  256
370
   -1
100
AcDbLine
 10
94.63249800000001
 20
-111.5743151930769
 11
95.612498
 21
-111.8913151930769
  0
LINE
  5
F1
100
AcDbEntity
  8
0
  6
ByLayer
 62
  256
370
   -1
100
AcDbLine
 10
95.612498
 20
-111.8913151930769
 11
96.24499800000001
 21
-112.1653151930769
  0
LINE
  5
F2
100
AcDbEntity
  8
0
  6
ByLayer
 62
  256
370
   -1
100
AcDbLine
 10
96.24499800000001
 20
-112.1653151930769
 11
96.44329800000001
 21
-112.2793151930769
  0
LINE
  5
F3
100
AcDbEntity
  8
0
  6
ByLayer
 62
  256
370
   -1
100
AcDbLine
 10
96.44329800000001
 20
-112.2793151930769
 11
132.6851646881829
 21
-133.1884920947944
  0
ARC
  5
F4
100
AcDbEntity
  8
0
  6
ByLayer
 62
  256
370
   -1
100
AcDbCircle
 10
133.1848944516437
 20
-132.3223107260781
 40
1
100
AcDbArc
 50
240.0178770956076
 51
329.9314171781378
  0
LINE
  5
F5
100
AcDbEntity
  8
0
  6
ByLayer
 62
  256
370
   -1
100
AcDbLine
 10
132.554406
 20
-130.1125691930768
 11
120.437406
 21
-123.1015691930768
  0
LINE
  5
F6
100
AcDbEntity
  8
0
  6
ByLayer
 62
  256
370
   -1
100
AcDbLine
 10
120.437406
 20
-123.1015691930768
 11
120.677406
 21
-122.6865691930768
  0
LINE
  5
F7
100
AcDbEntity
  8
0
  6
ByLayer
 62
  256
370
   -1
100
AcDbLine
 10
136.803406
 20
-94.81856919307681
 11
137.012406
 21
-94.45656919307685
  0
LINE
  5
F8
100
AcDbEntity
  8
0
  6
ByLayer
 62
  256
370
   -1
100
AcDbLine
 10
137.012406
 20
-94.45656919307685
 11
149.129406
 21
-101.4675691930768
  0
LINE
  5
F9
100
AcDbEntity
  8
0
  6
ByLayer
 62
  256
370
   -1
100
AcDbLine
 10
0
 20
-178.3949995693877
 11
0
 21
-157.3549995693877
  0
LINE
  5
FA
100
AcDbEntity
  8
0
  6
ByLayer
 62
  256
370
   -1
100
AcDbLine
 10
0
 20
-157.3549995693877
 11
0
 21
-157.1519995693877
  0
LINE
  5
FB
100
AcDbEntity
  8
0
  6
ByLayer
 62
  256
370
   -1
100
AcDbLine
 10
0
 20
-157.1519995693877
 11
0.152962
 21
-156.5439995693877
  0
LINE
  5
FC
100
AcDbEntity
  8
0
  6
ByLayer
 62
  256
370
   -1
100
AcDbLine
 10
0.152962
 20
-156.5439995693877
 11
0.5718839999999999
 21
-155.8129995693876
  0
LINE
  5
FD
100
AcDbEntity
  8
0
  6
ByLayer
 62
  256
370
   -1
100
AcDbLine
 10
0.5718839999999999
 20
-155.8129995693876
 11
1.193378
 21
-155.2439995693877
  0
LINE
  5
FE
100
AcDbEntity
  8
0
  6
ByLayer
 62
  256
370
   -1
100
AcDbLine
 10
1.193378
 20
-155.2439995693877
 11
1.752868
 21
-154.9599995693877
  0
LINE
  5
FF
100
AcDbEntity
  8
0
  6
ByLayer
 62
  256
370
   -1
100
AcDbLine
 10
1.752868
 20
-154.9599995693877
 11
1.951298
 21
-154.9159995693877
  0
LINE
  5
100
100
AcDbEntity
  8
0
  6
ByLayer
 62
  256
370
   -1
100
AcDbLine
 10
1.951298
 20
-154.9159995693877
 11
55.071998
 21
-142.9759995693877
  0
LINE
  5
101
100
AcDbEntity
  8
0
  6
ByLayer
 62
  256
370
   -1
100
AcDbLine
 10
55.071998
 20
-142.9759995693877
 11
55.339398
 21
-142.9149995693876
  0
LINE
  5
102
100
AcDbEntity
  8
0
  6
ByLayer
 62
  256
370
   -1
100
AcDbLine
 10
55.339398
 20
-142.9149995693876
 11
57.036898
 21
-142.6659995693877
  0
LINE
  5
103
100
AcDbEntity
  8
0
  6
ByLayer
 62
  256
370
   -1
100
AcDbLine
 10
57.036898
 20
-142.6659995693877
 11
58.525298
 21
-142.5369995693877
  0
LINE
  5
104
100
AcDbEntity
  8
0
  6
ByLayer
 62
  256
370
   -1
100
AcDbLine
 10
58.525298
 20
-142.5369995693877
 11
59.022698
 21
-142.5369995693877
  0
LINE
  5
105
100
AcDbEntity
  8
0
  6
ByLayer
 62
  256
370
   -1
100
AcDbLine
 10
59.022698
 20
-142.5369995693877
 11
93.85279800000001
 21
-142.5369995693877
  0
LINE
  5
106
100
AcDbEntity
  8
0
  6
ByLayer
 62
  256
370
   -1
100
AcDbLine
 10
93.85279800000001
 20
-142.5369995693877
 11
94.078598
 21
-142.5369995693877
  0
LINE
  5
107
100
AcDbEntity
  8
0
  6
ByLayer
 62
  256
370
   -1
100
AcDbLine
 10
94.078598
 20
-142.5369995693877
 11
94.756698
 21
-142.6279995693877
  0
LINE
  5
108
100
AcDbEntity
  8
0
  6
ByLayer
 62
  256
370
   -1
100
AcDbLine
 10
94.756698
 20
-142.6279995693877
 11
95.744798
 21
-142.8759995693877
  0
LINE
  5
109
100
AcDbEntity
  8
0
  6
ByLayer
 62
  256
370
   -1
100
AcDbLine
 10
95.744798
 20
-142.8759995693877
 11
96.69269800000001
 21
-143.2429995693876
  0
LINE
  5
10A
100
AcDbEntity
  8
0
  6
ByLayer
 62
  256
370
   -1
100
AcDbLine
 10
96.69269800000001
 20
-143.2429995693876
 11
97.300498
 21
-143.5619995693877
  0
LINE
  5
10B
100
AcDbEntity
  8
0
  6
ByLayer
 62
  256
370
   -1
100
AcDbLine
 10
97.300498
 20
-143.5619995693877
 11
97.484998
 21
-143.6919995693877
  0
LINE
  5
10C
100
AcDbEntity
  8
0
  6
ByLayer
 62
  256
370
   -1
100
AcDbLine
 10
97.484998
 20
-143.6919995693877
 11
106.403598
 21
-150.0029995693877
  0
LINE
  5
10D
100
AcDbEntity
  8
0
  6
ByLayer
 62
  256
370
   -1
100
AcDbLine
 10
106.403598
 20
-150.0029995693877
 11
106.586598
 21
-150.1319995693877
  0
LINE
  5
10E
100
AcDbEntity
  8
0
  6
ByLayer
 62
  256
370
   -1
100
AcDbLine
 10
106.586598
 20
-150.1319995693877
 11
107.194598
 21
-150.4499995693876
  0
LINE
  5
10F
100
AcDbEntity
  8
0
  6
ByLayer
 62
  256
370
   -1
100
AcDbLine
 10
107.194598
 20
-150.4499995693876
 11
108.144598
 21
-150.8169995693877
  0
LINE
  5
110
100
AcDbEntity
  8
0
  6
ByLayer
 62
  256
370
   -1
100
AcDbLine
 10
108.144598
 20
-150.8169995693877
 11
109.132598
 21
-151.0649995693877
  0
LINE
  5
111
100
AcDbEntity
  8
0
  6
ByLayer
 62
  256
370
   -1
100
AcDbLine
 10
109.132598
 20
-151.0649995693877
 11
109.810598
 21
-151.1569995693877
  0
LINE
  5
112
100
AcDbEntity
  8
0
  6
ByLayer
 62
  256
370
   -1
100
AcDbLine
 10
109.810598
 20
-151.1569995693877
 11
110.037598
 21
-151.1569995693877
  0
LINE
  5
113
100
AcDbEntity
  8
0
  6
ByLayer
 62
  256
370
   -1
100
AcDbLine
 10
110.037598
 20
-151.1569995693877
 11
124.037598
 21
-151.1569995693877
  0
LINE
  5
114
100
AcDbEntity
  8
0
  6
ByLayer
 62
  256
370
   -1
100
AcDbLine
 10
124.037598
 20
-151.1569995693877
 11
124.251598
 21
-151.1569995693877
  0
LINE
  5
115
100
AcDbEntity
  8
0
  6
ByLayer
 62
  256
370
   -1
100
AcDbLine
 10
179.4613135889355
 20
-178.3949995693877
 11
179.4613135889355
 21
-157.3549995693877
  0
LINE
  5
116
100
AcDbEntity
  8
0
  6
ByLayer
 62
  256
370
   -1
100
AcDbLine
 10
179.4613135889355
 20
-157.3549995693877
 11
179.4613135889355
 21
-157.1519995693877
  0
LINE
  5
117
100
AcDbEntity
  8
0
  6
ByLayer
 62
  256
370
   -1
100
AcDbLine
 10
179.4613135889355
 20
-157.1519995693877
 11
179.6142755889355
 21
-156.5439995693877
  0
LINE
  5
118
100
AcDbEntity
  8
0
  6
ByLayer
 62
  256
370
   -1
100
AcDbLine
 10
179.6142755889355
 20
-156.5439995693877
 11
180.0331975889355
 21
-155.8129995693876
  0
LINE
  5
119
100
AcDbEntity
  8
0
  6
ByLayer
 62
  256
370
   -1
100
AcDbLine
 10
180.0331975889355
 20
-155.8129995693876
 11
180.6546915889355
 21
-155.2439995693877
  0
LINE
  5
11A
100
AcDbEntity
  8
0
  6
ByLayer
 62
  256
370
   -1
100
AcDbLine
 10
180.6546915889355
 20
-155.2439995693877
 11
181.2141815889355
 21
-154.9599995693877
  0
LINE
  5
11B
100
AcDbEntity
  8
0
  6
ByLayer
 62
  256
370
   -1
100
AcDbLine
 10
181.2141815889355
 20
-154.9599995693877
 11
181.4126115889355
 21
-154.9159995693877
  0
LINE
  5
11C
100
AcDbEntity
  8
0
  6
ByLayer
 62
  256
370
   -1
100
AcDbLine
 10
181.4126115889355
 20
-154.9159995693877
 11
234.5333115889355
 21
-142.9759995693877
  0
LINE
  5
11D
100
AcDbEntity
  8
0
  6
ByLayer
 62
  256
370
   -1
100
AcDbLine
 10
234.5333115889355
 20
-142.9759995693877
 11
234.8007115889355
 21
-142.9149995693876
  0
LINE
  5
11E
100
AcDbEntity
  8
0
  6
ByLayer
 62
  256
370
   -1
100
AcDbLine
 10
234.8007115889355
 20
-142.9149995693876
 11
236.4982115889355
 21
-142.6659995693877
  0
LINE
  5
11F
100
AcDbEntity
  8
0
  6
ByLayer
 62
  256
370
   -1
100
AcDbLine
 10
236.4982115889355
 20
-142.6659995693877
 11
237.9866115889355
 21
-142.5369995693877
  0
LINE
  5
120
100
AcDbEntity
  8
0
  6
ByLayer
 62
  256
370
   -1
100
AcDbLine
 10
237.9866115889355
 20
-142.5369995693877
 11
238.4840115889355
 21
-142.5369995693877
  0
LINE
  5
121
100
AcDbEntity
  8
0
  6
ByLayer
 62
  256
370
   -1
100
AcDbLine
 10
238.4840115889355
 20
-142.5369995693877
 11
273.3141115889355
 21
-142.5369995693877
  0
LINE
  5
122
100
AcDbEntity
  8
0
  6
ByLayer
 62
  256
370
   -1
100
AcDbLine
 10
273.3141115889355
 20
-142.5369995693877
 11
273.5399115889355
 21
-142.5369995693877
  0
LINE
  5
123
100
AcDbEntity
  8
0
  6
ByLayer
 62
  256
370
   -1
100
AcDbLine
 10
273.5399115889355
 20
-142.5369995693877
 11
274.2180115889355
 21
-142.6279995693877
  0
LINE
  5
124
100
AcDbEntity
  8
0
  6
ByLayer
 62
  256
370
   -1
100
AcDbLine
 10
274.2180115889355
 20
-142.6279995693877
 11
275.2061115889355
 21
-142.8759995693877
  0
LINE
  5
125
100
AcDbEntity
  8
0
  6
ByLayer
 62
  256
370
   -1
100
AcDbLine
 10
275.2061115889355
 20
-142.8759995693877
 11
276.1540115889355
 21
-143.2429995693876
  0
LINE
  5
126
100
AcDbEntity
  8
0
  6
ByLayer
 62
  256
370
   -1
100
AcDbLine
 10
276.1540115889355
 20
-143.2429995693876
 11
276.7618115889355
 21
-143.5619995693877
  0
LINE
  5
127
100
AcDbEntity
  8
0
  6
ByLayer
 62
  256
370
   -1
100
AcDbLine
 10
276.7618115889355
 20
-143.5619995693877
 11
276.9463115889355
 21
-143.6919995693877
  0
LINE
  5
128
100
AcDbEntity
  8
0
  6
ByLayer
 62
  256
370
   -1
100
AcDbLine
 10
276.9463115889355
 20
-143.6919995693877
 11
285.8649115889355
 21
-150.0029995693877
  0
LINE
  5
129
100
AcDbEntity
  8
0
  6
ByLayer
 62
  256
370
   -1
100
AcDbLine
 10
285.8649115889355
 20
-150.0029995693877
 11
286.0479115889355
 21
-150.1319995693877
  0
LINE
  5
12A
100
AcDbEntity
  8
0
  6
ByLayer
 62
  256
370
   -1
100
AcDbLine
 10
286.0479115889355
 20
-150.1319995693877
 11
286.6559115889355
 21
-150.4499995693876
  0
LINE
  5
12B
100
AcDbEntity
  8
0
  6
ByLayer
 62
  256
370
   -1
100
AcDbLine
 10
286.6559115889355
 20
-150.4499995693876
 11
287.6059115889355
 21
-150.8169995693877
  0
LINE
  5
12C
100
AcDbEntity
  8
0
  6
ByLayer
 62
  256
370
   -1
100
AcDbLine
 10
287.6059115889355
 20
-150.8169995693877
 11
288.5939115889355
 21
-151.0649995693877
  0
LINE
  5
12D
100
AcDbEntity
  8
0
  6
ByLayer
 62
  256
370
   -1
100
AcDbLine
 10
288.5939115889355
 20
-151.0649995693877
 11
289.2719115889355
 21
-151.1569995693877
  0
LINE
  5
12E
100
AcDbEntity
  8
0
  6
ByLayer
 62
  256
370
   -1
100
AcDbLine
 10
289.2719115889355
 20
-151.1569995693877
 11
289.4989115889355
 21
-151.1569995693877
  0
LINE
  5
12F
100
AcDbEntity
  8
0
  6
ByLayer
 62
  256
370
   -1
100
AcDbLine
 10
289.4989115889355
 20
-151.1569995693877
 11
303.4989115889355
 21
-151.1569995693877
  0
LINE
  5
130
100
AcDbEntity
  8
0
  6
ByLayer
 62
  256
370
   -1
100
AcDbLine
 10
303.4989115889355
 20
-151.1569995693877
 11
303.7129115889355
 21
-151.1569995693877
  0
LINE
  5
131
100
AcDbEntity
  8
0
  6
ByLayer
 62
  256
370
   -1
100
AcDbLine
 10
131.069598
 20
-25.40231519307689
 11
131.069598
 21
-39.39331519307687
  0
LINE
  5
132
100
AcDbEntity
  8
0
  6
ByLayer
 62
  256
370
   -1
100
AcDbLine
 10
135.692837780419
 20
-90.73352645962846
 11
135.692837780419
 21
-90.23352645962846
  0
LINE
  5
133
100
AcDbEntity
  8
0
  6
ByLayer
 62
  256
370
   -1
100
AcDbLine
 10
152.456837780419
 20
-90.73352645962846
 11
152.456837780419
 21
-90.23352645962846
  0
LINE
  5
134
100
AcDbEntity
  8
0
  6
ByLayer
 62
  256
370
   -1
100
AcDbLine
 10
152.456837780419
 20
-72.96152645962847
 11
152.456837780419
 21
-72.46152645962847
  0
LINE
  5
135
100
AcDbEntity
  8
0
  6
ByLayer
 62
  256
370
   -1
100
AcDbLine
 10
135.692837780419
 20
-72.96152645962847
 11
135.692837780419
 21
-72.46152645962847
  0
LINE
  5
136
100
AcDbEntity
  8
0
  6
ByLayer
 62
  256
370
   -1
100
AcDbLine
 10
135.692837780419
 20
-90.73352645962846
 11
152.456837780419
 21
-90.73352645962846
  0
LINE
  5
137
100
AcDbEntity
  8
0
  6
ByLayer
 62
  256
370
   -1
100
AcDbLine
 10
152.456837780419
 20
-90.23352645962846
 11
152.456837780419
 21
-72.96152645962847
  0
LINE
  5
138
100
AcDbEntity
  8
0
  6
ByLayer
 62
  256
370
   -1
100
AcDbLine
 10
135.692837780419
 20
-72.96152645962847
 11
135.692837780419
 21
-90.23352645962846
  0
LINE
  5
139
100
AcDbEntity
  8
0
  6
ByLayer
 62
  256
370
   -1
100
AcDbLine
 10
135.692837780419
 20
-72.46152645962847
 11
152.456837780419
 21
-72.46152645962847
  0
LINE
  5
13A
100
AcDbEntity
  8
0
  6
ByLayer
 62
  256
370
   -1
100
AcDbLine
 10
155.407983879306
 20
-72.91725472343079
 11
155.407983879306
 21
-86.55052645962847
  0
LINE
  5
13B
100
AcDbEntity
  8
0
  6
ByLayer
 62
  256
370
   -1
100
AcDbLine
 10
155.407983879306
 20
-86.55052645962847
 11
155.407983879306
 21
-89.23352645962835
  0
LINE
  5
13C
100
AcDbEntity
  8
0
  6
ByLayer
 62
  256
370
   -1
100
AcDbLine
 10
294.7109115889355
 20
-123.1293151930769
 11
294.8779115889355
 21
-123.2253151930769
  0
LINE
  5
13D
100
AcDbEntity
  8
0
  6
ByLayer
 62
  256
370
   -1
100
AcDbLine
 10
289.4989115889355
 20
-10.98231519307687
 11
289.2719115889355
 21
-10.98231519307687
  0
LINE
  5
13E
100
AcDbEntity
  8
0
  6
ByLayer
 62
  256
370
   -1
100
AcDbLine
 10
289.2719115889355
 20
-10.98231519307687
 11
288.5919115889355
 21
-10.89031519307689
  0
LINE
  5
13F
100
AcDbEntity
  8
0
  6
ByLayer
 62
  256
370
   -1
100
AcDbLine
 10
288.5919115889355
 20
-10.89031519307689
 11
287.6059115889356
 21
-10.64231519307684
  0
LINE
  5
140
100
AcDbEntity
  8
0
  6
ByLayer
 62
  256
370
   -1
100
AcDbLine
 10
287.6059115889356
 20
-10.64231519307684
 11
286.6579115889355
 21
-10.27531519307688
  0
LINE
  5
141
100
AcDbEntity
  8
0
  6
ByLayer
 62
  256
370
   -1
100
AcDbLine
 10
286.6579115889355
 20
-10.27531519307688
 11
286.0499115889355
 21
-9.957315193076893
  0
LINE
  5
142
100
AcDbEntity
  8
0
  6
ByLayer
 62
  256
370
   -1
100
AcDbLine
 10
286.0499115889355
 20
-9.957315193076893
 11
285.8669115889355
 21
-9.828315193076874
  0
LINE
  5
143
100
AcDbEntity
  8
0
  6
ByLayer
 62
  256
370
   -1
100
AcDbLine
 10
181.4126115889355
 20
-14.74331519307684
 11
181.2141815889355
 21
-14.78731519307688
  0
LINE
  5
144
100
AcDbEntity
  8
0
  6
ByLayer
 62
  256
370
   -1
100
AcDbLine
 10
181.2141815889355
 20
-14.78731519307688
 11
180.6546915889355
 21
-15.07131519307687
  0
LINE
  5
145
100
AcDbEntity
  8
0
  6
ByLayer
 62
  256
370
   -1
100
AcDbLine
 10
180.6546915889355
 20
-15.07131519307687
 11
180.0331975889355
 21
-15.64031519307689
  0
LINE
  5
146
100
AcDbEntity
  8
0
  6
ByLayer
 62
  256
370
   -1
100
AcDbLine
 10
180.0331975889355
 20
-15.64031519307689
 11
179.6142755889355
 21
-16.36931519307687
  0
LINE
  5
147
100
AcDbEntity
  8
0
  6
ByLayer
 62
  256
370
   -1
100
AcDbLine
 10
179.6142755889355
 20
-16.36931519307687
 11
179.4613135889355
 21
-16.97831519307685
  0
LINE
  5
148
100
AcDbEntity
  8
0
  6
ByLayer
 62
  256
370
   -1
100
AcDbLine
 10
179.4613135889355
 20
-16.97831519307685
 11
179.4613135889355
 21
-17.18231519307686
  0
LINE
  5
149
100
AcDbEntity
  8
0
  6
ByLayer
 62
  256
370
   -1
100
AcDbLine
 10
179.4613135889355
 20
-17.18231519307686
 11
179.4613135889355
 21
-109.2813151930768
  0
LINE
  5
14A
100
AcDbEntity
  8
0
  6
ByLayer
 62
  256
370
   -1
100
AcDbLine
 10
179.4613135889355
 20
-109.2813151930768
 11
179.4613135889355
 21
-109.4743151930769
  0
LINE
  5
14B
100
AcDbEntity
  8
0
  6
ByLayer
 62
  256
370
   -1
100
AcDbLine
 10
179.4613135889355
 20
-109.4743151930769
 11
179.6184095889355
 21
-110.0573151930769
  0
LINE
  5
14C
100
AcDbEntity
  8
0
  6
ByLayer
 62
  256
370
   -1
100
AcDbLine
 10
179.6184095889355
 20
-110.0573151930769
 11
180.0483565889355
 21
-110.6923151930769
  0
LINE
  5
14D
100
AcDbEntity
  8
0
  6
ByLayer
 62
  256
370
   -1
100
AcDbLine
 10
180.0483565889355
 20
-110.6923151930769
 11
180.6836315889355
 21
-111.1223151930769
  0
LINE
  5
14E
100
AcDbEntity
  8
0
  6
ByLayer
 62
  256
370
   -1
100
AcDbLine
 10
180.6836315889355
 20
-111.1223151930769
 11
181.2665415889355
 21
-111.2803151930769
  0
LINE
  5
14F
100
AcDbEntity
  8
0
  6
ByLayer
 62
  256
370
   -1
100
AcDbLine
 10
181.2665415889355
 20
-111.2803151930769
 11
181.4608515889355
 21
-111.2803151930769
  0
LINE
  5
150
100
AcDbEntity
  8
0
  6
ByLayer
 62
  256
370
   -1
100
AcDbLine
 10
181.4608515889355
 20
-111.2803151930769
 11
272.1729115889356
 21
-111.2803151930769
  0
LINE
  5
151
100
AcDbEntity
  8
0
  6
ByLayer
 62
  256
370
   -1
100
AcDbLine
 10
272.1729115889356
 20
-111.2803151930769
 11
272.4004115889355
 21
-111.2803151930769
  0
LINE
  5
152
100
AcDbEntity
  8
0
  6
ByLayer
 62
  256
370
   -1
100
AcDbLine
 10
272.4004115889355
 20
-111.2803151930769
 11
273.0852115889355
 21
-111.3593151930769
  0
LINE
  5
153
100
AcDbEntity
  8
0
  6
ByLayer
 62
  256
370
   -1
100
AcDbLine
 10
273.0852115889355
 20
-111.3593151930769
 11
274.0938115889355
 21
-111.5743151930769
  0
LINE
  5
154
100
AcDbEntity
  8
0
  6
ByLayer
 62
  256
370
   -1
100
AcDbLine
 10
274.0938115889355
 20
-111.5743151930769
 11
275.0738115889355
 21
-111.8913151930769
  0
LINE
  5
155
100
AcDbEntity
  8
0
  6
ByLayer
 62
  256
370
   -1
100
AcDbLine
 10
275.0738115889355
 20
-111.8913151930769
 11
275.7063115889355
 21
-112.1653151930769
  0
LINE
  5
156
100
AcDbEntity
  8
0
  6
ByLayer
 62
  256
370
   -1
100
AcDbLine
 10
275.7063115889355
 20
-112.1653151930769
 11
275.9046115889356
 21
-112.2793151930769
  0
LINE
  5
157
100
AcDbEntity
  8
0
  6
ByLayer
 62
  256
370
   -1
100
AcDbLine
 10
275.9046115889356
 20
-112.2793151930769
 11
312.1464782771184
 21
-133.1884920947944
  0
ARC
  5
158
100
AcDbEntity
  8
0
  6
ByLayer
 62
  256
370
   -1
100
AcDbCircle
 10
312.6462080405792
 20
-132.3223107260781
 40
1
100
AcDbArc
 50
240.0178770956076
 51
329.9314171781378
  0
LINE
  5
159
100
AcDbEntity
  8
0
  6
ByLayer
 62
  256
370
   -1
100
AcDbLine
 10
334.8692974682415
 20
-73.41725472343079
 11
334.8692974682415
 21
-87.05052645962847
  0
LINE
  5
15A
100
AcDbEntity
  8
0
  6
ByLayer
 62
  256
370
   -1
100
AcDbLine
 10
334.8692974682415
 20
-87.05052645962847
 11
334.8692974682415
 21
-89.73352645962835
  0
ARC
  5
15B
100
AcDbEntity
  8
0
  6
ByLayer
 62
  256
370
   -1
100
AcDbCircle
 10
333.1909551610137
 20
-71.39280252712221
 40
1.67892611119629
100
AcDbArc
 50
359.8173728751784
 51
90
  0
LINE
  5
15C
100
AcDbEntity
  8
0
  6
ByLayer
 62
  256
370
   -1
100
AcDbLine
 10
334.8692974682415
 20
-73.41725472343079
 11
334.8698727434377
 21
-71.39815400208049
  0
LINE
  5
15D
100
AcDbEntity
  8
0
  6
ByLayer
 62
  256
370
   -1
100
AcDbLine
 10
323.8665208961914
 20
-69.71387641592592
 11
333.1909551610137
 21
-69.71387641592592
  0
LINE
  5
15E
100
AcDbEntity
  8
0
  6
ByLayer
 62
  256
370
   -1
100
AcDbLine
 10
334.8692974682415
 20
-89.73352645962835
 11
331.4382571398774
 21
-101.8591803182085
  0
LINE
  5
15F
100
AcDbEntity
  8
0
  6
ByLayer
 62
  256
370
   -1
100
AcDbLine
 10
313.5116343260603
 20
-132.8233469966197
 11
331.4382571398774
 21
-101.8591803182085
  0
LINE
  5
160
100
AcDbEntity
  8
0
  6
ByLayer
 62
  256
370
   -1
100
AcDbLine
 10
291.2218135889354
 20
-10.98231519307687
 11
289.4989115889355
 21
-10.98231519307687
  0
LINE
  5
161
100
AcDbEntity
  8
0
  6
ByLayer
 62
  256
370
   -1
100
AcDbLine
 10
292.2218135889354
 20
-10.98461519307685
 11
292.2218135889354
 21
-25.68361519307685
  0
LINE
  5
162
100
AcDbEntity
  8
0
  6
ByLayer
 62
  256
370
   -1
100
AcDbLine
 10
314.5429115889356
 20
-24.92261519307684
 11
314.5429115889356
 21
-24.69461519307689
  0
LINE
  5
163
100
AcDbEntity
  8
0
  6
ByLayer
 62
  256
370
   -1
100
AcDbLine
 10
314.5429115889356
 20
-24.69461519307689
 11
314.4549115889355
 21
-24.01461519307682
  0
LINE
  5
164
100
AcDbEntity
  8
0
  6
ByLayer
 62
  256
370
   -1
100
AcDbLine
 10
314.4549115889355
 20
-24.01461519307682
 11
314.2139115889355
 21
-23.02261519307686
  0
LINE
  5
165
100
AcDbEntity
  8
0
  6
ByLayer
 62
  256
370
   -1
100
AcDbLine
 10
314.2139115889355
 20
-23.02261519307686
 11
313.8579115889355
 21
-22.06561519307687
  0
LINE
  5
166
100
AcDbEntity
  8
0
  6
ByLayer
 62
  256
370
   -1
100
AcDbLine
 10
313.8579115889355
 20
-22.06561519307687
 11
313.5509115889355
 21
-21.45261519307681
  0
LINE
  5
167
100
AcDbEntity
  8
0
  6
ByLayer
 62
  256
370
   -1
100
AcDbLine
 10
313.5509115889355
 20
-21.45261519307681
 11
313.4259115889355
 21
-21.26561519307686
  0
LINE
  5
168
100
AcDbEntity
  8
0
  6
ByLayer
 62
  256
370
   -1
100
AcDbLine
 10
313.4259115889355
 20
-21.26561519307686
 11
307.6159115889355
 21
-12.64461519307682
  0
LINE
  5
169
100
AcDbEntity
  8
0
  6
ByLayer
 62
  256
370
   -1
100
AcDbLine
 10
307.6159115889355
 20
-12.64461519307682
 11
307.4939115889355
 21
-12.46361519307689
  0
LINE
  5
16A
100
AcDbEntity
  8
0
  6
ByLayer
 62
  256
370
   -1
100
AcDbLine
 10
307.4939115889355
 20
-12.46361519307689
 11
307.0229115889355
 21
-11.99961519307684
  0
LINE
  5
16B
100
AcDbEntity
  8
0
  6
ByLayer
 62
  256
370
   -1
100
AcDbLine
 10
307.0229115889355
 20
-11.99961519307684
 11
306.2389115889355
 21
-11.47161519307682
  0
LINE
  5
16C
100
AcDbEntity
  8
0
  6
ByLayer
 62
  256
370
   -1
100
AcDbLine
 10
306.2389115889355
 20
-11.47161519307682
 11
305.3629115889355
 21
-11.11561519307682
  0
LINE
  5
16D
100
AcDbEntity
  8
0
  6
ByLayer
 62
  256
370
   -1
100
AcDbLine
 10
305.3629115889355
 20
-11.11561519307682
 11
304.7129115889355
 21
-10.98461519307685
  0
ARC
  5
16E
100
AcDbEntity
  8
0
  6
ByLayer
 62
  256
370
   -1
100
AcDbCircle
 10
324.8665208961914
 20
-59.39256710866997
 40
10.32360930725594
100
AcDbArc
 50
180
 51
270
  0
LINE
  5
16F
100
AcDbEntity
  8
0
  6
ByLayer
 62
  256
370
   -1
100
AcDbLine
 10
314.5429115889356
 20
-24.92261519307684
 11
314.5429115889355
 21
-59.39256710866997
  0
LINE
  5
170
100
AcDbEntity
  8
0
  6
ByLayer
 62
  256
370
   -1
100
AcDbLine
 10
292.2218135889354
 20
-25.68591519307683
 11
304.3818135889355
 21
-25.68591519307683
  0
LINE
  5
171
100
AcDbEntity
  8
0
  6
ByLayer
 62
  256
370
   -1
100
AcDbLine
 10
304.3818135889355
 20
-25.68591519307683
 11
304.3818135889355
 21
-10.98691519307683
  0
LINE
  5
172
100
AcDbEntity
  8
0
  6
ByLayer
 62
  256
370
   -1
100
AcDbLine
 10
304.7129115889355
 20
-10.98461519307685
 11
304.3818135889355
 21
-10.98461519307685
  0
LINE
  5
173
100
AcDbEntity
  8
0
  6
ByLayer
 62
  256
370
   -1
100
AcDbLine
 10
292.2218135889354
 20
-10.98691519307683
 11
291.2218135889354
 21
-10.98461519307685
  0
LINE
  5
174
100
AcDbEntity
  8
0
  6
ByLayer
 62
  256
370
   -1
100
AcDbLine
 10
292.2218135889354
 20
-10.98691519307683
 11
292.2218135889354
 21
-25.68361519307685
  0
LINE
  5
175
100
AcDbEntity
  8
0
  6
ByLayer
 62
  256
370
   -1
100
AcDbLine
 10
155.4079838793059
 20
-73.41725472343079
 11
155.4079838793059
 21
-87.05052645962847
  0
LINE
  5
176
100
AcDbEntity
  8
0
  6
ByLayer
 62
  256
370
   -1
100
AcDbLine
 10
155.4079838793059
 20
-87.05052645962847
 11
155.4079838793059
 21
-89.73352645962835
  0
ARC
  5
177
100
AcDbEntity
  8
0
  6
ByLayer
 62
  256
370
   -1
100
AcDbCircle
 10
153.7296415720781
 20
-71.39280252712221
 40
1.67892611119629
100
AcDbArc
 50
359.8173728751784
 51
90
  0
LINE
  5
178
100
AcDbEntity
  8
0
  6
ByLayer
 62
  256
370
   -1
100
AcDbLine
 10
155.4079838793059
 20
-73.41725472343079
 11
155.4085591545022
 21
-71.39815400208049
  0
LINE
  5
179
100
AcDbEntity
  8
0
  6
ByLayer
 62
  256
370
   -1
100
AcDbLine
 10
144.4052073072558
 20
-69.71387641592592
 11
153.7296415720781
 21
-69.71387641592592
  0
LINE
  5
17A
100
AcDbEntity
  8
0
  6
ByLayer
 62
  256
370
   -1
100
AcDbLine
 10
155.4079838793059
 20
-89.73352645962835
 11
151.9769435509419
 21
-101.8591803182085
  0
LINE
  5
17B
100
AcDbEntity
  8
0
  6
ByLayer
 62
  256
370
   -1
100
AcDbLine
 10
135.0815980000001
 20
-24.92261519307684
 11
135.0815980000001
 21
-24.6946151930769
  0
LINE
  5
17C
100
AcDbEntity
  8
0
  6
ByLayer
 62
  256
370
   -1
100
AcDbLine
 10
135.0815980000001
 20
-24.6946151930769
 11
134.9935979999999
 21
-24.01461519307682
  0
LINE
  5
17D
100
AcDbEntity
  8
0
  6
ByLayer
 62
  256
370
   -1
100
AcDbLine
 10
134.9935979999999
 20
-24.01461519307682
 11
134.7525979999999
 21
-23.02261519307686
  0
LINE
  5
17E
100
AcDbEntity
  8
0
  6
ByLayer
 62
  256
370
   -1
100
AcDbLine
 10
134.7525979999999
 20
-23.02261519307686
 11
134.396598
 21
-22.06561519307687
  0
LINE
  5
17F
100
AcDbEntity
  8
0
  6
ByLayer
 62
  256
370
   -1
100
AcDbLine
 10
134.396598
 20
-22.06561519307687
 11
134.0895979999999
 21
-21.45261519307681
  0
LINE
  5
180
100
AcDbEntity
  8
0
  6
ByLayer
 62
  256
370
   -1
100
AcDbLine
 10
134.0895979999999
 20
-21.45261519307681
 11
133.9645979999999
 21
-21.26561519307687
  0
LINE
  5
181
100
AcDbEntity
  8
0
  6
ByLayer
 62
  256
370
   -1
100
AcDbLine
 10
133.9645979999999
 20
-21.26561519307687
 11
128.1545979999999
 21
-12.64461519307682
  0
LINE
  5
182
100
AcDbEntity
  8
0
  6
ByLayer
 62
  256
370
   -1
100
AcDbLine
 10
128.1545979999999
 20
-12.64461519307682
 11
128.0325979999999
 21
-12.46361519307689
  0
LINE
  5
183
100
AcDbEntity
  8
0
  6
ByLayer
 62
  256
370
   -1
100
AcDbLine
 10
128.0325979999999
 20
-12.46361519307689
 11
127.5615979999999
 21
-11.99961519307683
  0
LINE
  5
184
100
AcDbEntity
  8
0
  6
ByLayer
 62
  256
370
   -1
100
AcDbLine
 10
127.5615979999999
 20
-11.99961519307683
 11
126.7775979999999
 21
-11.47161519307681
  0
LINE
  5
185
100
AcDbEntity
  8
0
  6
ByLayer
 62
  256
370
   -1
100
AcDbLine
 10
126.7775979999999
 20
-11.47161519307681
 11
125.901598
 21
-11.11561519307682
  0
LINE
  5
186
100
AcDbEntity
  8
0
  6
ByLayer
 62
  256
370
   -1
100
AcDbLine
 10
125.901598
 20
-11.11561519307682
 11
125.251598
 21
-10.98461519307685
  0
ARC
  5
187
100
AcDbEntity
  8
0
  6
ByLayer
 62
  256
370
   -1
100
AcDbCircle
 10
145.4052073072558
 20
-59.39256710866997
 40
10.32360930725594
100
AcDbArc
 50
180
 51
270
  0
LINE
  5
188
100
AcDbEntity
  8
0
  6
ByLayer
 62
  256
370
   -1
100
AcDbLine
 10
135.0815980000001
 20
-24.92261519307684
 11
135.081598
 21
-59.39256710866997
  0
LINE
  5
189
100
AcDbEntity
  8
0
  6
ByLayer
 62
  256
370
   -1
100
AcDbLine
 10
125.251598
 20
-10.98461519307685
 11
124.9204999999999
 21
-10.98461519307685
  0
LINE
  5
18A
100
AcDbEntity
  8
0
  6
ByLayer
 62
  256
370
   -1
100
AcDbLine
 10
134.0503207371248
 20
-132.8233469966197
 11
151.9769435509419
 21
-101.8591803182086
  0
LINE
  5
18B
100
AcDbEntity
  8
0
  6
ByLayer
 62
  256
370
   -1
100
AcDbLine
 10
124.9204999999999
 20
-10.98461519307685
 11
124.251598
 21
-10.98231519307687
  0
LINE
  5
18C
100
AcDbEntity
  8
0
  6
ByLayer
 62
  256
370
   -1
100
AcDbLine
 10
314.5429115889355
 20
-165.0949995693877
 11
314.5429115889355
 21
-178.3949995693877
  0
LINE
  5
18D
100
AcDbEntity
  8
0
  6
ByLayer
 62
  256
370
   -1
100
AcDbLine
 10
304.4989115889355
 20
-151.1569995693877
 11
304.7129115889355
 21
-151.1569995693877
  0
LINE
  5
18E
100
AcDbEntity
  8
0
  6
ByLayer
 62
  256
370
   -1
100
AcDbLine
 10
304.7129115889355
 20
-151.1569995693877
 11
305.3629115889355
 21
-151.2869995693877
  0
LINE
  5
18F
100
AcDbEntity
  8
0
  6
ByLayer
 62
  256
370
   -1
100
AcDbLine
 10
305.3629115889355
 20
-151.2869995693877
 11
306.2389115889355
 21
-151.6439995693877
  0
LINE
  5
190
100
AcDbEntity
  8
0
  6
ByLayer
 62
  256
370
   -1
100
AcDbLine
 10
306.2389115889355
 20
-151.6439995693877
 11
307.0229115889355
 21
-152.1699995693877
  0
LINE
  5
191
100
AcDbEntity
  8
0
  6
ByLayer
 62
  256
370
   -1
100
AcDbLine
 10
307.0229115889355
 20
-152.1699995693877
 11
307.4939115889355
 21
-152.6349995693876
  0
LINE
  5
192
100
AcDbEntity
  8
0
  6
ByLayer
 62
  256
370
   -1
100
AcDbLine
 10
307.4939115889355
 20
-152.6349995693876
 11
307.6159115889355
 21
-152.8149995693877
  0
LINE
  5
193
100
AcDbEntity
  8
0
  6
ByLayer
 62
  256
370
   -1
100
AcDbLine
 10
307.6159115889355
 20
-152.8149995693877
 11
313.4259115889355
 21
-161.4369995693877
  0
LINE
  5
194
100
AcDbEntity
  8
0
  6
ByLayer
 62
  256
370
   -1
100
AcDbLine
 10
313.4259115889355
 20
-161.4369995693877
 11
313.5509115889355
 21
-161.6249995693877
  0
LINE
  5
195
100
AcDbEntity
  8
0
  6
ByLayer
 62
  256
370
   -1
100
AcDbLine
 10
313.5509115889355
 20
-161.6249995693877
 11
313.8579115889355
 21
-162.2379995693877
  0
LINE
  5
196
100
AcDbEntity
  8
0
  6
ByLayer
 62
  256
370
   -1
100
AcDbLine
 10
313.8579115889355
 20
-162.2379995693877
 11
314.2139115889355
 21
-163.1939995693877
  0
LINE
  5
197
100
AcDbEntity
  8
0
  6
ByLayer
 62
  256
370
   -1
100
AcDbLine
 10
314.2139115889355
 20
-163.1939995693877
 11
314.4549115889355
 21
-164.1869995693877
  0
LINE
  5
198
100
AcDbEntity
  8
0
  6
ByLayer
 62
  256
370
   -1
100
AcDbLine
 10
314.4549115889355
 20
-164.1869995693877
 11
314.5429115889355
 21
-164.8669995693876
  0
LINE
  5
199
100
AcDbEntity
  8
0
  6
ByLayer
 62
  256
370
   -1
100
AcDbLine
 10
314.5429115889355
 20
-164.8669995693876
 11
314.5429115889355
 21
-165.0949995693877
  0
LINE
  5
19A
100
AcDbEntity
  8
0
  6
ByLayer
 62
  256
370
   -1
100
AcDbLine
 10
314.5429115889355
 20
-165.0949995693877
 11
314.5429115889355
 21
-178.3949995693877
  0
LINE
  5
19B
100
AcDbEntity
  8
0
  6
ByLayer
 62
  256
370
   -1
100
AcDbLine
 10
304.4989115889355
 20
-151.1569995693877
 11
303.7129115889355
 21
-151.1569995693877
  0
LINE
  5
19C
100
AcDbEntity
  8
0
  6
ByLayer
 62
  256
370
   -1
100
AcDbLine
 10
135.081598
 20
-165.0949995693877
 11
135.081598
 21
-178.3949995693877
  0
LINE
  5
19D
100
AcDbEntity
  8
0
  6
ByLayer
 62
  256
370
   -1
100
AcDbLine
 10
125.0375980000001
 20
-151.1569995693877
 11
125.2515980000001
 21
-151.1569995693877
  0
LINE
  5
19E
100
AcDbEntity
  8
0
  6
ByLayer
 62
  256
370
   -1
100
AcDbLine
 10
125.2515980000001
 20
-151.1569995693877
 11
125.901598
 21
-151.2869995693877
  0
LINE
  5
19F
100
AcDbEntity
  8
0
  6
ByLayer
 62
  256
370
   -1
100
AcDbLine
 10
125.901598
 20
-151.2869995693877
 11
126.777598
 21
-151.6439995693877
  0
LINE
  5
1A0
100
AcDbEntity
  8
0
  6
ByLayer
 62
  256
370
   -1
100
AcDbLine
 10
126.777598
 20
-151.6439995693877
 11
127.561598
 21
-152.1699995693877
  0
LINE
  5
1A1
100
AcDbEntity
  8
0
  6
ByLayer
 62
  256
370
   -1
100
AcDbLine
 10
127.561598
 20
-152.1699995693877
 11
128.032598
 21
-152.6349995693876
  0
LINE
  5
1A2
100
AcDbEntity
  8
0
  6
ByLayer
 62
  256
370
   -1
100
AcDbLine
 10
128.032598
 20
-152.6349995693876
 11
128.154598
 21
-152.8149995693877
  0
LINE
  5
1A3
100
AcDbEntity
  8
0
  6
ByLayer
 62
  256
370
   -1
100
AcDbLine
 10
128.154598
 20
-152.8149995693877
 11
133.964598
 21
-161.4369995693877
  0
LINE
  5
1A4
100
AcDbEntity
  8
0
  6
ByLayer
 62
  256
370
   -1
100
AcDbLine
 10
133.964598
 20
-161.4369995693877
 11
134.089598
 21
-161.6249995693877
  0
LINE
  5
1A5
100
AcDbEntity
  8
0
  6
ByLayer
 62
  256
370
   -1
100
AcDbLine
 10
134.089598
 20
-161.6249995693877
 11
134.396598
 21
-162.2379995693877
  0
LINE
  5
1A6
100
AcDbEntity
  8
0
  6
ByLayer
 62
  256
370
   -1
100
AcDbLine
 10
134.396598
 20
-162.2379995693877
 11
134.752598
 21
-163.1939995693877
  0
LINE
  5
1A7
100
AcDbEntity
  8
0
  6
ByLayer
 62
  256
370
   -1
100
AcDbLine
 10
134.752598
 20
-163.1939995693877
 11
134.993598
 21
-164.1869995693877
  0
LINE
  5
1A8
100
AcDbEntity
  8
0
  6
ByLayer
 62
  256
370
   -1
100
AcDbLine
 10
134.993598
 20
-164.1869995693877
 11
135.081598
 21
-164.8669995693876
  0
LINE
  5
1A9
100
AcDbEntity
  8
0
  6
ByLayer
 62
  256
370
   -1
100
AcDbLine
 10
135.081598
 20
-164.8669995693876
 11
135.081598
 21
-165.0949995693877
  0
LINE
  5
1AA
100
AcDbEntity
  8
0
  6
ByLayer
 62
  256
370
   -1
100
AcDbLine
 10
135.081598
 20
-165.0949995693877
 11
135.081598
 21
-178.3949995693877
  0
LINE
  5
1AB
100
AcDbEntity
  8
0
  6
ByLayer
 62
  256
370
   -1
100
AcDbLine
 10
125.0375980000001
 20
-151.1569995693877
 11
124.251598
 21
-151.1569995693877
  0
LINE
  5
1AC
100
AcDbEntity
  8
0
  6
ByLayer
 62
  256
370
   -1
100
AcDbLine
 10
179.6024504124496
 20
-381.8350665007429
 11
179.6024504124496
 21
-360.7950665007428
  0
LINE
  5
1AD
100
AcDbEntity
  8
0
  6
ByLayer
 62
  256
370
   -1
100
AcDbLine
 10
179.6024504124496
 20
-360.7950665007428
 11
179.6024504124496
 21
-360.5920665007428
  0
LINE
  5
1AE
100
AcDbEntity
  8
0
  6
ByLayer
 62
  256
370
   -1
100
AcDbLine
 10
179.6024504124496
 20
-360.5920665007428
 11
179.7554124124496
 21
-359.9840665007429
  0
LINE
  5
1AF
100
AcDbEntity
  8
0
  6
ByLayer
 62
  256
370
   -1
100
AcDbLine
 10
179.7554124124496
 20
-359.9840665007429
 11
180.1743344124496
 21
-359.2530665007428
  0
LINE
  5
1B0
100
AcDbEntity
  8
0
  6
ByLayer
 62
  256
370
   -1
100
AcDbLine
 10
180.1743344124496
 20
-359.2530665007428
 11
180.7958284124496
 21
-358.6840665007429
  0
LINE
  5
1B1
100
AcDbEntity
  8
0
  6
ByLayer
 62
  256
370
   -1
100
AcDbLine
 10
180.7958284124496
 20
-358.6840665007429
 11
181.3553184124496
 21
-358.4000665007428
  0
LINE
  5
1B2
100
AcDbEntity
  8
0
  6
ByLayer
 62
  256
370
   -1
100
AcDbLine
 10
181.3553184124496
 20
-358.4000665007428
 11
181.5537484124496
 21
-358.3560665007428
  0
LINE
  5
1B3
100
AcDbEntity
  8
0
  6
ByLayer
 62
  256
370
   -1
100
AcDbLine
 10
286.0060484124496
 20
-353.4430665007428
 11
286.1890484124496
 21
-353.5720665007428
  0
LINE
  5
1B4
100
AcDbEntity
  8
0
  6
ByLayer
 62
  256
370
   -1
100
AcDbLine
 10
286.1890484124496
 20
-353.5720665007428
 11
286.7970484124496
 21
-353.8900665007427
  0
LINE
  5
1B5
100
AcDbEntity
  8
0
  6
ByLayer
 62
  256
370
   -1
100
AcDbLine
 10
286.7970484124496
 20
-353.8900665007427
 11
287.7470484124496
 21
-354.2570665007428
  0
LINE
  5
1B6
100
AcDbEntity
  8
0
  6
ByLayer
 62
  256
370
   -1
100
AcDbLine
 10
287.7470484124496
 20
-354.2570665007428
 11
288.7350484124496
 21
-354.5050665007428
  0
LINE
  5
1B7
100
AcDbEntity
  8
0
  6
ByLayer
 62
  256
370
   -1
100
AcDbLine
 10
288.7350484124496
 20
-354.5050665007428
 11
289.4130484124496
 21
-354.5970665007428
  0
LINE
  5
1B8
100
AcDbEntity
  8
0
  6
ByLayer
 62
  256
370
   -1
100
AcDbLine
 10
289.4130484124496
 20
-354.5970665007428
 11
289.6400484124496
 21
-354.5970665007428
  0
LINE
  5
1B9
100
AcDbEntity
  8
0
  6
ByLayer
 62
  256
370
   -1
100
AcDbLine
 10
289.6400484124496
 20
-354.5970665007428
 11
303.6400484124496
 21
-354.5970665007428
  0
LINE
  5
1BA
100
AcDbEntity
  8
0
  6
ByLayer
 62
  256
370
   -1
100
AcDbLine
 10
303.6400484124496
 20
-354.5970665007428
 11
303.8540484124496
 21
-354.5970665007428
  0
LINE
  5
1BB
100
AcDbEntity
  8
0
  6
ByLayer
 62
  256
370
   -1
100
AcDbLine
 10
314.6840484124496
 20
-368.5350665007429
 11
314.6840484124496
 21
-381.8350665007429
  0
LINE
  5
1BC
100
AcDbEntity
  8
0
  6
ByLayer
 62
  256
370
   -1
100
AcDbLine
 10
304.6400484124496
 20
-354.5970665007428
 11
304.8540484124496
 21
-354.5970665007428
  0
LINE
  5
1BD
100
AcDbEntity
  8
0
  6
ByLayer
 62
  256
370
   -1
100
AcDbLine
 10
304.8540484124496
 20
-354.5970665007428
 11
305.5040484124496
 21
-354.7270665007428
  0
LINE
  5
1BE
100
AcDbEntity
  8
0
  6
ByLayer
 62
  256
370
   -1
100
AcDbLine
 10
305.5040484124496
 20
-354.7270665007428
 11
306.3800484124496
 21
-355.0840665007428
  0
LINE
  5
1BF
100
AcDbEntity
  8
0
  6
ByLayer
 62
  256
370
   -1
100
AcDbLine
 10
306.3800484124496
 20
-355.0840665007428
 11
307.1640484124496
 21
-355.6100665007428
  0
LINE
  5
1C0
100
AcDbEntity
  8
0
  6
ByLayer
 62
  256
370
   -1
100
AcDbLine
 10
307.1640484124496
 20
-355.6100665007428
 11
307.6350484124496
 21
-356.0750665007428
  0
LINE
  5
1C1
100
AcDbEntity
  8
0
  6
ByLayer
 62
  256
370
   -1
100
AcDbLine
 10
307.6350484124496
 20
-356.0750665007428
 11
307.7570484124496
 21
-356.2550665007428
  0
LINE
  5
1C2
100
AcDbEntity
  8
0
  6
ByLayer
 62
  256
370
   -1
100
AcDbLine
 10
307.7570484124496
 20
-356.2550665007428
 11
313.5670484124496
 21
-364.8770665007428
  0
LINE
  5
1C3
100
AcDbEntity
  8
0
  6
ByLayer
 62
  256
370
   -1
100
AcDbLine
 10
313.5670484124496
 20
-364.8770665007428
 11
313.6920484124496
 21
-365.0650665007429
  0
LINE
  5
1C4
100
AcDbEntity
  8
0
  6
ByLayer
 62
  256
370
   -1
100
AcDbLine
 10
313.6920484124496
 20
-365.0650665007429
 11
313.9990484124496
 21
-365.6780665007428
  0
LINE
  5
1C5
100
AcDbEntity
  8
0
  6
ByLayer
 62
  256
370
   -1
100
AcDbLine
 10
313.9990484124496
 20
-365.6780665007428
 11
314.3550484124496
 21
-366.6340665007428
  0
LINE
  5
1C6
100
AcDbEntity
  8
0
  6
ByLayer
 62
  256
370
   -1
100
AcDbLine
 10
314.3550484124496
 20
-366.6340665007428
 11
314.5960484124496
 21
-367.6270665007428
  0
LINE
  5
1C7
100
AcDbEntity
  8
0
  6
ByLayer
 62
  256
370
   -1
100
AcDbLine
 10
314.5960484124496
 20
-367.6270665007428
 11
314.6840484124496
 21
-368.3070665007427
  0
LINE
  5
1C8
100
AcDbEntity
  8
0
  6
ByLayer
 62
  256
370
   -1
100
AcDbLine
 10
314.6840484124496
 20
-368.3070665007427
 11
314.6840484124496
 21
-368.5350665007429
  0
LINE
  5
1C9
100
AcDbEntity
  8
0
  6
ByLayer
 62
  256
370
   -1
100
AcDbLine
 10
314.6840484124496
 20
-368.5350665007429
 11
314.6840484124496
 21
-381.8350665007429
  0
LINE
  5
1CA
100
AcDbEntity
  8
0
  6
ByLayer
 62
  256
370
   -1
100
AcDbLine
 10
304.6400484124496
 20
-354.5970665007428
 11
303.8540484124496
 21
-354.5970665007428
  0
LINE
  5
1CB
100
AcDbEntity
  8
0
  6
ByLayer
 62
  256
370
   -1
100
AcDbLine
 10
311.6830484124496
 20
-398.8350665007429
 11
181.6019884124496
 21
-398.8350665007429
  0
LINE
  5
1CC
100
AcDbEntity
  8
0
  6
ByLayer
 62
  256
370
   -1
100
AcDbLine
 10
311.8760484124496
 20
-398.8350665007429
 11
311.6830484124496
 21
-398.8350665007429
  0
LINE
  5
1CD
100
AcDbEntity
  8
0
  6
ByLayer
 62
  256
370
   -1
100
AcDbLine
 10
314.6840484124496
 20
-396.8350665007429
 11
314.6840484124496
 21
-397.0280665007427
  0
LINE
  5
1CE
100
AcDbEntity
  8
0
  6
ByLayer
 62
  256
370
   -1
100
AcDbLine
 10
314.6840484124496
 20
-397.0280665007427
 11
314.5260484124496
 21
-397.6110665007427
  0
LINE
  5
1CF
100
AcDbEntity
  8
0
  6
ByLayer
 62
  256
370
   -1
100
AcDbLine
 10
314.5260484124496
 20
-397.6110665007427
 11
314.0960484124496
 21
-398.2470665007428
  0
LINE
  5
1D0
100
AcDbEntity
  8
0
  6
ByLayer
 62
  256
370
   -1
100
AcDbLine
 10
314.0960484124496
 20
-398.2470665007428
 11
313.4590484124496
 21
-398.6770665007429
  0
LINE
  5
1D1
100
AcDbEntity
  8
0
  6
ByLayer
 62
  256
370
   -1
100
AcDbLine
 10
313.4590484124496
 20
-398.6770665007429
 11
312.8760484124496
 21
-398.8350665007429
  0
LINE
  5
1D2
100
AcDbEntity
  8
0
  6
ByLayer
 62
  256
370
   -1
100
AcDbLine
 10
312.8760484124496
 20
-398.8350665007429
 11
312.6830484124496
 21
-398.8350665007429
  0
LINE
  5
1D3
100
AcDbEntity
  8
0
  6
ByLayer
 62
  256
370
   -1
100
AcDbLine
 10
311.8760484124496
 20
-398.8350665007429
 11
312.6830484124496
 21
-398.8350665007429
  0
LINE
  5
1D4
100
AcDbEntity
  8
0
  6
ByLayer
 62
  256
370
   -1
100
AcDbLine
 10
311.8760484124496
 20
-398.8350665007429
 11
311.6830484124496
 21
-398.8350665007429
  0
LINE
  5
1D5
100
AcDbEntity
  8
0
  6
ByLayer
 62
  256
370
   -1
100
AcDbLine
 10
314.6840484124496
 20
-396.8350665007429
 11
314.6840484124496
 21
-397.0280665007427
  0
LINE
  5
1D6
100
AcDbEntity
  8
0
  6
ByLayer
 62
  256
370
   -1
100
AcDbLine
 10
314.6840484124496
 20
-397.0280665007427
 11
314.5260484124496
 21
-397.6110665007427
  0
LINE
  5
1D7
100
AcDbEntity
  8
0
  6
ByLayer
 62
  256
370
   -1
100
AcDbLine
 10
314.5260484124496
 20
-397.6110665007427
 11
314.0960484124496
 21
-398.2470665007428
  0
LINE
  5
1D8
100
AcDbEntity
  8
0
  6
ByLayer
 62
  256
370
   -1
100
AcDbLine
 10
314.0960484124496
 20
-398.2470665007428
 11
313.4590484124496
 21
-398.6770665007429
  0
LINE
  5
1D9
100
AcDbEntity
  8
0
  6
ByLayer
 62
  256
370
   -1
100
AcDbLine
 10
313.4590484124496
 20
-398.6770665007429
 11
312.8760484124496
 21
-398.8350665007429
  0
LINE
  5
1DA
100
AcDbEntity
  8
0
  6
ByLayer
 62
  256
370
   -1
100
AcDbLine
 10
312.8760484124496
 20
-398.8350665007429
 11
312.6830484124496
 21
-398.8350665007429
  0
LINE
  5
1DB
100
AcDbEntity
  8
0
  6
ByLayer
 62
  256
370
   -1
100
AcDbLine
 10
311.8760484124496
 20
-398.8350665007429
 11
312.6830484124496
 21
-398.8350665007429
  0
LINE
  5
1DC
100
AcDbEntity
  8
0
  6
ByLayer
 62
  256
370
   -1
100
AcDbLine
 10
181.6019884124496
 20
-398.8350665007429
 11
181.4076784124496
 21
-398.8350665007429
  0
LINE
  5
1DD
100
AcDbEntity
  8
0
  6
ByLayer
 62
  256
370
   -1
100
AcDbLine
 10
181.4076784124496
 20
-398.8350665007429
 11
180.8247684124496
 21
-398.6770665007429
  0
LINE
  5
1DE
100
AcDbEntity
  8
0
  6
ByLayer
 62
  256
370
   -1
100
AcDbLine
 10
180.8247684124496
 20
-398.6770665007429
 11
180.1894934124496
 21
-398.2470665007428
  0
LINE
  5
1DF
100
AcDbEntity
  8
0
  6
ByLayer
 62
  256
370
   -1
100
AcDbLine
 10
180.1894934124496
 20
-398.2470665007428
 11
179.7595464124496
 21
-397.6110665007427
  0
LINE
  5
1E0
100
AcDbEntity
  8
0
  6
ByLayer
 62
  256
370
   -1
100
AcDbLine
 10
179.7595464124496
 20
-397.6110665007427
 11
179.6024504124496
 21
-397.0280665007427
  0
LINE
  5
1E1
100
AcDbEntity
  8
0
  6
ByLayer
 62
  256
370
   -1
100
AcDbLine
 10
179.6024504124496
 20
-397.0280665007427
 11
179.6024504124496
 21
-396.8350665007429
  0
LINE
  5
1E2
100
AcDbEntity
  8
0
  6
ByLayer
 62
  256
370
   -1
100
AcDbLine
 10
314.6840484124496
 20
-381.8350665007429
 11
314.6840484124496
 21
-396.8350665007429
  0
LINE
  5
1E3
100
AcDbEntity
  8
0
  6
ByLayer
 62
  256
370
   -1
100
AcDbLine
 10
179.6024504124496
 20
-381.8350665007429
 11
179.6024504124496
 21
-396.8350665007429
  0
LINE
  5
1E4
100
AcDbEntity
  8
0
  6
ByLayer
 62
  256
370
   -1
100
AcDbLine
 10
181.5537484124496
 20
-358.3560665007428
 11
233.7209504124496
 21
-346.6303853278667
  0
LINE
  5
1E5
100
AcDbEntity
  8
0
  6
ByLayer
 62
  256
370
   -1
100
AcDbLine
 10
278.3609504124496
 20
-348.0332248800848
 11
286.0060484124496
 21
-353.4430665007428
  0
LINE
  5
1E6
100
AcDbEntity
  8
0
  6
ByLayer
 62
  256
370
   -1
100
AcDbLine
 10
285.8669115889355
 20
-9.828315193076874
 11
278.2198135889355
 21
-4.419128772880924
  0
LINE
  5
1E7
100
AcDbEntity
  8
0
  6
ByLayer
 62
  256
370
   -1
100
AcDbLine
 10
233.5798135889355
 20
-3.015669919501746
 11
181.4126115889355
 21
-14.74331519307684
  0
LINE
  5
1E8
100
AcDbEntity
  8
0
  6
ByLayer
 62
  256
370
   -1
100
AcDbLine
 10
0
 20
0
 11
0
 21
0.7
  0
LINE
  5
1E9
100
AcDbEntity
  8
0
  6
ByLayer
 62
  256
370
   -1
100
AcDbLine
 10
233.5798135889355
 20
-42.35831519307685
 11
278.2198135889355
 21
-42.35831519307685
  0
LINE
  5
1EA
100
AcDbEntity
  8
0
  6
ByLayer
 62
  256
370
   -1
100
AcDbLine
 10
233.5798135889355
 20
-42.35831519307685
 11
233.5798135889355
 21
-3.015669919501748
  0
LINE
  5
1EB
100
AcDbEntity
  8
0
  6
ByLayer
 62
  256
370
   -1
100
AcDbLine
 10
278.2198135889355
 20
-42.35831519307685
 11
278.2198135889355
 21
-4.419128772880919
  0
LINE
  5
1EC
100
AcDbEntity
  8
0
  6
ByLayer
 62
  256
370
   -1
100
AcDbLine
 10
233.7209504124496
 20
-385.9720485510923
 11
278.3609504124496
 21
-385.9720485510923
  0
LINE
  5
1ED
100
AcDbEntity
  8
0
  6
ByLayer
 62
  256
370
   -1
100
AcDbLine
 10
233.7209504124496
 20
-385.9720485510923
 11
233.7209504124496
 21
-346.6294032775172
  0
LINE
  5
1EE
100
AcDbEntity
  8
0
  6
ByLayer
 62
  256
370
   -1
100
AcDbLine
 10
278.3609504124496
 20
-385.9720485510923
 11
278.3609504124496
 21
-348.0328621308964
  0
LINE
  5
1EF
100
AcDbEntity
  8
0
  6
ByLayer
 62
  256
370
   -1
100
AcDbLine
 10
0
 20
0
 11
0
 21
4
  0
LINE
  5
1F0
100
AcDbEntity
  8
0
  6
ByLayer
 62
  256
370
   -1
100
AcDbLine
 10
179.4613135889355
 20
-182.3949995693877
 11
179.4613135889355
 21
-178.3949995693877
  0
LINE
  5
1F1
100
AcDbEntity
  8
0
  6
ByLayer
 62
  256
370
   -1
100
AcDbLine
 10
314.5429115889355
 20
-182.3949995693877
 11
314.5429115889355
 21
-178.3949995693877
  0
LINE
  5
1F2
100
AcDbEntity
  8
0
  6
ByLayer
 62
  256
370
   -1
100
AcDbLine
 10
311.7349115889355
 20
-184.3949995693877
 11
311.5419115889355
 21
-184.3949995693877
  0
LINE
  5
1F3
100
AcDbEntity
  8
0
  6
ByLayer
 62
  256
370
   -1
100
AcDbLine
 10
311.5419115889355
 20
-184.3949995693877
 11
181.4608515889355
 21
-184.3949995693877
  0
LINE
  5
1F4
100
AcDbEntity
  8
0
  6
ByLayer
 62
  256
370
   -1
100
AcDbLine
 10
181.4608515889355
 20
-184.3949995693877
 11
181.2665415889355
 21
-184.3949995693877
  0
LINE
  5
1F5
100
AcDbEntity
  8
0
  6
ByLayer
 62
  256
370
   -1
100
AcDbLine
 10
181.2665415889355
 20
-184.3949995693877
 11
180.6836315889355
 21
-184.2369995693877
  0
LINE
  5
1F6
100
AcDbEntity
  8
0
  6
ByLayer
 62
  256
370
   -1
100
AcDbLine
 10
180.6836315889355
 20
-184.2369995693877
 11
180.0483565889355
 21
-183.8069995693877
  0
LINE
  5
1F7
100
AcDbEntity
  8
0
  6
ByLayer
 62
  256
370
   -1
100
AcDbLine
 10
180.0483565889355
 20
-183.8069995693877
 11
179.6184095889355
 21
-183.1709995693876
  0
LINE
  5
1F8
100
AcDbEntity
  8
0
  6
ByLayer
 62
  256
370
   -1
100
AcDbLine
 10
179.6184095889355
 20
-183.1709995693876
 11
179.4613135889355
 21
-182.5879995693876
  0
LINE
  5
1F9
100
AcDbEntity
  8
0
  6
ByLayer
 62
  256
370
   -1
100
AcDbLine
 10
179.4613135889355
 20
-182.5879995693876
 11
179.4613135889355
 21
-182.3949995693877
  0
LINE
  5
1FA
100
AcDbEntity
  8
0
  6
ByLayer
 62
  256
370
   -1
100
AcDbLine
 10
311.7349115889355
 20
-184.3949995693877
 11
311.5419115889355
 21
-184.3949995693877
  0
LINE
  5
1FB
100
AcDbEntity
  8
0
  6
ByLayer
 62
  256
370
   -1
100
AcDbLine
 10
314.5429115889355
 20
-182.3949995693877
 11
314.5429115889355
 21
-182.5879995693876
  0
LINE
  5
1FC
100
AcDbEntity
  8
0
  6
ByLayer
 62
  256
370
   -1
100
AcDbLine
 10
314.5429115889355
 20
-182.5879995693876
 11
314.3849115889355
 21
-183.1709995693876
  0
LINE
  5
1FD
100
AcDbEntity
  8
0
  6
ByLayer
 62
  256
370
   -1
100
AcDbLine
 10
314.3849115889355
 20
-183.1709995693876
 11
313.9549115889355
 21
-183.8069995693877
  0
LINE
  5
1FE
100
AcDbEntity
  8
0
  6
ByLayer
 62
  256
370
   -1
100
AcDbLine
 10
313.9549115889355
 20
-183.8069995693877
 11
313.3179115889355
 21
-184.2369995693877
  0
LINE
  5
1FF
100
AcDbEntity
  8
0
  6
ByLayer
 62
  256
370
   -1
100
AcDbLine
 10
313.3179115889355
 20
-184.2369995693877
 11
312.7349115889355
 21
-184.3949995693877
  0
LINE
  5
200
100
AcDbEntity
  8
0
  6
ByLayer
 62
  256
370
   -1
100
AcDbLine
 10
312.7349115889355
 20
-184.3949995693877
 11
312.5419115889355
 21
-184.3949995693877
  0
LINE
  5
201
100
AcDbEntity
  8
0
  6
ByLayer
 62
  256
370
   -1
100
AcDbLine
 10
311.7349115889355
 20
-184.3949995693877
 11
312.5419115889355
 21
-184.3949995693877
  0
LINE
  5
202
100
AcDbEntity
  8
0
  6
ByLayer
 62
  256
370
   -1
100
AcDbLine
 10
0
 20
-182.3949995693877
 11
0
 21
-178.3949995693877
  0
LINE
  5
203
100
AcDbEntity
  8
0
  6
ByLayer
 62
  256
370
   -1
100
AcDbLine
 10
135.081598
 20
-182.3949995693877
 11
135.081598
 21
-178.3949995693877
  0
LINE
  5
204
100
AcDbEntity
  8
0
  6
ByLayer
 62
  256
370
   -1
100
AcDbLine
 10
132.273598
 20
-184.3949995693877
 11
132.080598
 21
-184.3949995693877
  0
LINE
  5
205
100
AcDbEntity
  8
0
  6
ByLayer
 62
  256
370
   -1
100
AcDbLine
 10
132.080598
 20
-184.3949995693877
 11
1.999538000000001
 21
-184.3949995693877
  0
LINE
  5
206
100
AcDbEntity
  8
0
  6
ByLayer
 62
  256
370
   -1
100
AcDbLine
 10
1.999538000000001
 20
-184.3949995693877
 11
1.805228
 21
-184.3949995693877
  0
LINE
  5
207
100
AcDbEntity
  8
0
  6
ByLayer
 62
  256
370
   -1
100
AcDbLine
 10
1.805228
 20
-184.3949995693877
 11
1.222318000000001
 21
-184.2369995693877
  0
LINE
  5
208
100
AcDbEntity
  8
0
  6
ByLayer
 62
  256
370
   -1
100
AcDbLine
 10
1.222318000000001
 20
-184.2369995693877
 11
0.5870429999999942
 21
-183.8069995693877
  0
LINE
  5
209
100
AcDbEntity
  8
0
  6
ByLayer
 62
  256
370
   -1
100
AcDbLine
 10
0.5870429999999942
 20
-183.8069995693877
 11
0.1570959999999957
 21
-183.1709995693876
  0
LINE
  5
20A
100
AcDbEntity
  8
0
  6
ByLayer
 62
  256
370
   -1
100
AcDbLine
 10
0.1570959999999957
 20
-183.1709995693876
 11
0
 21
-182.5879995693876
  0
LINE
  5
20B
100
AcDbEntity
  8
0
  6
ByLayer
 62
  256
370
   -1
100
AcDbLine
 10
0
 20
-182.5879995693876
 11
0
 21
-182.3949995693877
  0
LINE
  5
20C
100
AcDbEntity
  8
0
  6
ByLayer
 62
  256
370
   -1
100
AcDbLine
 10
132.273598
 20
-184.3949995693877
 11
132.080598
 21
-184.3949995693877
  0
LINE
  5
20D
100
AcDbEntity
  8
0
  6
ByLayer
 62
  256
370
   -1
100
AcDbLine
 10
135.081598
 20
-182.3949995693877
 11
135.081598
 21
-182.5879995693876
  0
LINE
  5
20E
100
AcDbEntity
  8
0
  6
ByLayer
 62
  256
370
   -1
100
AcDbLine
 10
135.081598
 20
-182.5879995693876
 11
134.923598
 21
-183.1709995693876
  0
LINE
  5
20F
100
AcDbEntity
  8
0
  6
ByLayer
 62
  256
370
   -1
100
AcDbLine
 10
134.923598
 20
-183.1709995693876
 11
134.493598
 21
-183.8069995693877
  0
LINE
  5
210
100
AcDbEntity
  8
0
  6
ByLayer
 62
  256
370
   -1
100
AcDbLine
 10
134.493598
 20
-183.8069995693877
 11
133.856598
 21
-184.2369995693877
  0
LINE
  5
211
100
AcDbEntity
  8
0
  6
ByLayer
 62
  256
370
   -1
100
AcDbLine
 10
133.856598
 20
-184.2369995693877
 11
133.273598
 21
-184.3949995693877
  0
LINE
  5
212
100
AcDbEntity
  8
0
  6
ByLayer
 62
  256
370
   -1
100
AcDbLine
 10
133.273598
 20
-184.3949995693877
 11
133.080598
 21
-184.3949995693877
  0
LINE
  5
213
100
AcDbEntity
  8
0
  6
ByLayer
 62
  256
370
   -1
100
AcDbLine
 10
132.273598
 20
-184.3949995693877
 11
133.080598
 21
-184.3949995693877
  0
CIRCLE
  5
214
100
AcDbEntity
  8
0
  6
ByLayer
 62
  256
370
   -1
100
AcDbCircle
 10
147.4086861999997
 20
-94.18502169307683
 40
1.1999976
  0
CIRCLE
  5
215
100
AcDbEntity
  8
0
  6
ByLayer
 62
  256
370
   -1
100
AcDbCircle
 10
108.5466861999999
 20
-92.02576769307694
 40
1.1999976
  0
CIRCLE
  5
216
100
AcDbEntity
  8
0
  6
ByLayer
 62
  256
370
   -1
100
AcDbCircle
 10
57.8736861999999
 20
-84.65976769307696
 40
1.1999976
  0
CIRCLE
  5
217
100
AcDbEntity
  8
0
  6
ByLayer
 62
  256
370
   -1
100
AcDbCircle
 10
19.26568619999989
 20
-92.27976769307693
 40
1.1999976
  0
CIRCLE
  5
218
100
AcDbEntity
  8
0
  6
ByLayer
 62
  256
370
   -1
100
AcDbCircle
 10
19.26568619999989
 20
-34.87576769307685
 40
1.1999976
  0
CIRCLE
  5
219
100
AcDbEntity
  8
0
  6
ByLayer
 62
  256
370
   -1
100
AcDbCircle
 10
57.36543219999987
 20
-49.09976769307696
 40
1.1999976
  0
CIRCLE
  5
21A
100
AcDbEntity
  8
0
  6
ByLayer
 62
  256
370
   -1
100
AcDbCircle
 10
114.5154575999998
 20
-32.33584389307686
 40
1.1999976
  0
CIRCLE
  5
21B
100
AcDbEntity
  8
0
  6
ByLayer
 62
  256
370
   -1
100
AcDbCircle
 10
51.160406
 20
-9.934619193076866
 40
1.1999976
  0
LINE
  5
21C
100
AcDbEntity
  8
0
  6
ByLayer
 62
  256
370
   -1
100
AcDbLine
 10
108.7684060000002
 20
-105.291411193077
 11
115.7538060000002
 21
-93.163411193077
  0
LINE
  5
21D
100
AcDbEntity
  8
0
  6
ByLayer
 62
  256
370
   -1
100
AcDbLine
 10
115.7538060000002
 20
-93.163411193077
 11
127.8819060000002
 21
-100.169411193077
  0
LINE
  5
21E
100
AcDbEntity
  8
0
  6
ByLayer
 62
  256
370
   -1
100
AcDbLine
 10
127.8819060000002
 20
-100.169411193077
 11
120.8758060000002
 21
-112.297411193077
  0
LINE
  5
21F
100
AcDbEntity
  8
0
  6
ByLayer
 62
  256
370
   -1
100
AcDbLine
 10
120.8758060000002
 20
-112.297411193077
 11
108.7684060000002
 21
-105.291411193077
  0
LINE
  5
220
100
AcDbEntity
  8
0
  6
ByLayer
 62
  256
370
   -1
100
AcDbLine
 10
130.0289680000001
 20
-106.5675071930769
 11
137.014368
 21
-94.43950719307689
  0
LINE
  5
221
100
AcDbEntity
  8
0
  6
ByLayer
 62
  256
370
   -1
100
AcDbLine
 10
137.014368
 20
-94.43950719307689
 11
149.1424680000001
 21
-101.4455071930769
  0
LINE
  5
222
100
AcDbEntity
  8
0
  6
ByLayer
 62
  256
370
   -1
100
AcDbLine
 10
149.1424680000001
 20
-101.4455071930769
 11
142.1363680000001
 21
-113.5735071930769
  0
LINE
  5
223
100
AcDbEntity
  8
0
  6
ByLayer
 62
  256
370
   -1
100
AcDbLine
 10
142.1363680000001
 20
-113.5735071930769
 11
130.0289680000001
 21
-106.5675071930769
  0
LINE
  5
224
100
AcDbEntity
  8
0
  6
ByLayer
 62
  256
370
   -1
100
AcDbLine
 10
120.5039680000002
 20
-123.065315193077
 11
127.4893680000002
 21
-110.937315193077
  0
LINE
  5
225
100
AcDbEntity
  8
0
  6
ByLayer
 62
  256
370
   -1
100
AcDbLine
 10
127.4893680000002
 20
-110.937315193077
 11
139.6174680000002
 21
-117.943315193077
  0
LINE
  5
226
100
AcDbEntity
  8
0
  6
ByLayer
 62
  256
370
   -1
100
AcDbLine
 10
139.6174680000002
 20
-117.943315193077
 11
132.6113680000002
 21
-130.071315193077
  0
CIRCLE
  5
227
100
AcDbEntity
  8
0
  6
ByLayer
 62
  256
370
   -1
100
AcDbCircle
 10
326.8699997889353
 20
-94.18502169307683
 40
1.1999976
  0
CIRCLE
  5
228
100
AcDbEntity
  8
0
  6
ByLayer
 62
  256
370
   -1
100
AcDbCircle
 10
288.0079997889354
 20
-92.02576769307694
 40
1.1999976
  0
CIRCLE
  5
229
100
AcDbEntity
  8
0
  6
ByLayer
 62
  256
370
   -1
100
AcDbCircle
 10
237.3349997889354
 20
-84.65976769307696
 40
1.1999976
  0
CIRCLE
  5
22A
100
AcDbEntity
  8
0
  6
ByLayer
 62
  256
370
   -1
100
AcDbCircle
 10
198.7269997889354
 20
-92.27976769307693
 40
1.1999976
  0
CIRCLE
  5
22B
100
AcDbEntity
  8
0
  6
ByLayer
 62
  256
370
   -1
100
AcDbCircle
 10
198.7269997889354
 20
-34.87576769307685
 40
1.1999976
  0
CIRCLE
  5
22C
100
AcDbEntity
  8
0
  6
ByLayer
 62
  256
370
   -1
100
AcDbCircle
 10
236.8267457889354
 20
-49.09976769307696
 40
1.1999976
  0
CIRCLE
  5
22D
100
AcDbEntity
  8
0
  6
ByLayer
 62
  256
370
   -1
100
AcDbCircle
 10
293.9767711889353
 20
-32.33584389307687
 40
1.1999976
  0
CIRCLE
  5
22E
100
AcDbEntity
  8
0
  6
ByLayer
 62
  256
370
   -1
100
AcDbCircle
 10
230.6217195889355
 20
-9.93461919307687
 40
1.1999976
  0
CIRCLE
  5
22F
100
AcDbEntity
  8
0
  6
ByLayer
 62
  256
370
   -1
100
AcDbCircle
 10
198.7269997889354
 20
-175.0466520693877
 40
1.1999976
  0
CIRCLE
  5
230
100
AcDbEntity
  8
0
  6
ByLayer
 62
  256
370
   -1
100
AcDbCircle
 10
293.9767711889353
 20
-172.5067282693877
 40
1.1999976
  0
CIRCLE
  5
231
100
AcDbEntity
  8
0
  6
ByLayer
 62
  256
370
   -1
100
AcDbCircle
 10
230.6217195889355
 20
-150.1055035693877
 40
1.1999976
  0
CIRCLE
  5
232
100
AcDbEntity
  8
0
  6
ByLayer
 62
  256
370
   -1
100
AcDbCircle
 10
19.26568619999992
 20
-175.0466520693877
 40
1.1999976
  0
CIRCLE
  5
233
100
AcDbEntity
  8
0
  6
ByLayer
 62
  256
370
   -1
100
AcDbCircle
 10
114.5154575999998
 20
-172.5067282693877
 40
1.1999976
  0
CIRCLE
  5
234
100
AcDbEntity
  8
0
  6
ByLayer
 62
  256
370
   -1
100
AcDbCircle
 10
51.16040600000002
 20
-150.1055035693877
 40
1.1999976
  0
CIRCLE
  5
235
100
AcDbEntity
  8
0
  6
ByLayer
 62
  256
370
   -1
100
AcDbCircle
 10
198.8681366124495
 20
-378.4867190007428
 40
1.1999976
  0
CIRCLE
  5
236
100
AcDbEntity
  8
0
  6
ByLayer
 62
  256
370
   -1
100
AcDbCircle
 10
294.1179080124494
 20
-375.9467952007428
 40
1.1999976
  0
CIRCLE
  5
237
100
AcDbEntity
  8
0
  6
ByLayer
 62
  256
370
   -1
100
AcDbCircle
 10
230.7628564124497
 20
-353.5455705007428
 40
1.1999976
  0
CIRCLE
  5
238
100
AcDbEntity
  8
0
  6
ByLayer
 62
  256
370
   -1
100
AcDbCircle
 10
236.9678826124495
 20
-392.7107190007429
 40
1.1999976
  0
LINE
  5
239
100
AcDbEntity
  8
0
  6
ByLayer
 62
  256
370
   -1
100
AcDbLine
 10
0.1411368235140458
 20
-381.835066500743
 11
0.1411368235140458
 21
-360.7950665007428
  0
LINE
  5
23A
100
AcDbEntity
  8
0
  6
ByLayer
 62
  256
370
   -1
100
AcDbLine
 10
0.1411368235140458
 20
-360.7950665007428
 11
0.1411368235140458
 21
-360.5920665007429
  0
LINE
  5
23B
100
AcDbEntity
  8
0
  6
ByLayer
 62
  256
370
   -1
100
AcDbLine
 10
0.1411368235140458
 20
-360.5920665007429
 11
0.294098823514048
 21
-359.984066500743
  0
LINE
  5
23C
100
AcDbEntity
  8
0
  6
ByLayer
 62
  256
370
   -1
100
AcDbLine
 10
0.294098823514048
 20
-359.984066500743
 11
0.7130208235140572
 21
-359.2530665007429
  0
LINE
  5
23D
100
AcDbEntity
  8
0
  6
ByLayer
 62
  256
370
   -1
100
AcDbLine
 10
0.7130208235140572
 20
-359.2530665007429
 11
1.334514823514041
 21
-358.684066500743
  0
LINE
  5
23E
100
AcDbEntity
  8
0
  6
ByLayer
 62
  256
370
   -1
100
AcDbLine
 10
1.334514823514041
 20
-358.684066500743
 11
1.894004823514052
 21
-358.4000665007429
  0
LINE
  5
23F
100
AcDbEntity
  8
0
  6
ByLayer
 62
  256
370
   -1
100
AcDbLine
 10
1.894004823514052
 20
-358.4000665007429
 11
2.092434823514054
 21
-358.3560665007429
  0
LINE
  5
240
100
AcDbEntity
  8
0
  6
ByLayer
 62
  256
370
   -1
100
AcDbLine
 10
106.5447348235141
 20
-353.4430665007429
 11
106.7277348235141
 21
-353.5720665007428
  0
LINE
  5
241
100
AcDbEntity
  8
0
  6
ByLayer
 62
  256
370
   -1
100
AcDbLine
 10
106.7277348235141
 20
-353.5720665007428
 11
107.3357348235141
 21
-353.8900665007428
  0
LINE
  5
242
100
AcDbEntity
  8
0
  6
ByLayer
 62
  256
370
   -1
100
AcDbLine
 10
107.3357348235141
 20
-353.8900665007428
 11
108.285734823514
 21
-354.2570665007428
  0
LINE
  5
243
100
AcDbEntity
  8
0
  6
ByLayer
 62
  256
370
   -1
100
AcDbLine
 10
108.285734823514
 20
-354.2570665007428
 11
109.273734823514
 21
-354.5050665007429
  0
LINE
  5
244
100
AcDbEntity
  8
0
  6
ByLayer
 62
  256
370
   -1
100
AcDbLine
 10
109.273734823514
 20
-354.5050665007429
 11
109.951734823514
 21
-354.5970665007429
  0
LINE
  5
245
100
AcDbEntity
  8
0
  6
ByLayer
 62
  256
370
   -1
100
AcDbLine
 10
109.951734823514
 20
-354.5970665007429
 11
110.178734823514
 21
-354.5970665007429
  0
LINE
  5
246
100
AcDbEntity
  8
0
  6
ByLayer
 62
  256
370
   -1
100
AcDbLine
 10
110.178734823514
 20
-354.5970665007429
 11
124.178734823514
 21
-354.5970665007429
  0
LINE
  5
247
100
AcDbEntity
  8
0
  6
ByLayer
 62
  256
370
   -1
100
AcDbLine
 10
124.178734823514
 20
-354.5970665007429
 11
124.392734823514
 21
-354.5970665007429
  0
LINE
  5
248
100
AcDbEntity
  8
0
  6
ByLayer
 62
  256
370
   -1
100
AcDbLine
 10
135.2227348235141
 20
-368.535066500743
 11
135.2227348235141
 21
-381.835066500743
  0
LINE
  5
249
100
AcDbEntity
  8
0
  6
ByLayer
 62
  256
370
   -1
100
AcDbLine
 10
125.178734823514
 20
-354.5970665007429
 11
125.392734823514
 21
-354.5970665007429
  0
LINE
  5
24A
100
AcDbEntity
  8
0
  6
ByLayer
 62
  256
370
   -1
100
AcDbLine
 10
125.392734823514
 20
-354.5970665007429
 11
126.0427348235141
 21
-354.7270665007429
  0
LINE
  5
24B
100
AcDbEntity
  8
0
  6
ByLayer
 62
  256
370
   -1
100
AcDbLine
 10
126.0427348235141
 20
-354.7270665007429
 11
126.918734823514
 21
-355.0840665007428
  0
LINE
  5
24C
100
AcDbEntity
  8
0
  6
ByLayer
 62
  256
370
   -1
100
AcDbLine
 10
126.918734823514
 20
-355.0840665007428
 11
127.702734823514
 21
-355.6100665007428
  0
LINE
  5
24D
100
AcDbEntity
  8
0
  6
ByLayer
 62
  256
370
   -1
100
AcDbLine
 10
127.702734823514
 20
-355.6100665007428
 11
128.173734823514
 21
-356.0750665007429
  0
LINE
  5
24E
100
AcDbEntity
  8
0
  6
ByLayer
 62
  256
370
   -1
100
AcDbLine
 10
128.173734823514
 20
-356.0750665007429
 11
128.295734823514
 21
-356.2550665007429
  0
LINE
  5
24F
100
AcDbEntity
  8
0
  6
ByLayer
 62
  256
370
   -1
100
AcDbLine
 10
128.295734823514
 20
-356.2550665007429
 11
134.105734823514
 21
-364.8770665007428
  0
LINE
  5
250
100
AcDbEntity
  8
0
  6
ByLayer
 62
  256
370
   -1
100
AcDbLine
 10
134.105734823514
 20
-364.8770665007428
 11
134.230734823514
 21
-365.0650665007429
  0
LINE
  5
251
100
AcDbEntity
  8
0
  6
ByLayer
 62
  256
370
   -1
100
AcDbLine
 10
134.230734823514
 20
-365.0650665007429
 11
134.5377348235141
 21
-365.6780665007428
  0
LINE
  5
252
100
AcDbEntity
  8
0
  6
ByLayer
 62
  256
370
   -1
100
AcDbLine
 10
134.5377348235141
 20
-365.6780665007428
 11
134.8937348235141
 21
-366.6340665007428
  0
LINE
  5
253
100
AcDbEntity
  8
0
  6
ByLayer
 62
  256
370
   -1
100
AcDbLine
 10
134.8937348235141
 20
-366.6340665007428
 11
135.134734823514
 21
-367.6270665007428
  0
LINE
  5
254
100
AcDbEntity
  8
0
  6
ByLayer
 62
  256
370
   -1
100
AcDbLine
 10
135.134734823514
 20
-367.6270665007428
 11
135.2227348235141
 21
-368.3070665007427
  0
LINE
  5
255
100
AcDbEntity
  8
0
  6
ByLayer
 62
  256
370
   -1
100
AcDbLine
 10
135.2227348235141
 20
-368.3070665007427
 11
135.2227348235141
 21
-368.535066500743
  0
LINE
  5
256
100
AcDbEntity
  8
0
  6
ByLayer
 62
  256
370
   -1
100
AcDbLine
 10
135.2227348235141
 20
-368.535066500743
 11
135.2227348235141
 21
-381.835066500743
  0
LINE
  5
257
100
AcDbEntity
  8
0
  6
ByLayer
 62
  256
370
   -1
100
AcDbLine
 10
125.178734823514
 20
-354.5970665007429
 11
124.392734823514
 21
-354.5970665007429
  0
LINE
  5
258
100
AcDbEntity
  8
0
  6
ByLayer
 62
  256
370
   -1
100
AcDbLine
 10
132.221734823514
 20
-398.835066500743
 11
2.140674823514047
 21
-398.835066500743
  0
LINE
  5
259
100
AcDbEntity
  8
0
  6
ByLayer
 62
  256
370
   -1
100
AcDbLine
 10
132.4147348235141
 20
-398.835066500743
 11
132.221734823514
 21
-398.835066500743
  0
LINE
  5
25A
100
AcDbEntity
  8
0
  6
ByLayer
 62
  256
370
   -1
100
AcDbLine
 10
135.2227348235141
 20
-396.835066500743
 11
135.2227348235141
 21
-397.0280665007427
  0
LINE
  5
25B
100
AcDbEntity
  8
0
  6
ByLayer
 62
  256
370
   -1
100
AcDbLine
 10
135.2227348235141
 20
-397.0280665007427
 11
135.064734823514
 21
-397.6110665007428
  0
LINE
  5
25C
100
AcDbEntity
  8
0
  6
ByLayer
 62
  256
370
   -1
100
AcDbLine
 10
135.064734823514
 20
-397.6110665007428
 11
134.634734823514
 21
-398.2470665007428
  0
LINE
  5
25D
100
AcDbEntity
  8
0
  6
ByLayer
 62
  256
370
   -1
100
AcDbLine
 10
134.634734823514
 20
-398.2470665007428
 11
133.997734823514
 21
-398.677066500743
  0
LINE
  5
25E
100
AcDbEntity
  8
0
  6
ByLayer
 62
  256
370
   -1
100
AcDbLine
 10
133.997734823514
 20
-398.677066500743
 11
133.4147348235141
 21
-398.835066500743
  0
LINE
  5
25F
100
AcDbEntity
  8
0
  6
ByLayer
 62
  256
370
   -1
100
AcDbLine
 10
133.4147348235141
 20
-398.835066500743
 11
133.221734823514
 21
-398.835066500743
  0
LINE
  5
260
100
AcDbEntity
  8
0
  6
ByLayer
 62
  256
370
   -1
100
AcDbLine
 10
132.4147348235141
 20
-398.835066500743
 11
133.221734823514
 21
-398.835066500743
  0
LINE
  5
261
100
AcDbEntity
  8
0
  6
ByLayer
 62
  256
370
   -1
100
AcDbLine
 10
132.4147348235141
 20
-398.835066500743
 11
132.221734823514
 21
-398.835066500743
  0
LINE
  5
262
100
AcDbEntity
  8
0
  6
ByLayer
 62
  256
370
   -1
100
AcDbLine
 10
135.2227348235141
 20
-396.835066500743
 11
135.2227348235141
 21
-397.0280665007427
  0
LINE
  5
263
100
AcDbEntity
  8
0
  6
ByLayer
 62
  256
370
   -1
100
AcDbLine
 10
135.2227348235141
 20
-397.0280665007427
 11
135.064734823514
 21
-397.6110665007428
  0
LINE
  5
264
100
AcDbEntity
  8
0
  6
ByLayer
 62
  256
370
   -1
100
AcDbLine
 10
135.064734823514
 20
-397.6110665007428
 11
134.634734823514
 21
-398.2470665007428
  0
LINE
  5
265
100
AcDbEntity
  8
0
  6
ByLayer
 62
  256
370
   -1
100
AcDbLine
 10
134.634734823514
 20
-398.2470665007428
 11
133.997734823514
 21
-398.677066500743
  0
LINE
  5
266
100
AcDbEntity
  8
0
  6
ByLayer
 62
  256
370
   -1
100
AcDbLine
 10
133.997734823514
 20
-398.677066500743
 11
133.4147348235141
 21
-398.835066500743
  0
LINE
  5
267
100
AcDbEntity
  8
0
  6
ByLayer
 62
  256
370
   -1
100
AcDbLine
 10
133.4147348235141
 20
-398.835066500743
 11
133.221734823514
 21
-398.835066500743
  0
LINE
  5
268
100
AcDbEntity
  8
0
  6
ByLayer
 62
  256
370
   -1
100
AcDbLine
 10
132.4147348235141
 20
-398.835066500743
 11
133.221734823514
 21
-398.835066500743
  0
LINE
  5
269
100
AcDbEntity
  8
0
  6
ByLayer
 62
  256
370
   -1
100
AcDbLine
 10
2.140674823514047
 20
-398.835066500743
 11
1.946364823514045
 21
-398.835066500743
  0
LINE
  5
26A
100
AcDbEntity
  8
0
  6
ByLayer
 62
  256
370
   -1
100
AcDbLine
 10
1.946364823514045
 20
-398.835066500743
 11
1.363454823514047
 21
-398.677066500743
  0
LINE
  5
26B
100
AcDbEntity
  8
0
  6
ByLayer
 62
  256
370
   -1
100
AcDbLine
 10
1.363454823514047
 20
-398.677066500743
 11
0.72817982351404
 21
-398.2470665007428
  0
LINE
  5
26C
100
AcDbEntity
  8
0
  6
ByLayer
 62
  256
370
   -1
100
AcDbLine
 10
0.72817982351404
 20
-398.2470665007428
 11
0.2982328235140415
 21
-397.6110665007428
  0
LINE
  5
26D
100
AcDbEntity
  8
0
  6
ByLayer
 62
  256
370
   -1
100
AcDbLine
 10
0.2982328235140415
 20
-397.6110665007428
 11
0.1411368235140458
 21
-397.0280665007427
  0
LINE
  5
26E
100
AcDbEntity
  8
0
  6
ByLayer
 62
  256
370
   -1
100
AcDbLine
 10
0.1411368235140458
 20
-397.0280665007427
 11
0.1411368235140458
 21
-396.835066500743
  0
LINE
  5
26F
100
AcDbEntity
  8
0
  6
ByLayer
 62
  256
370
   -1
100
AcDbLine
 10
135.2227348235141
 20
-381.835066500743
 11
135.2227348235141
 21
-396.835066500743
  0
LINE
  5
270
100
AcDbEntity
  8
0
  6
ByLayer
 62
  256
370
   -1
100
AcDbLine
 10
0.1411368235140458
 20
-381.835066500743
 11
0.1411368235140458
 21
-396.835066500743
  0
LINE
  5
271
100
AcDbEntity
  8
0
  6
ByLayer
 62
  256
370
   -1
100
AcDbLine
 10
2.092434823514054
 20
-358.3560665007429
 11
54.25963682351406
 21
-346.6303853278667
  0
LINE
  5
272
100
AcDbEntity
  8
0
  6
ByLayer
 62
  256
370
   -1
100
AcDbLine
 10
98.89963682351404
 20
-348.0332248800848
 11
106.5447348235141
 21
-353.4430665007429
  0
LINE
  5
273
100
AcDbEntity
  8
0
  6
ByLayer
 62
  256
370
   -1
100
AcDbLine
 10
54.25963682351406
 20
-385.9720485510924
 11
98.89963682351404
 21
-385.9720485510924
  0
LINE
  5
274
100
AcDbEntity
  8
0
  6
ByLayer
 62
  256
370
   -1
100
AcDbLine
 10
54.25963682351406
 20
-385.9720485510924
 11
54.25963682351406
 21
-346.6294032775173
  0
LINE
  5
275
100
AcDbEntity
  8
0
  6
ByLayer
 62
  256
370
   -1
100
AcDbLine
 10
98.89963682351404
 20
-385.9720485510924
 11
98.89963682351404
 21
-348.0328621308964
  0
CIRCLE
  5
276
100
AcDbEntity
  8
0
  6
ByLayer
 62
  256
370
   -1
100
AcDbCircle
 10
19.40682302351399
 20
-378.4867190007429
 40
1.1999976
  0
CIRCLE
  5
277
100
AcDbEntity
  8
0
  6
ByLayer
 62
  256
370
   -1
100
AcDbCircle
 10
114.6565944235139
 20
-375.9467952007429
 40
1.1999976
  0
CIRCLE
  5
278
100
AcDbEntity
  8
0
  6
ByLayer
 62
  256
370
   -1
100
AcDbCircle
 10
51.3015428235141
 20
-353.5455705007429
 40
1.1999976
  0
CIRCLE
  5
279
100
AcDbEntity
  8
0
  6
ByLayer
 62
  256
370
   -1
100
AcDbCircle
 10
57.50656902351398
 20
-392.710719000743
 40
1.1999976
  0
LINE
  5
27A
100
AcDbEntity
  8
0
  6
ByLayer
 62
  256
370
   -1
100
AcDbLine
 10
40.857498
 20
-276.7900978923499
 11
54.869498
 21
-276.7900978923499
  0
LINE
  5
27B
100
AcDbEntity
  8
0
  6
ByLayer
 62
  256
370
   -1
100
AcDbLine
 10
54.869498
 20
-276.7900978923499
 11
54.869498
 21
-290.8030978923499
  0
LINE
  5
27C
100
AcDbEntity
  8
0
  6
ByLayer
 62
  256
370
   -1
100
AcDbLine
 10
54.869498
 20
-290.8030978923499
 11
40.857498
 21
-290.8030978923499
  0
LINE
  5
27D
100
AcDbEntity
  8
0
  6
ByLayer
 62
  256
370
   -1
100
AcDbLine
 10
40.857498
 20
-290.8030978923499
 11
40.857498
 21
-276.7900978923499
  0
LINE
  5
27E
100
AcDbEntity
  8
0
  6
ByLayer
 62
  256
370
   -1
100
AcDbLine
 10
40.857498
 20
-257.7400978923499
 11
54.869498
 21
-257.7400978923499
  0
LINE
  5
27F
100
AcDbEntity
  8
0
  6
ByLayer
 62
  256
370
   -1
100
AcDbLine
 10
54.869498
 20
-257.7400978923499
 11
54.869498
 21
-271.7530978923499
  0
LINE
  5
280
100
AcDbEntity
  8
0
  6
ByLayer
 62
  256
370
   -1
100
AcDbLine
 10
54.869498
 20
-271.7530978923499
 11
40.857498
 21
-271.7530978923499
  0
LINE
  5
281
100
AcDbEntity
  8
0
  6
ByLayer
 62
  256
370
   -1
100
AcDbLine
 10
40.857498
 20
-271.7530978923499
 11
40.857498
 21
-257.7400978923499
  0
LINE
  5
282
100
AcDbEntity
  8
0
  6
ByLayer
 62
  256
370
   -1
100
AcDbLine
 10
2.756078000000002
 20
-281.5530978923499
 11
16.769298
 21
-281.5530978923499
  0
LINE
  5
283
100
AcDbEntity
  8
0
  6
ByLayer
 62
  256
370
   -1
100
AcDbLine
 10
16.769298
 20
-281.5530978923499
 11
16.769298
 21
-295.5660978923498
  0
LINE
  5
284
100
AcDbEntity
  8
0
  6
ByLayer
 62
  256
370
   -1
100
AcDbLine
 10
16.769298
 20
-295.5660978923498
 11
2.756078000000002
 21
-295.5660978923498
  0
LINE
  5
285
100
AcDbEntity
  8
0
  6
ByLayer
 62
  256
370
   -1
100
AcDbLine
 10
2.756078000000002
 20
-295.5660978923498
 11
2.756078000000002
 21
-281.5530978923499
  0
LINE
  5
286
100
AcDbEntity
  8
0
  6
ByLayer
 62
  256
370
   -1
100
AcDbLine
 10
2.756078000000002
 20
-224.4030978923499
 11
16.769298
 21
-224.4030978923499
  0
LINE
  5
287
100
AcDbEntity
  8
0
  6
ByLayer
 62
  256
370
   -1
100
AcDbLine
 10
16.769298
 20
-224.4030978923499
 11
16.769298
 21
-238.4160978923499
  0
LINE
  5
288
100
AcDbEntity
  8
0
  6
ByLayer
 62
  256
370
   -1
100
AcDbLine
 10
16.769298
 20
-238.4160978923499
 11
2.756078000000002
 21
-238.4160978923499
  0
LINE
  5
289
100
AcDbEntity
  8
0
  6
ByLayer
 62
  256
370
   -1
100
AcDbLine
 10
2.756078000000002
 20
-238.4160978923499
 11
2.756078000000002
 21
-224.4030978923499
  0
LINE
  5
28A
100
AcDbEntity
  8
0
  6
ByLayer
 62
  256
370
   -1
100
AcDbLine
 10
98.00749800000001
 20
-222.0320978923499
 11
112.019598
 21
-222.0320978923499
  0
LINE
  5
28B
100
AcDbEntity
  8
0
  6
ByLayer
 62
  256
370
   -1
100
AcDbLine
 10
112.019598
 20
-222.0320978923499
 11
112.019598
 21
-236.0230978923499
  0
LINE
  5
28C
100
AcDbEntity
  8
0
  6
ByLayer
 62
  256
370
   -1
100
AcDbLine
 10
112.019598
 20
-236.0230978923499
 11
98.00749800000001
 21
-236.0230978923499
  0
LINE
  5
28D
100
AcDbEntity
  8
0
  6
ByLayer
 62
  256
370
   -1
100
AcDbLine
 10
98.00749800000001
 20
-236.0230978923499
 11
98.00749800000001
 21
-222.0320978923499
  0
LINE
  5
28E
100
AcDbEntity
  8
0
  6
ByLayer
 62
  256
370
   -1
100
AcDbLine
 10
2.756078000000002
 20
-243.4530978923499
 11
16.769298
 21
-243.4530978923499
  0
LINE
  5
28F
100
AcDbEntity
  8
0
  6
ByLayer
 62
  256
370
   -1
100
AcDbLine
 10
16.769298
 20
-243.4530978923499
 11
16.769298
 21
-257.4660978923499
  0
LINE
  5
290
100
AcDbEntity
  8
0
  6
ByLayer
 62
  256
370
   -1
100
AcDbLine
 10
16.769298
 20
-257.4660978923499
 11
2.756078000000002
 21
-257.4660978923499
  0
LINE
  5
291
100
AcDbEntity
  8
0
  6
ByLayer
 62
  256
370
   -1
100
AcDbLine
 10
2.756078000000002
 20
-257.4660978923499
 11
2.756078000000002
 21
-243.4530978923499
  0
LINE
  5
292
100
AcDbEntity
  8
0
  6
ByLayer
 62
  256
370
   -1
100
AcDbLine
 10
2.756078000000002
 20
-262.5030978923499
 11
16.769298
 21
-262.5030978923499
  0
LINE
  5
293
100
AcDbEntity
  8
0
  6
ByLayer
 62
  256
370
   -1
100
AcDbLine
 10
16.769298
 20
-262.5030978923499
 11
16.769298
 21
-276.5160978923499
  0
LINE
  5
294
100
AcDbEntity
  8
0
  6
ByLayer
 62
  256
370
   -1
100
AcDbLine
 10
16.769298
 20
-276.5160978923499
 11
2.756078000000002
 21
-276.5160978923499
  0
LINE
  5
295
100
AcDbEntity
  8
0
  6
ByLayer
 62
  256
370
   -1
100
AcDbLine
 10
2.756078000000002
 20
-276.5160978923499
 11
2.756078000000002
 21
-262.5030978923499
  0
LINE
  5
296
100
AcDbEntity
  8
0
  6
ByLayer
 62
  256
370
   -1
100
AcDbLine
 10
21.807498
 20
-224.4030978923499
 11
35.819498
 21
-224.4030978923499
  0
LINE
  5
297
100
AcDbEntity
  8
0
  6
ByLayer
 62
  256
370
   -1
100
AcDbLine
 10
35.819498
 20
-224.4030978923499
 11
35.819498
 21
-238.4160978923499
  0
LINE
  5
298
100
AcDbEntity
  8
0
  6
ByLayer
 62
  256
370
   -1
100
AcDbLine
 10
35.819498
 20
-238.4160978923499
 11
21.807498
 21
-238.4160978923499
  0
LINE
  5
299
100
AcDbEntity
  8
0
  6
ByLayer
 62
  256
370
   -1
100
AcDbLine
 10
21.807498
 20
-238.4160978923499
 11
21.807498
 21
-224.4030978923499
  0
LINE
  5
29A
100
AcDbEntity
  8
0
  6
ByLayer
 62
  256
370
   -1
100
AcDbLine
 10
21.807498
 20
-243.4530978923499
 11
35.819498
 21
-243.4530978923499
  0
LINE
  5
29B
100
AcDbEntity
  8
0
  6
ByLayer
 62
  256
370
   -1
100
AcDbLine
 10
35.819498
 20
-243.4530978923499
 11
35.819498
 21
-257.4660978923499
  0
LINE
  5
29C
100
AcDbEntity
  8
0
  6
ByLayer
 62
  256
370
   -1
100
AcDbLine
 10
35.819498
 20
-257.4660978923499
 11
21.807498
 21
-257.4660978923499
  0
LINE
  5
29D
100
AcDbEntity
  8
0
  6
ByLayer
 62
  256
370
   -1
100
AcDbLine
 10
21.807498
 20
-257.4660978923499
 11
21.807498
 21
-243.4530978923499
  0
LINE
  5
29E
100
AcDbEntity
  8
0
  6
ByLayer
 62
  256
370
   -1
100
AcDbLine
 10
21.807498
 20
-262.5030978923499
 11
35.819498
 21
-262.5030978923499
  0
LINE
  5
29F
100
AcDbEntity
  8
0
  6
ByLayer
 62
  256
370
   -1
100
AcDbLine
 10
35.819498
 20
-262.5030978923499
 11
35.819498
 21
-276.5160978923499
  0
LINE
  5
2A0
100
AcDbEntity
  8
0
  6
ByLayer
 62
  256
370
   -1
100
AcDbLine
 10
35.819498
 20
-276.5160978923499
 11
21.807498
 21
-276.5160978923499
  0
LINE
  5
2A1
100
AcDbEntity
  8
0
  6
ByLayer
 62
  256
370
   -1
100
AcDbLine
 10
21.807498
 20
-276.5160978923499
 11
21.807498
 21
-262.5030978923499
  0
LINE
  5
2A2
100
AcDbEntity
  8
0
  6
ByLayer
 62
  256
370
   -1
100
AcDbLine
 10
21.807498
 20
-281.5530978923499
 11
35.819498
 21
-281.5530978923499
  0
LINE
  5
2A3
100
AcDbEntity
  8
0
  6
ByLayer
 62
  256
370
   -1
100
AcDbLine
 10
35.819498
 20
-281.5530978923499
 11
35.819498
 21
-295.5660978923498
  0
LINE
  5
2A4
100
AcDbEntity
  8
0
  6
ByLayer
 62
  256
370
   -1
100
AcDbLine
 10
35.819498
 20
-295.5660978923498
 11
21.807498
 21
-295.5660978923498
  0
LINE
  5
2A5
100
AcDbEntity
  8
0
  6
ByLayer
 62
  256
370
   -1
100
AcDbLine
 10
21.807498
 20
-295.5660978923498
 11
21.807498
 21
-281.5530978923499
  0
LINE
  5
2A6
100
AcDbEntity
  8
0
  6
ByLayer
 62
  256
370
   -1
100
AcDbLine
 10
40.856098
 20
-219.6400978923499
 11
54.869498
 21
-219.6400978923499
  0
LINE
  5
2A7
100
AcDbEntity
  8
0
  6
ByLayer
 62
  256
370
   -1
100
AcDbLine
 10
54.869498
 20
-219.6400978923499
 11
54.869498
 21
-233.6530978923499
  0
LINE
  5
2A8
100
AcDbEntity
  8
0
  6
ByLayer
 62
  256
370
   -1
100
AcDbLine
 10
54.869498
 20
-233.6530978923499
 11
40.856098
 21
-233.6530978923499
  0
LINE
  5
2A9
100
AcDbEntity
  8
0
  6
ByLayer
 62
  256
370
   -1
100
AcDbLine
 10
40.856098
 20
-233.6530978923499
 11
40.856098
 21
-219.6400978923499
  0
LINE
  5
2AA
100
AcDbEntity
  8
0
  6
ByLayer
 62
  256
370
   -1
100
AcDbLine
 10
40.856098
 20
-238.6900978923499
 11
54.869498
 21
-238.6900978923499
  0
LINE
  5
2AB
100
AcDbEntity
  8
0
  6
ByLayer
 62
  256
370
   -1
100
AcDbLine
 10
54.869498
 20
-238.6900978923499
 11
54.869498
 21
-252.7030978923499
  0
LINE
  5
2AC
100
AcDbEntity
  8
0
  6
ByLayer
 62
  256
370
   -1
100
AcDbLine
 10
54.869498
 20
-252.7030978923499
 11
40.856098
 21
-252.7030978923499
  0
LINE
  5
2AD
100
AcDbEntity
  8
0
  6
ByLayer
 62
  256
370
   -1
100
AcDbLine
 10
40.856098
 20
-252.7030978923499
 11
40.856098
 21
-238.6900978923499
  0
LINE
  5
2AE
100
AcDbEntity
  8
0
  6
ByLayer
 62
  256
370
   -1
100
AcDbLine
 10
59.907498
 20
-217.2700978923499
 11
73.919498
 21
-217.2700978923499
  0
LINE
  5
2AF
100
AcDbEntity
  8
0
  6
ByLayer
 62
  256
370
   -1
100
AcDbLine
 10
73.919498
 20
-217.2700978923499
 11
73.919498
 21
-231.2610978923499
  0
LINE
  5
2B0
100
AcDbEntity
  8
0
  6
ByLayer
 62
  256
370
   -1
100
AcDbLine
 10
73.919498
 20
-231.2610978923499
 11
59.907498
 21
-231.2610978923499
  0
LINE
  5
2B1
100
AcDbEntity
  8
0
  6
ByLayer
 62
  256
370
   -1
100
AcDbLine
 10
59.907498
 20
-231.2610978923499
 11
59.907498
 21
-217.2700978923499
  0
LINE
  5
2B2
100
AcDbEntity
  8
0
  6
ByLayer
 62
  256
370
   -1
100
AcDbLine
 10
59.907498
 20
-236.3200978923498
 11
73.919498
 21
-236.3200978923498
  0
LINE
  5
2B3
100
AcDbEntity
  8
0
  6
ByLayer
 62
  256
370
   -1
100
AcDbLine
 10
73.919498
 20
-236.3200978923498
 11
73.919498
 21
-250.3110978923499
  0
LINE
  5
2B4
100
AcDbEntity
  8
0
  6
ByLayer
 62
  256
370
   -1
100
AcDbLine
 10
73.919498
 20
-250.3110978923499
 11
59.907498
 21
-250.3110978923499
  0
LINE
  5
2B5
100
AcDbEntity
  8
0
  6
ByLayer
 62
  256
370
   -1
100
AcDbLine
 10
59.907498
 20
-250.3110978923499
 11
59.907498
 21
-236.3200978923498
  0
LINE
  5
2B6
100
AcDbEntity
  8
0
  6
ByLayer
 62
  256
370
   -1
100
AcDbLine
 10
59.907498
 20
-255.3700978923499
 11
73.919498
 21
-255.3700978923499
  0
LINE
  5
2B7
100
AcDbEntity
  8
0
  6
ByLayer
 62
  256
370
   -1
100
AcDbLine
 10
73.919498
 20
-255.3700978923499
 11
73.919498
 21
-269.3610978923498
  0
LINE
  5
2B8
100
AcDbEntity
  8
0
  6
ByLayer
 62
  256
370
   -1
100
AcDbLine
 10
73.919498
 20
-269.3610978923498
 11
59.907498
 21
-269.3610978923498
  0
LINE
  5
2B9
100
AcDbEntity
  8
0
  6
ByLayer
 62
  256
370
   -1
100
AcDbLine
 10
59.907498
 20
-269.3610978923498
 11
59.907498
 21
-255.3700978923499
  0
LINE
  5
2BA
100
AcDbEntity
  8
0
  6
ByLayer
 62
  256
370
   -1
100
AcDbLine
 10
59.907498
 20
-274.4200978923499
 11
73.919498
 21
-274.4200978923499
  0
LINE
  5
2BB
100
AcDbEntity
  8
0
  6
ByLayer
 62
  256
370
   -1
100
AcDbLine
 10
73.919498
 20
-274.4200978923499
 11
73.919498
 21
-288.4110978923499
  0
LINE
  5
2BC
100
AcDbEntity
  8
0
  6
ByLayer
 62
  256
370
   -1
100
AcDbLine
 10
73.919498
 20
-288.4110978923499
 11
59.907498
 21
-288.4110978923499
  0
LINE
  5
2BD
100
AcDbEntity
  8
0
  6
ByLayer
 62
  256
370
   -1
100
AcDbLine
 10
59.907498
 20
-288.4110978923499
 11
59.907498
 21
-274.4200978923499
  0
LINE
  5
2BE
100
AcDbEntity
  8
0
  6
ByLayer
 62
  256
370
   -1
100
AcDbLine
 10
78.957498
 20
-219.6400978923499
 11
92.969498
 21
-219.6400978923499
  0
LINE
  5
2BF
100
AcDbEntity
  8
0
  6
ByLayer
 62
  256
370
   -1
100
AcDbLine
 10
92.969498
 20
-219.6400978923499
 11
92.969498
 21
-233.6530978923499
  0
LINE
  5
2C0
100
AcDbEntity
  8
0
  6
ByLayer
 62
  256
370
   -1
100
AcDbLine
 10
92.969498
 20
-233.6530978923499
 11
78.957498
 21
-233.6530978923499
  0
LINE
  5
2C1
100
AcDbEntity
  8
0
  6
ByLayer
 62
  256
370
   -1
100
AcDbLine
 10
78.957498
 20
-233.6530978923499
 11
78.957498
 21
-219.6400978923499
  0
LINE
  5
2C2
100
AcDbEntity
  8
0
  6
ByLayer
 62
  256
370
   -1
100
AcDbLine
 10
78.957498
 20
-238.6900978923499
 11
92.969498
 21
-238.6900978923499
  0
LINE
  5
2C3
100
AcDbEntity
  8
0
  6
ByLayer
 62
  256
370
   -1
100
AcDbLine
 10
92.969498
 20
-238.6900978923499
 11
92.969498
 21
-252.7030978923499
  0
LINE
  5
2C4
100
AcDbEntity
  8
0
  6
ByLayer
 62
  256
370
   -1
100
AcDbLine
 10
92.969498
 20
-252.7030978923499
 11
78.957498
 21
-252.7030978923499
  0
LINE
  5
2C5
100
AcDbEntity
  8
0
  6
ByLayer
 62
  256
370
   -1
100
AcDbLine
 10
78.957498
 20
-252.7030978923499
 11
78.957498
 21
-238.6900978923499
  0
LINE
  5
2C6
100
AcDbEntity
  8
0
  6
ByLayer
 62
  256
370
   -1
100
AcDbLine
 10
78.957498
 20
-257.7400978923499
 11
92.969498
 21
-257.7400978923499
  0
LINE
  5
2C7
100
AcDbEntity
  8
0
  6
ByLayer
 62
  256
370
   -1
100
AcDbLine
 10
92.969498
 20
-257.7400978923499
 11
92.969498
 21
-271.7530978923499
  0
LINE
  5
2C8
100
AcDbEntity
  8
0
  6
ByLayer
 62
  256
370
   -1
100
AcDbLine
 10
92.969498
 20
-271.7530978923499
 11
78.957498
 21
-271.7530978923499
  0
LINE
  5
2C9
100
AcDbEntity
  8
0
  6
ByLayer
 62
  256
370
   -1
100
AcDbLine
 10
78.957498
 20
-271.7530978923499
 11
78.957498
 21
-257.7400978923499
  0
LINE
  5
2CA
100
AcDbEntity
  8
0
  6
ByLayer
 62
  256
370
   -1
100
AcDbLine
 10
78.957498
 20
-276.7900978923499
 11
92.969498
 21
-276.7900978923499
  0
LINE
  5
2CB
100
AcDbEntity
  8
0
  6
ByLayer
 62
  256
370
   -1
100
AcDbLine
 10
92.969498
 20
-276.7900978923499
 11
92.969498
 21
-290.8030978923499
  0
LINE
  5
2CC
100
AcDbEntity
  8
0
  6
ByLayer
 62
  256
370
   -1
100
AcDbLine
 10
92.969498
 20
-290.8030978923499
 11
78.957498
 21
-290.8030978923499
  0
LINE
  5
2CD
100
AcDbEntity
  8
0
  6
ByLayer
 62
  256
370
   -1
100
AcDbLine
 10
78.957498
 20
-290.8030978923499
 11
78.957498
 21
-276.7900978923499
  0
LINE
  5
2CE
100
AcDbEntity
  8
0
  6
ByLayer
 62
  256
370
   -1
100
AcDbLine
 10
98.00749800000001
 20
-241.0820978923499
 11
112.019598
 21
-241.0820978923499
  0
LINE
  5
2CF
100
AcDbEntity
  8
0
  6
ByLayer
 62
  256
370
   -1
100
AcDbLine
 10
112.019598
 20
-241.0820978923499
 11
112.019598
 21
-255.0730978923499
  0
LINE
  5
2D0
100
AcDbEntity
  8
0
  6
ByLayer
 62
  256
370
   -1
100
AcDbLine
 10
112.019598
 20
-255.0730978923499
 11
98.00749800000001
 21
-255.0730978923499
  0
LINE
  5
2D1
100
AcDbEntity
  8
0
  6
ByLayer
 62
  256
370
   -1
100
AcDbLine
 10
98.00749800000001
 20
-255.0730978923499
 11
98.00749800000001
 21
-241.0820978923499
  0
LINE
  5
2D2
100
AcDbEntity
  8
0
  6
ByLayer
 62
  256
370
   -1
100
AcDbLine
 10
98.00749800000001
 20
-260.1320978923499
 11
112.019598
 21
-260.1320978923499
  0
LINE
  5
2D3
100
AcDbEntity
  8
0
  6
ByLayer
 62
  256
370
   -1
100
AcDbLine
 10
112.019598
 20
-260.1320978923499
 11
112.019598
 21
-274.1230978923498
  0
LINE
  5
2D4
100
AcDbEntity
  8
0
  6
ByLayer
 62
  256
370
   -1
100
AcDbLine
 10
112.019598
 20
-274.1230978923498
 11
98.00749800000001
 21
-274.1230978923498
  0
LINE
  5
2D5
100
AcDbEntity
  8
0
  6
ByLayer
 62
  256
370
   -1
100
AcDbLine
 10
98.00749800000001
 20
-274.1230978923498
 11
98.00749800000001
 21
-260.1320978923499
  0
LINE
  5
2D6
100
AcDbEntity
  8
0
  6
ByLayer
 62
  256
370
   -1
100
AcDbLine
 10
98.00749800000001
 20
-279.1820978923499
 11
112.019598
 21
-279.1820978923499
  0
LINE
  5
2D7
100
AcDbEntity
  8
0
  6
ByLayer
 62
  256
370
   -1
100
AcDbLine
 10
112.019598
 20
-279.1820978923499
 11
112.019598
 21
-293.1730978923499
  0
LINE
  5
2D8
100
AcDbEntity
  8
0
  6
ByLayer
 62
  256
370
   -1
100
AcDbLine
 10
112.019598
 20
-293.1730978923499
 11
98.00749800000001
 21
-293.1730978923499
  0
LINE
  5
2D9
100
AcDbEntity
  8
0
  6
ByLayer
 62
  256
370
   -1
100
AcDbLine
 10
98.00749800000001
 20
-293.1730978923499
 11
98.00749800000001
 21
-279.1820978923499
  0
LINE
  5
2DA
100
AcDbEntity
  8
0
  6
ByLayer
 62
  256
370
   -1
100
AcDbLine
 10
117.057598
 20
-231.5570978923499
 11
131.069598
 21
-231.5570978923499
  0
LINE
  5
2DB
100
AcDbEntity
  8
0
  6
ByLayer
 62
  256
370
   -1
100
AcDbLine
 10
131.069598
 20
-245.5480978923499
 11
117.057598
 21
-245.5480978923499
  0
LINE
  5
2DC
100
AcDbEntity
  8
0
  6
ByLayer
 62
  256
370
   -1
100
AcDbLine
 10
117.057598
 20
-245.5480978923499
 11
117.057598
 21
-231.5570978923499
  0
LINE
  5
2DD
100
AcDbEntity
  8
0
  6
ByLayer
 62
  256
370
   -1
100
AcDbLine
 10
117.057598
 20
-250.6070978923499
 11
131.069598
 21
-250.6070978923499
  0
LINE
  5
2DE
100
AcDbEntity
  8
0
  6
ByLayer
 62
  256
370
   -1
100
AcDbLine
 10
131.069598
 20
-250.6070978923499
 11
131.069598
 21
-264.5980978923499
  0
LINE
  5
2DF
100
AcDbEntity
  8
0
  6
ByLayer
 62
  256
370
   -1
100
AcDbLine
 10
131.069598
 20
-264.5980978923499
 11
117.057598
 21
-264.5980978923499
  0
LINE
  5
2E0
100
AcDbEntity
  8
0
  6
ByLayer
 62
  256
370
   -1
100
AcDbLine
 10
117.057598
 20
-264.5980978923499
 11
117.057598
 21
-250.6070978923499
  0
LINE
  5
2E1
100
AcDbEntity
  8
0
  6
ByLayer
 62
  256
370
   -1
100
AcDbLine
 10
117.057598
 20
-269.6570978923499
 11
131.069598
 21
-269.6570978923499
  0
LINE
  5
2E2
100
AcDbEntity
  8
0
  6
ByLayer
 62
  256
370
   -1
100
AcDbLine
 10
131.069598
 20
-269.6570978923499
 11
131.069598
 21
-283.6480978923499
  0
LINE
  5
2E3
100
AcDbEntity
  8
0
  6
ByLayer
 62
  256
370
   -1
100
AcDbLine
 10
131.069598
 20
-283.6480978923499
 11
117.057598
 21
-283.6480978923499
  0
LINE
  5
2E4
100
AcDbEntity
  8
0
  6
ByLayer
 62
  256
370
   -1
100
AcDbLine
 10
117.057598
 20
-283.6480978923499
 11
117.057598
 21
-269.6570978923499
  0
LINE
  5
2E5
100
AcDbEntity
  8
0
  6
ByLayer
 62
  256
370
   -1
100
AcDbLine
 10
2.756078000000002
 20
-300.6040978923498
 11
16.769298
 21
-300.6040978923498
  0
LINE
  5
2E6
100
AcDbEntity
  8
0
  6
ByLayer
 62
  256
370
   -1
100
AcDbLine
 10
16.769298
 20
-300.6040978923498
 11
16.769298
 21
-314.6160978923499
  0
LINE
  5
2E7
100
AcDbEntity
  8
0
  6
ByLayer
 62
  256
370
   -1
100
AcDbLine
 10
16.769298
 20
-314.6160978923499
 11
2.756078000000002
 21
-314.6160978923499
  0
LINE
  5
2E8
100
AcDbEntity
  8
0
  6
ByLayer
 62
  256
370
   -1
100
AcDbLine
 10
2.756078000000002
 20
-314.6160978923499
 11
2.756078000000002
 21
-300.6040978923498
  0
LINE
  5
2E9
100
AcDbEntity
  8
0
  6
ByLayer
 62
  256
370
   -1
100
AcDbLine
 10
21.807498
 20
-300.6040978923498
 11
35.819498
 21
-300.6040978923498
  0
LINE
  5
2EA
100
AcDbEntity
  8
0
  6
ByLayer
 62
  256
370
   -1
100
AcDbLine
 10
35.819498
 20
-300.6040978923498
 11
35.819498
 21
-314.6160978923499
  0
LINE
  5
2EB
100
AcDbEntity
  8
0
  6
ByLayer
 62
  256
370
   -1
100
AcDbLine
 10
35.819498
 20
-314.6160978923499
 11
21.807498
 21
-314.6160978923499
  0
LINE
  5
2EC
100
AcDbEntity
  8
0
  6
ByLayer
 62
  256
370
   -1
100
AcDbLine
 10
21.807498
 20
-314.6160978923499
 11
21.807498
 21
-300.6040978923498
  0
LINE
  5
2ED
100
AcDbEntity
  8
0
  6
ByLayer
 62
  256
370
   -1
100
AcDbLine
 10
40.856098
 20
-295.8410978923498
 11
54.869498
 21
-295.8410978923498
  0
LINE
  5
2EE
100
AcDbEntity
  8
0
  6
ByLayer
 62
  256
370
   -1
100
AcDbLine
 10
54.869498
 20
-295.8410978923498
 11
54.869498
 21
-309.8530978923499
  0
LINE
  5
2EF
100
AcDbEntity
  8
0
  6
ByLayer
 62
  256
370
   -1
100
AcDbLine
 10
54.869498
 20
-309.8530978923499
 11
40.856098
 21
-309.8530978923499
  0
LINE
  5
2F0
100
AcDbEntity
  8
0
  6
ByLayer
 62
  256
370
   -1
100
AcDbLine
 10
40.856098
 20
-309.8530978923499
 11
40.856098
 21
-295.8410978923498
  0
LINE
  5
2F1
100
AcDbEntity
  8
0
  6
ByLayer
 62
  256
370
   -1
100
AcDbLine
 10
87.508098
 20
-310.1700978923499
 11
94.493498
 21
-298.0420978923499
  0
LINE
  5
2F2
100
AcDbEntity
  8
0
  6
ByLayer
 62
  256
370
   -1
100
AcDbLine
 10
94.493498
 20
-298.0420978923499
 11
106.621598
 21
-305.0480978923499
  0
LINE
  5
2F3
100
AcDbEntity
  8
0
  6
ByLayer
 62
  256
370
   -1
100
AcDbLine
 10
106.621598
 20
-305.0480978923499
 11
99.615498
 21
-317.1760978923499
  0
LINE
  5
2F4
100
AcDbEntity
  8
0
  6
ByLayer
 62
  256
370
   -1
100
AcDbLine
 10
99.615498
 20
-317.1760978923499
 11
87.508098
 21
-310.1700978923499
  0
LINE
  5
2F5
100
AcDbEntity
  8
0
  6
ByLayer
 62
  256
370
   -1
100
AcDbLine
 10
115.249598
 20
-329.2840978923499
 11
115.416598
 21
-329.3800978923499
  0
LINE
  5
2F6
100
AcDbEntity
  8
0
  6
ByLayer
 62
  256
370
   -1
100
AcDbLine
 10
124.251598
 20
-217.1370978923499
 11
124.037598
 21
-217.1370978923499
  0
LINE
  5
2F7
100
AcDbEntity
  8
0
  6
ByLayer
 62
  256
370
   -1
100
AcDbLine
 10
124.037598
 20
-217.1370978923499
 11
110.037598
 21
-217.1370978923499
  0
LINE
  5
2F8
100
AcDbEntity
  8
0
  6
ByLayer
 62
  256
370
   -1
100
AcDbLine
 10
110.037598
 20
-217.1370978923499
 11
109.810598
 21
-217.1370978923499
  0
LINE
  5
2F9
100
AcDbEntity
  8
0
  6
ByLayer
 62
  256
370
   -1
100
AcDbLine
 10
109.810598
 20
-217.1370978923499
 11
109.130598
 21
-217.0450978923499
  0
LINE
  5
2FA
100
AcDbEntity
  8
0
  6
ByLayer
 62
  256
370
   -1
100
AcDbLine
 10
109.130598
 20
-217.0450978923499
 11
108.144598
 21
-216.7970978923499
  0
LINE
  5
2FB
100
AcDbEntity
  8
0
  6
ByLayer
 62
  256
370
   -1
100
AcDbLine
 10
108.144598
 20
-216.7970978923499
 11
107.196598
 21
-216.4300978923499
  0
LINE
  5
2FC
100
AcDbEntity
  8
0
  6
ByLayer
 62
  256
370
   -1
100
AcDbLine
 10
107.196598
 20
-216.4300978923499
 11
106.588598
 21
-216.1120978923499
  0
LINE
  5
2FD
100
AcDbEntity
  8
0
  6
ByLayer
 62
  256
370
   -1
100
AcDbLine
 10
106.588598
 20
-216.1120978923499
 11
106.405598
 21
-215.9830978923499
  0
LINE
  5
2FE
100
AcDbEntity
  8
0
  6
ByLayer
 62
  256
370
   -1
100
AcDbLine
 10
106.405598
 20
-215.9830978923499
 11
97.484998
 21
-209.6730978923499
  0
LINE
  5
2FF
100
AcDbEntity
  8
0
  6
ByLayer
 62
  256
370
   -1
100
AcDbLine
 10
97.484998
 20
-209.6730978923499
 11
97.300498
 21
-209.5420978923499
  0
LINE
  5
300
100
AcDbEntity
  8
0
  6
ByLayer
 62
  256
370
   -1
100
AcDbLine
 10
97.300498
 20
-209.5420978923499
 11
96.69269800000001
 21
-209.2230978923499
  0
LINE
  5
301
100
AcDbEntity
  8
0
  6
ByLayer
 62
  256
370
   -1
100
AcDbLine
 10
96.69269800000001
 20
-209.2230978923499
 11
95.744798
 21
-208.8570978923499
  0
LINE
  5
302
100
AcDbEntity
  8
0
  6
ByLayer
 62
  256
370
   -1
100
AcDbLine
 10
95.744798
 20
-208.8570978923499
 11
94.758098
 21
-208.6090978923499
  0
LINE
  5
303
100
AcDbEntity
  8
0
  6
ByLayer
 62
  256
370
   -1
100
AcDbLine
 10
94.758098
 20
-208.6090978923499
 11
94.078598
 21
-208.5180978923499
  0
LINE
  5
304
100
AcDbEntity
  8
0
  6
ByLayer
 62
  256
370
   -1
100
AcDbLine
 10
94.078598
 20
-208.5180978923499
 11
93.85279800000001
 21
-208.5180978923499
  0
LINE
  5
305
100
AcDbEntity
  8
0
  6
ByLayer
 62
  256
370
   -1
100
AcDbLine
 10
93.85279800000001
 20
-208.5180978923499
 11
59.022698
 21
-208.5180978923499
  0
LINE
  5
306
100
AcDbEntity
  8
0
  6
ByLayer
 62
  256
370
   -1
100
AcDbLine
 10
59.022698
 20
-208.5180978923499
 11
58.525298
 21
-208.5180978923499
  0
LINE
  5
307
100
AcDbEntity
  8
0
  6
ByLayer
 62
  256
370
   -1
100
AcDbLine
 10
58.525298
 20
-208.5180978923499
 11
57.036898
 21
-208.6460978923499
  0
LINE
  5
308
100
AcDbEntity
  8
0
  6
ByLayer
 62
  256
370
   -1
100
AcDbLine
 10
57.036898
 20
-208.6460978923499
 11
55.339398
 21
-208.8950978923499
  0
LINE
  5
309
100
AcDbEntity
  8
0
  6
ByLayer
 62
  256
370
   -1
100
AcDbLine
 10
55.339398
 20
-208.8950978923499
 11
55.071998
 21
-208.9560978923499
  0
LINE
  5
30A
100
AcDbEntity
  8
0
  6
ByLayer
 62
  256
370
   -1
100
AcDbLine
 10
55.071998
 20
-208.9560978923499
 11
1.951298000000001
 21
-220.8980978923499
  0
LINE
  5
30B
100
AcDbEntity
  8
0
  6
ByLayer
 62
  256
370
   -1
100
AcDbLine
 10
1.951298000000001
 20
-220.8980978923499
 11
1.752867999999999
 21
-220.9420978923499
  0
LINE
  5
30C
100
AcDbEntity
  8
0
  6
ByLayer
 62
  256
370
   -1
100
AcDbLine
 10
1.752867999999999
 20
-220.9420978923499
 11
1.193378000000003
 21
-221.2260978923499
  0
LINE
  5
30D
100
AcDbEntity
  8
0
  6
ByLayer
 62
  256
370
   -1
100
AcDbLine
 10
1.193378000000003
 20
-221.2260978923499
 11
0.5718839999999972
 21
-221.7950978923499
  0
LINE
  5
30E
100
AcDbEntity
  8
0
  6
ByLayer
 62
  256
370
   -1
100
AcDbLine
 10
0.5718839999999972
 20
-221.7950978923499
 11
0.1529620000000023
 21
-222.5240978923499
  0
LINE
  5
30F
100
AcDbEntity
  8
0
  6
ByLayer
 62
  256
370
   -1
100
AcDbLine
 10
0.1529620000000023
 20
-222.5240978923499
 11
0
 21
-223.1330978923499
  0
LINE
  5
310
100
AcDbEntity
  8
0
  6
ByLayer
 62
  256
370
   -1
100
AcDbLine
 10
0
 20
-223.1330978923499
 11
0
 21
-223.3370978923498
  0
LINE
  5
311
100
AcDbEntity
  8
0
  6
ByLayer
 62
  256
370
   -1
100
AcDbLine
 10
0
 20
-223.3370978923498
 11
0
 21
-315.4360978923498
  0
LINE
  5
312
100
AcDbEntity
  8
0
  6
ByLayer
 62
  256
370
   -1
100
AcDbLine
 10
0
 20
-315.4360978923498
 11
0
 21
-315.6290978923499
  0
LINE
  5
313
100
AcDbEntity
  8
0
  6
ByLayer
 62
  256
370
   -1
100
AcDbLine
 10
0
 20
-315.6290978923499
 11
0.1570960000000028
 21
-316.2120978923499
  0
LINE
  5
314
100
AcDbEntity
  8
0
  6
ByLayer
 62
  256
370
   -1
100
AcDbLine
 10
0.1570960000000028
 20
-316.2120978923499
 11
0.5870430000000013
 21
-316.8470978923499
  0
LINE
  5
315
100
AcDbEntity
  8
0
  6
ByLayer
 62
  256
370
   -1
100
AcDbLine
 10
0.5870430000000013
 20
-316.8470978923499
 11
1.222318000000001
 21
-317.2770978923499
  0
LINE
  5
316
100
AcDbEntity
  8
0
  6
ByLayer
 62
  256
370
   -1
100
AcDbLine
 10
1.222318000000001
 20
-317.2770978923499
 11
1.805228
 21
-317.4350978923499
  0
LINE
  5
317
100
AcDbEntity
  8
0
  6
ByLayer
 62
  256
370
   -1
100
AcDbLine
 10
1.805228
 20
-317.4350978923499
 11
1.999538000000001
 21
-317.4350978923499
  0
LINE
  5
318
100
AcDbEntity
  8
0
  6
ByLayer
 62
  256
370
   -1
100
AcDbLine
 10
1.999538000000001
 20
-317.4350978923499
 11
92.71159800000001
 21
-317.4350978923499
  0
LINE
  5
319
100
AcDbEntity
  8
0
  6
ByLayer
 62
  256
370
   -1
100
AcDbLine
 10
92.71159800000001
 20
-317.4350978923499
 11
92.939098
 21
-317.4350978923499
  0
LINE
  5
31A
100
AcDbEntity
  8
0
  6
ByLayer
 62
  256
370
   -1
100
AcDbLine
 10
92.939098
 20
-317.4350978923499
 11
93.62389800000001
 21
-317.5140978923499
  0
LINE
  5
31B
100
AcDbEntity
  8
0
  6
ByLayer
 62
  256
370
   -1
100
AcDbLine
 10
93.62389800000001
 20
-317.5140978923499
 11
94.63249800000001
 21
-317.7290978923499
  0
LINE
  5
31C
100
AcDbEntity
  8
0
  6
ByLayer
 62
  256
370
   -1
100
AcDbLine
 10
94.63249800000001
 20
-317.7290978923499
 11
95.612498
 21
-318.0460978923499
  0
LINE
  5
31D
100
AcDbEntity
  8
0
  6
ByLayer
 62
  256
370
   -1
100
AcDbLine
 10
95.612498
 20
-318.0460978923499
 11
96.24499800000001
 21
-318.3200978923499
  0
LINE
  5
31E
100
AcDbEntity
  8
0
  6
ByLayer
 62
  256
370
   -1
100
AcDbLine
 10
96.24499800000001
 20
-318.3200978923499
 11
96.44329800000001
 21
-318.4340978923499
  0
LINE
  5
31F
100
AcDbEntity
  8
0
  6
ByLayer
 62
  256
370
   -1
100
AcDbLine
 10
96.44329800000001
 20
-318.4340978923499
 11
132.6851646881829
 21
-339.3432747940674
  0
ARC
  5
320
100
AcDbEntity
  8
0
  6
ByLayer
 62
  256
370
   -1
100
AcDbCircle
 10
133.1848944516437
 20
-338.4770934253511
 40
1
100
AcDbArc
 50
240.0178770956076
 51
329.9314171781378
  0
LINE
  5
321
100
AcDbEntity
  8
0
  6
ByLayer
 62
  256
370
   -1
100
AcDbLine
 10
132.554406
 20
-336.2673518923498
 11
120.437406
 21
-329.2563518923498
  0
LINE
  5
322
100
AcDbEntity
  8
0
  6
ByLayer
 62
  256
370
   -1
100
AcDbLine
 10
120.437406
 20
-329.2563518923498
 11
120.677406
 21
-328.8413518923498
  0
LINE
  5
323
100
AcDbEntity
  8
0
  6
ByLayer
 62
  256
370
   -1
100
AcDbLine
 10
136.803406
 20
-300.9733518923498
 11
137.012406
 21
-300.6113518923498
  0
LINE
  5
324
100
AcDbEntity
  8
0
  6
ByLayer
 62
  256
370
   -1
100
AcDbLine
 10
137.012406
 20
-300.6113518923498
 11
149.129406
 21
-307.6223518923498
  0
LINE
  5
325
100
AcDbEntity
  8
0
  6
ByLayer
 62
  256
370
   -1
100
AcDbLine
 10
131.069598
 20
-231.5570978923499
 11
131.069598
 21
-245.5480978923499
  0
LINE
  5
326
100
AcDbEntity
  8
0
  6
ByLayer
 62
  256
370
   -1
100
AcDbLine
 10
135.692837780419
 20
-296.8883091589014
 11
135.692837780419
 21
-296.3883091589014
  0
LINE
  5
327
100
AcDbEntity
  8
0
  6
ByLayer
 62
  256
370
   -1
100
AcDbLine
 10
152.456837780419
 20
-296.8883091589014
 11
152.456837780419
 21
-296.3883091589014
  0
LINE
  5
328
100
AcDbEntity
  8
0
  6
ByLayer
 62
  256
370
   -1
100
AcDbLine
 10
152.456837780419
 20
-279.1163091589015
 11
152.456837780419
 21
-278.6163091589015
  0
LINE
  5
329
100
AcDbEntity
  8
0
  6
ByLayer
 62
  256
370
   -1
100
AcDbLine
 10
135.692837780419
 20
-279.1163091589015
 11
135.692837780419
 21
-278.6163091589015
  0
LINE
  5
32A
100
AcDbEntity
  8
0
  6
ByLayer
 62
  256
370
   -1
100
AcDbLine
 10
135.692837780419
 20
-296.8883091589014
 11
152.456837780419
 21
-296.8883091589014
  0
LINE
  5
32B
100
AcDbEntity
  8
0
  6
ByLayer
 62
  256
370
   -1
100
AcDbLine
 10
152.456837780419
 20
-296.3883091589014
 11
152.456837780419
 21
-279.1163091589015
  0
LINE
  5
32C
100
AcDbEntity
  8
0
  6
ByLayer
 62
  256
370
   -1
100
AcDbLine
 10
135.692837780419
 20
-279.1163091589015
 11
135.692837780419
 21
-296.3883091589014
  0
LINE
  5
32D
100
AcDbEntity
  8
0
  6
ByLayer
 62
  256
370
   -1
100
AcDbLine
 10
135.692837780419
 20
-278.6163091589015
 11
152.456837780419
 21
-278.6163091589015
  0
LINE
  5
32E
100
AcDbEntity
  8
0
  6
ByLayer
 62
  256
370
   -1
100
AcDbLine
 10
155.407983879306
 20
-279.0720374227038
 11
155.407983879306
 21
-292.7053091589015
  0
LINE
  5
32F
100
AcDbEntity
  8
0
  6
ByLayer
 62
  256
370
   -1
100
AcDbLine
 10
155.407983879306
 20
-292.7053091589015
 11
155.407983879306
 21
-295.3883091589013
  0
LINE
  5
330
100
AcDbEntity
  8
0
  6
ByLayer
 62
  256
370
   -1
100
AcDbLine
 10
294.7109115889355
 20
-329.2840978923499
 11
294.8779115889355
 21
-329.3800978923499
  0
LINE
  5
331
100
AcDbEntity
  8
0
  6
ByLayer
 62
  256
370
   -1
100
AcDbLine
 10
289.4989115889355
 20
-217.1370978923499
 11
289.2719115889355
 21
-217.1370978923499
  0
LINE
  5
332
100
AcDbEntity
  8
0
  6
ByLayer
 62
  256
370
   -1
100
AcDbLine
 10
289.2719115889355
 20
-217.1370978923499
 11
288.5919115889355
 21
-217.0450978923499
  0
LINE
  5
333
100
AcDbEntity
  8
0
  6
ByLayer
 62
  256
370
   -1
100
AcDbLine
 10
288.5919115889355
 20
-217.0450978923499
 11
287.6059115889356
 21
-216.7970978923498
  0
LINE
  5
334
100
AcDbEntity
  8
0
  6
ByLayer
 62
  256
370
   -1
100
AcDbLine
 10
287.6059115889356
 20
-216.7970978923498
 11
286.6579115889355
 21
-216.4300978923499
  0
LINE
  5
335
100
AcDbEntity
  8
0
  6
ByLayer
 62
  256
370
   -1
100
AcDbLine
 10
286.6579115889355
 20
-216.4300978923499
 11
286.0499115889355
 21
-216.1120978923499
  0
LINE
  5
336
100
AcDbEntity
  8
0
  6
ByLayer
 62
  256
370
   -1
100
AcDbLine
 10
286.0499115889355
 20
-216.1120978923499
 11
285.8669115889355
 21
-215.9830978923499
  0
LINE
  5
337
100
AcDbEntity
  8
0
  6
ByLayer
 62
  256
370
   -1
100
AcDbLine
 10
181.4126115889355
 20
-220.8980978923498
 11
181.2141815889355
 21
-220.9420978923499
  0
LINE
  5
338
100
AcDbEntity
  8
0
  6
ByLayer
 62
  256
370
   -1
100
AcDbLine
 10
181.2141815889355
 20
-220.9420978923499
 11
180.6546915889355
 21
-221.2260978923499
  0
LINE
  5
339
100
AcDbEntity
  8
0
  6
ByLayer
 62
  256
370
   -1
100
AcDbLine
 10
180.6546915889355
 20
-221.2260978923499
 11
180.0331975889355
 21
-221.7950978923499
  0
LINE
  5
33A
100
AcDbEntity
  8
0
  6
ByLayer
 62
  256
370
   -1
100
AcDbLine
 10
180.0331975889355
 20
-221.7950978923499
 11
179.6142755889355
 21
-222.5240978923499
  0
LINE
  5
33B
100
AcDbEntity
  8
0
  6
ByLayer
 62
  256
370
   -1
100
AcDbLine
 10
179.6142755889355
 20
-222.5240978923499
 11
179.4613135889355
 21
-223.1330978923498
  0
LINE
  5
33C
100
AcDbEntity
  8
0
  6
ByLayer
 62
  256
370
   -1
100
AcDbLine
 10
179.4613135889355
 20
-223.1330978923498
 11
179.4613135889355
 21
-223.3370978923498
  0
LINE
  5
33D
100
AcDbEntity
  8
0
  6
ByLayer
 62
  256
370
   -1
100
AcDbLine
 10
179.4613135889355
 20
-223.3370978923498
 11
179.4613135889355
 21
-315.4360978923498
  0
LINE
  5
33E
100
AcDbEntity
  8
0
  6
ByLayer
 62
  256
370
   -1
100
AcDbLine
 10
179.4613135889355
 20
-315.4360978923498
 11
179.4613135889355
 21
-315.6290978923499
  0
LINE
  5
33F
100
AcDbEntity
  8
0
  6
ByLayer
 62
  256
370
   -1
100
AcDbLine
 10
179.4613135889355
 20
-315.6290978923499
 11
179.6184095889355
 21
-316.2120978923499
  0
LINE
  5
340
100
AcDbEntity
  8
0
  6
ByLayer
 62
  256
370
   -1
100
AcDbLine
 10
179.6184095889355
 20
-316.2120978923499
 11
180.0483565889355
 21
-316.8470978923499
  0
LINE
  5
341
100
AcDbEntity
  8
0
  6
ByLayer
 62
  256
370
   -1
100
AcDbLine
 10
180.0483565889355
 20
-316.8470978923499
 11
180.6836315889355
 21
-317.2770978923499
  0
LINE
  5
342
100
AcDbEntity
  8
0
  6
ByLayer
 62
  256
370
   -1
100
AcDbLine
 10
180.6836315889355
 20
-317.2770978923499
 11
181.2665415889355
 21
-317.4350978923499
  0
LINE
  5
343
100
AcDbEntity
  8
0
  6
ByLayer
 62
  256
370
   -1
100
AcDbLine
 10
181.2665415889355
 20
-317.4350978923499
 11
181.4608515889355
 21
-317.4350978923499
  0
LINE
  5
344
100
AcDbEntity
  8
0
  6
ByLayer
 62
  256
370
   -1
100
AcDbLine
 10
181.4608515889355
 20
-317.4350978923499
 11
272.1729115889356
 21
-317.4350978923499
  0
LINE
  5
345
100
AcDbEntity
  8
0
  6
ByLayer
 62
  256
370
   -1
100
AcDbLine
 10
272.1729115889356
 20
-317.4350978923499
 11
272.4004115889355
 21
-317.4350978923499
  0
LINE
  5
346
100
AcDbEntity
  8
0
  6
ByLayer
 62
  256
370
   -1
100
AcDbLine
 10
272.4004115889355
 20
-317.4350978923499
 11
273.0852115889355
 21
-317.5140978923499
  0
LINE
  5
347
100
AcDbEntity
  8
0
  6
ByLayer
 62
  256
370
   -1
100
AcDbLine
 10
273.0852115889355
 20
-317.5140978923499
 11
274.0938115889355
 21
-317.7290978923499
  0
LINE
  5
348
100
AcDbEntity
  8
0
  6
ByLayer
 62
  256
370
   -1
100
AcDbLine
 10
274.0938115889355
 20
-317.7290978923499
 11
275.0738115889355
 21
-318.0460978923499
  0
LINE
  5
349
100
AcDbEntity
  8
0
  6
ByLayer
 62
  256
370
   -1
100
AcDbLine
 10
275.0738115889355
 20
-318.0460978923499
 11
275.7063115889355
 21
-318.3200978923499
  0
LINE
  5
34A
100
AcDbEntity
  8
0
  6
ByLayer
 62
  256
370
   -1
100
AcDbLine
 10
275.7063115889355
 20
-318.3200978923499
 11
275.9046115889356
 21
-318.4340978923499
  0
LINE
  5
34B
100
AcDbEntity
  8
0
  6
ByLayer
 62
  256
370
   -1
100
AcDbLine
 10
275.9046115889356
 20
-318.4340978923499
 11
312.1464782771184
 21
-339.3432747940674
  0
ARC
  5
34C
100
AcDbEntity
  8
0
  6
ByLayer
 62
  256
370
   -1
100
AcDbCircle
 10
312.6462080405792
 20
-338.4770934253511
 40
1
100
AcDbArc
 50
240.0178770956076
 51
329.9314171781378
  0
LINE
  5
34D
100
AcDbEntity
  8
0
  6
ByLayer
 62
  256
370
   -1
100
AcDbLine
 10
334.8692974682415
 20
-279.5720374227038
 11
334.8692974682415
 21
-293.2053091589015
  0
LINE
  5
34E
100
AcDbEntity
  8
0
  6
ByLayer
 62
  256
370
   -1
100
AcDbLine
 10
334.8692974682415
 20
-293.2053091589015
 11
334.8692974682415
 21
-295.8883091589013
  0
ARC
  5
34F
100
AcDbEntity
  8
0
  6
ByLayer
 62
  256
370
   -1
100
AcDbCircle
 10
333.1909551610137
 20
-277.5475852263952
 40
1.67892611119629
100
AcDbArc
 50
359.8173728751784
 51
90
  0
LINE
  5
350
100
AcDbEntity
  8
0
  6
ByLayer
 62
  256
370
   -1
100
AcDbLine
 10
334.8692974682415
 20
-279.5720374227038
 11
334.8698727434377
 21
-277.5529367013535
  0
LINE
  5
351
100
AcDbEntity
  8
0
  6
ByLayer
 62
  256
370
   -1
100
AcDbLine
 10
323.8665208961914
 20
-275.8686591151989
 11
333.1909551610137
 21
-275.8686591151989
  0
LINE
  5
352
100
AcDbEntity
  8
0
  6
ByLayer
 62
  256
370
   -1
100
AcDbLine
 10
334.8692974682415
 20
-295.8883091589013
 11
331.4382571398774
 21
-308.0139630174815
  0
LINE
  5
353
100
AcDbEntity
  8
0
  6
ByLayer
 62
  256
370
   -1
100
AcDbLine
 10
313.5116343260603
 20
-338.9781296958927
 11
331.4382571398774
 21
-308.0139630174815
  0
LINE
  5
354
100
AcDbEntity
  8
0
  6
ByLayer
 62
  256
370
   -1
100
AcDbLine
 10
291.2218135889354
 20
-217.1370978923499
 11
289.4989115889355
 21
-217.1370978923499
  0
LINE
  5
355
100
AcDbEntity
  8
0
  6
ByLayer
 62
  256
370
   -1
100
AcDbLine
 10
292.2218135889354
 20
-217.1393978923498
 11
292.2218135889354
 21
-231.8383978923499
  0
LINE
  5
356
100
AcDbEntity
  8
0
  6
ByLayer
 62
  256
370
   -1
100
AcDbLine
 10
314.5429115889356
 20
-231.0773978923498
 11
314.5429115889356
 21
-230.8493978923499
  0
LINE
  5
357
100
AcDbEntity
  8
0
  6
ByLayer
 62
  256
370
   -1
100
AcDbLine
 10
314.5429115889356
 20
-230.8493978923499
 11
314.4549115889355
 21
-230.1693978923498
  0
LINE
  5
358
100
AcDbEntity
  8
0
  6
ByLayer
 62
  256
370
   -1
100
AcDbLine
 10
314.4549115889355
 20
-230.1693978923498
 11
314.2139115889355
 21
-229.1773978923499
  0
LINE
  5
359
100
AcDbEntity
  8
0
  6
ByLayer
 62
  256
370
   -1
100
AcDbLine
 10
314.2139115889355
 20
-229.1773978923499
 11
313.8579115889355
 21
-228.2203978923499
  0
LINE
  5
35A
100
AcDbEntity
  8
0
  6
ByLayer
 62
  256
370
   -1
100
AcDbLine
 10
313.8579115889355
 20
-228.2203978923499
 11
313.5509115889355
 21
-227.6073978923498
  0
LINE
  5
35B
100
AcDbEntity
  8
0
  6
ByLayer
 62
  256
370
   -1
100
AcDbLine
 10
313.5509115889355
 20
-227.6073978923498
 11
313.4259115889355
 21
-227.4203978923499
  0
LINE
  5
35C
100
AcDbEntity
  8
0
  6
ByLayer
 62
  256
370
   -1
100
AcDbLine
 10
313.4259115889355
 20
-227.4203978923499
 11
307.6159115889355
 21
-218.7993978923498
  0
LINE
  5
35D
100
AcDbEntity
  8
0
  6
ByLayer
 62
  256
370
   -1
100
AcDbLine
 10
307.6159115889355
 20
-218.7993978923498
 11
307.4939115889355
 21
-218.6183978923499
  0
LINE
  5
35E
100
AcDbEntity
  8
0
  6
ByLayer
 62
  256
370
   -1
100
AcDbLine
 10
307.4939115889355
 20
-218.6183978923499
 11
307.0229115889355
 21
-218.1543978923498
  0
LINE
  5
35F
100
AcDbEntity
  8
0
  6
ByLayer
 62
  256
370
   -1
100
AcDbLine
 10
307.0229115889355
 20
-218.1543978923498
 11
306.2389115889355
 21
-217.6263978923498
  0
LINE
  5
360
100
AcDbEntity
  8
0
  6
ByLayer
 62
  256
370
   -1
100
AcDbLine
 10
306.2389115889355
 20
-217.6263978923498
 11
305.3629115889355
 21
-217.2703978923498
  0
LINE
  5
361
100
AcDbEntity
  8
0
  6
ByLayer
 62
  256
370
   -1
100
AcDbLine
 10
305.3629115889355
 20
-217.2703978923498
 11
304.7129115889355
 21
-217.1393978923498
  0
ARC
  5
362
100
AcDbEntity
  8
0
  6
ByLayer
 62
  256
370
   -1
100
AcDbCircle
 10
324.8665208961914
 20
-265.547349807943
 40
10.32360930725594
100
AcDbArc
 50
180
 51
270
  0
LINE
  5
363
100
AcDbEntity
  8
0
  6
ByLayer
 62
  256
370
   -1
100
AcDbLine
 10
314.5429115889356
 20
-231.0773978923498
 11
314.5429115889355
 21
-265.547349807943
  0
LINE
  5
364
100
AcDbEntity
  8
0
  6
ByLayer
 62
  256
370
   -1
100
AcDbLine
 10
292.2218135889354
 20
-231.8406978923498
 11
304.3818135889355
 21
-231.8406978923498
  0
LINE
  5
365
100
AcDbEntity
  8
0
  6
ByLayer
 62
  256
370
   -1
100
AcDbLine
 10
304.3818135889355
 20
-231.8406978923498
 11
304.3818135889355
 21
-217.1416978923498
  0
LINE
  5
366
100
AcDbEntity
  8
0
  6
ByLayer
 62
  256
370
   -1
100
AcDbLine
 10
304.7129115889355
 20
-217.1393978923498
 11
304.3818135889355
 21
-217.1393978923498
  0
LINE
  5
367
100
AcDbEntity
  8
0
  6
ByLayer
 62
  256
370
   -1
100
AcDbLine
 10
292.2218135889354
 20
-217.1416978923498
 11
291.2218135889354
 21
-217.1393978923498
  0
LINE
  5
368
100
AcDbEntity
  8
0
  6
ByLayer
 62
  256
370
   -1
100
AcDbLine
 10
292.2218135889354
 20
-217.1416978923498
 11
292.2218135889354
 21
-231.8383978923499
  0
LINE
  5
369
100
AcDbEntity
  8
0
  6
ByLayer
 62
  256
370
   -1
100
AcDbLine
 10
155.4079838793059
 20
-279.5720374227038
 11
155.4079838793059
 21
-293.2053091589015
  0
LINE
  5
36A
100
AcDbEntity
  8
0
  6
ByLayer
 62
  256
370
   -1
100
AcDbLine
 10
155.4079838793059
 20
-293.2053091589015
 11
155.4079838793059
 21
-295.8883091589013
  0
ARC
  5
36B
100
AcDbEntity
  8
0
  6
ByLayer
 62
  256
370
   -1
100
AcDbCircle
 10
153.7296415720781
 20
-277.5475852263952
 40
1.67892611119629
100
AcDbArc
 50
359.8173728751784
 51
90
  0
LINE
  5
36C
100
AcDbEntity
  8
0
  6
ByLayer
 62
  256
370
   -1
100
AcDbLine
 10
155.4079838793059
 20
-279.5720374227038
 11
155.4085591545022
 21
-277.5529367013535
  0
LINE
  5
36D
100
AcDbEntity
  8
0
  6
ByLayer
 62
  256
370
   -1
100
AcDbLine
 10
144.4052073072558
 20
-275.8686591151989
 11
153.7296415720781
 21
-275.8686591151989
  0
LINE
  5
36E
100
AcDbEntity
  8
0
  6
ByLayer
 62
  256
370
   -1
100
AcDbLine
 10
155.4079838793059
 20
-295.8883091589013
 11
151.9769435509419
 21
-308.0139630174815
  0
LINE
  5
36F
100
AcDbEntity
  8
0
  6
ByLayer
 62
  256
370
   -1
100
AcDbLine
 10
135.0815980000001
 20
-231.0773978923498
 11
135.0815980000001
 21
-230.8493978923499
  0
LINE
  5
370
100
AcDbEntity
  8
0
  6
ByLayer
 62
  256
370
   -1
100
AcDbLine
 10
135.0815980000001
 20
-230.8493978923499
 11
134.9935979999999
 21
-230.1693978923498
  0
LINE
  5
371
100
AcDbEntity
  8
0
  6
ByLayer
 62
  256
370
   -1
100
AcDbLine
 10
134.9935979999999
 20
-230.1693978923498
 11
134.7525979999999
 21
-229.1773978923499
  0
LINE
  5
372
100
AcDbEntity
  8
0
  6
ByLayer
 62
  256
370
   -1
100
AcDbLine
 10
134.7525979999999
 20
-229.1773978923499
 11
134.396598
 21
-228.2203978923499
  0
LINE
  5
373
100
AcDbEntity
  8
0
  6
ByLayer
 62
  256
370
   -1
100
AcDbLine
 10
134.396598
 20
-228.2203978923499
 11
134.0895979999999
 21
-227.6073978923498
  0
LINE
  5
374
100
AcDbEntity
  8
0
  6
ByLayer
 62
  256
370
   -1
100
AcDbLine
 10
134.0895979999999
 20
-227.6073978923498
 11
133.9645979999999
 21
-227.4203978923499
  0
LINE
  5
375
100
AcDbEntity
  8
0
  6
ByLayer
 62
  256
370
   -1
100
AcDbLine
 10
133.9645979999999
 20
-227.4203978923499
 11
128.1545979999999
 21
-218.7993978923498
  0
LINE
  5
376
100
AcDbEntity
  8
0
  6
ByLayer
 62
  256
370
   -1
100
AcDbLine
 10
128.1545979999999
 20
-218.7993978923498
 11
128.0325979999999
 21
-218.6183978923499
  0
LINE
  5
377
100
AcDbEntity
  8
0
  6
ByLayer
 62
  256
370
   -1
100
AcDbLine
 10
128.0325979999999
 20
-218.6183978923499
 11
127.5615979999999
 21
-218.1543978923498
  0
LINE
  5
378
100
AcDbEntity
  8
0
  6
ByLayer
 62
  256
370
   -1
100
AcDbLine
 10
127.5615979999999
 20
-218.1543978923498
 11
126.7775979999999
 21
-217.6263978923498
  0
LINE
  5
379
100
AcDbEntity
  8
0
  6
ByLayer
 62
  256
370
   -1
100
AcDbLine
 10
126.7775979999999
 20
-217.6263978923498
 11
125.901598
 21
-217.2703978923498
  0
LINE
  5
37A
100
AcDbEntity
  8
0
  6
ByLayer
 62
  256
370
   -1
100
AcDbLine
 10
125.901598
 20
-217.2703978923498
 11
125.251598
 21
-217.1393978923498
  0
ARC
  5
37B
100
AcDbEntity
  8
0
  6
ByLayer
 62
  256
370
   -1
100
AcDbCircle
 10
145.4052073072558
 20
-265.547349807943
 40
10.32360930725594
100
AcDbArc
 50
180
 51
270
  0
LINE
  5
37C
100
AcDbEntity
  8
0
  6
ByLayer
 62
  256
370
   -1
100
AcDbLine
 10
135.0815980000001
 20
-231.0773978923498
 11
135.081598
 21
-265.547349807943
  0
LINE
  5
37D
100
AcDbEntity
  8
0
  6
ByLayer
 62
  256
370
   -1
100
AcDbLine
 10
125.251598
 20
-217.1393978923498
 11
124.9204999999999
 21
-217.1393978923498
  0
LINE
  5
37E
100
AcDbEntity
  8
0
  6
ByLayer
 62
  256
370
   -1
100
AcDbLine
 10
134.0503207371248
 20
-338.9781296958927
 11
151.9769435509419
 21
-308.0139630174816
  0
LINE
  5
37F
100
AcDbEntity
  8
0
  6
ByLayer
 62
  256
370
   -1
100
AcDbLine
 10
124.9204999999999
 20
-217.1393978923498
 11
124.251598
 21
-217.1370978923499
  0
LINE
  5
380
100
AcDbEntity
  8
0
  6
ByLayer
 62
  256
370
   -1
100
AcDbLine
 10
285.8669115889355
 20
-215.9830978923499
 11
278.2198135889355
 21
-210.5739114721539
  0
LINE
  5
381
100
AcDbEntity
  8
0
  6
ByLayer
 62
  256
370
   -1
100
AcDbLine
 10
233.5798135889355
 20
-209.1704526187747
 11
181.4126115889355
 21
-220.8980978923498
  0
LINE
  5
382
100
AcDbEntity
  8
0
  6
ByLayer
 62
  256
370
   -1
100
AcDbLine
 10
233.5798135889355
 20
-248.5130978923498
 11
278.2198135889355
 21
-248.5130978923498
  0
LINE
  5
383
100
AcDbEntity
  8
0
  6
ByLayer
 62
  256
370
   -1
100
AcDbLine
 10
233.5798135889355
 20
-248.5130978923498
 11
233.5798135889355
 21
-209.1704526187747
  0
LINE
  5
384
100
AcDbEntity
  8
0
  6
ByLayer
 62
  256
370
   -1
100
AcDbLine
 10
278.2198135889355
 20
-248.5130978923498
 11
278.2198135889355
 21
-210.5739114721539
  0
CIRCLE
  5
385
100
AcDbEntity
  8
0
  6
ByLayer
 62
  256
370
   -1
100
AcDbCircle
 10
147.4086861999997
 20
-300.3398043923498
 40
1.1999976
  0
CIRCLE
  5
386
100
AcDbEntity
  8
0
  6
ByLayer
 62
  256
370
   -1
100
AcDbCircle
 10
108.5466861999999
 20
-298.1805503923499
 40
1.1999976
  0
CIRCLE
  5
387
100
AcDbEntity
  8
0
  6
ByLayer
 62
  256
370
   -1
100
AcDbCircle
 10
57.8736861999999
 20
-290.8145503923499
 40
1.1999976
  0
CIRCLE
  5
388
100
AcDbEntity
  8
0
  6
ByLayer
 62
  256
370
   -1
100
AcDbCircle
 10
19.26568619999989
 20
-298.4345503923499
 40
1.1999976
  0
CIRCLE
  5
389
100
AcDbEntity
  8
0
  6
ByLayer
 62
  256
370
   -1
100
AcDbCircle
 10
19.26568619999989
 20
-241.0305503923499
 40
1.1999976
  0
CIRCLE
  5
38A
100
AcDbEntity
  8
0
  6
ByLayer
 62
  256
370
   -1
100
AcDbCircle
 10
57.36543219999987
 20
-255.25455039235
 40
1.1999976
  0
CIRCLE
  5
38B
100
AcDbEntity
  8
0
  6
ByLayer
 62
  256
370
   -1
100
AcDbCircle
 10
114.5154575999998
 20
-238.4906265923499
 40
1.1999976
  0
CIRCLE
  5
38C
100
AcDbEntity
  8
0
  6
ByLayer
 62
  256
370
   -1
100
AcDbCircle
 10
51.160406
 20
-216.0894018923499
 40
1.1999976
  0
LINE
  5
38D
100
AcDbEntity
  8
0
  6
ByLayer
 62
  256
370
   -1
100
AcDbLine
 10
108.7684060000002
 20
-311.44619389235
 11
115.7538060000002
 21
-299.31819389235
  0
LINE
  5
38E
100
AcDbEntity
  8
0
  6
ByLayer
 62
  256
370
   -1
100
AcDbLine
 10
115.7538060000002
 20
-299.31819389235
 11
127.8819060000002
 21
-306.32419389235
  0
LINE
  5
38F
100
AcDbEntity
  8
0
  6
ByLayer
 62
  256
370
   -1
100
AcDbLine
 10
127.8819060000002
 20
-306.32419389235
 11
120.8758060000002
 21
-318.45219389235
  0
LINE
  5
390
100
AcDbEntity
  8
0
  6
ByLayer
 62
  256
370
   -1
100
AcDbLine
 10
120.8758060000002
 20
-318.45219389235
 11
108.7684060000002
 21
-311.44619389235
  0
LINE
  5
391
100
AcDbEntity
  8
0
  6
ByLayer
 62
  256
370
   -1
100
AcDbLine
 10
130.0289680000001
 20
-312.7222898923499
 11
137.014368
 21
-300.5942898923499
  0
LINE
  5
392
100
AcDbEntity
  8
0
  6
ByLayer
 62
  256
370
   -1
100
AcDbLine
 10
137.014368
 20
-300.5942898923499
 11
149.1424680000001
 21
-307.6002898923499
  0
LINE
  5
393
100
AcDbEntity
  8
0
  6
ByLayer
 62
  256
370
   -1
100
AcDbLine
 10
149.1424680000001
 20
-307.6002898923499
 11
142.1363680000001
 21
-319.7282898923499
  0
LINE
  5
394
100
AcDbEntity
  8
0
  6
ByLayer
 62
  256
370
   -1
100
AcDbLine
 10
142.1363680000001
 20
-319.7282898923499
 11
130.0289680000001
 21
-312.7222898923499
  0
LINE
  5
395
100
AcDbEntity
  8
0
  6
ByLayer
 62
  256
370
   -1
100
AcDbLine
 10
120.5039680000002
 20
-329.22009789235
 11
127.4893680000002
 21
-317.09209789235
  0
LINE
  5
396
100
AcDbEntity
  8
0
  6
ByLayer
 62
  256
370
   -1
100
AcDbLine
 10
127.4893680000002
 20
-317.09209789235
 11
139.6174680000002
 21
-324.09809789235
  0
LINE
  5
397
100
AcDbEntity
  8
0
  6
ByLayer
 62
  256
370
   -1
100
AcDbLine
 10
139.6174680000002
 20
-324.09809789235
 11
132.6113680000002
 21
-336.22609789235
  0
CIRCLE
  5
398
100
AcDbEntity
  8
0
  6
ByLayer
 62
  256
370
   -1
100
AcDbCircle
 10
326.8699997889353
 20
-300.3398043923498
 40
1.1999976
  0
CIRCLE
  5
399
100
AcDbEntity
  8
0
  6
ByLayer
 62
  256
370
   -1
100
AcDbCircle
 10
288.0079997889354
 20
-298.1805503923499
 40
1.1999976
  0
CIRCLE
  5
39A
100
AcDbEntity
  8
0
  6
ByLayer
 62
  256
370
   -1
100
AcDbCircle
 10
237.3349997889354
 20
-290.8145503923499
 40
1.1999976
  0
CIRCLE
  5
39B
100
AcDbEntity
  8
0
  6
ByLayer
 62
  256
370
   -1
100
AcDbCircle
 10
198.7269997889354
 20
-298.4345503923499
 40
1.1999976
  0
CIRCLE
  5
39C
100
AcDbEntity
  8
0
  6
ByLayer
 62
  256
370
   -1
100
AcDbCircle
 10
198.7269997889354
 20
-241.0305503923499
 40
1.1999976
  0
CIRCLE
  5
39D
100
AcDbEntity
  8
0
  6
ByLayer
 62
  256
370
   -1
100
AcDbCircle
 10
236.8267457889354
 20
-255.25455039235
 40
1.1999976
  0
CIRCLE
  5
39E
100
AcDbEntity
  8
0
  6
ByLayer
 62
  256
370
   -1
100
AcDbCircle
 10
293.9767711889353
 20
-238.4906265923499
 40
1.1999976
  0
CIRCLE
  5
39F
100
AcDbEntity
  8
0
  6
ByLayer
 62
  256
370
   -1
100
AcDbCircle
 10
230.6217195889355
 20
-216.0894018923499
 40
1.1999976
  0
LINE
  5
3A0
100
AcDbEntity
  8
0
  6
ByLayer
 62
  256
370
   -1
100
AcDbLine
 10
59.90609799999999
 20
-293.4700978923498
 11
73.918098
 21
-293.4700978923498
  0
LINE
  5
3A1
100
AcDbEntity
  8
0
  6
ByLayer
 62
  256
370
   -1
100
AcDbLine
 10
73.918098
 20
-293.4700978923498
 11
73.918098
 21
-307.4610978923498
  0
LINE
  5
3A2
100
AcDbEntity
  8
0
  6
ByLayer
 62
  256
370
   -1
100
AcDbLine
 10
73.918098
 20
-307.4610978923498
 11
59.90609799999999
 21
-307.4610978923498
  0
LINE
  5
3A3
100
AcDbEntity
  8
0
  6
ByLayer
 62
  256
370
   -1
100
AcDbLine
 10
59.90609799999999
 20
-307.4610978923498
 11
59.90609799999999
 21
-293.4700978923498
  0
LINE
  5
3A4
100
AcDbEntity
  8
0
  6
ByLayer
 62
  256
370
   -1
100
AcDbLine
 10
59.90609799999999
 20
-87.31531519307686
 11
73.918098
 21
-87.31531519307686
  0
LINE
  5
3A5
100
AcDbEntity
  8
0
  6
ByLayer
 62
  256
370
   -1
100
AcDbLine
 10
73.918098
 20
-87.31531519307686
 11
73.918098
 21
-101.3063151930768
  0
LINE
  5
3A6
100
AcDbEntity
  8
0
  6
ByLayer
 62
  256
370
   -1
100
AcDbLine
 10
73.918098
 20
-101.3063151930768
 11
59.90609799999999
 21
-101.3063151930768
  0
LINE
  5
3A7
100
AcDbEntity
  8
0
  6
ByLayer
 62
  256
370
   -1
100
AcDbLine
 10
59.90609799999999
 20
-101.3063151930768
 11
59.90609799999999
 21
-87.31531519307686
  0
ENDSEC
  0
SECTION
  2
OBJECTS
  0
DICTIONARY
  5
C
330
0
100
AcDbDictionary
281
    1
  3
ACAD_GROUP
350
D
  0
DICTIONARY
  5
D
330
C
100
AcDbDictionary
281
    1
  0
PLOTSETTINGS
  5
3A8
100
AcDbPlotSettings
  6
1x1
 40
0
 41
0
 42
0
 43
0
  0
ENDSEC
  0
EOF
